<svg width="68" height="28" viewBox="0 0 68 28" fill="none" xmlns="http://www.w3.org/2000/svg">
<mask id="mask0_6863_26105" style="mask-type:luminance" maskUnits="userSpaceOnUse" x="0" y="0" width="68" height="28">
<path d="M0 0H67.9999V28H0V0Z" fill="white"/>
</mask>
<g mask="url(#mask0_6863_26105)">
<path d="M30.5876 19.2512L30.5882 19.5937C30.3682 19.7186 30.1141 19.7814 29.8258 19.782C29.5916 19.7824 29.3928 19.734 29.2295 19.6368C29.0662 19.5395 28.9368 19.4054 28.8414 19.2343C28.746 19.0633 28.6982 18.8782 28.6978 18.6788C28.6972 18.3623 28.8056 18.0959 29.023 17.8796C29.2403 17.6634 29.5086 17.5549 29.8278 17.5543C30.0481 17.5538 30.2929 17.6131 30.5624 17.7319L30.563 18.0666C30.3175 17.9218 30.0776 17.8495 29.8434 17.85C29.6032 17.8505 29.4038 17.9295 29.2455 18.087C29.0872 18.2446 29.0082 18.4416 29.0086 18.6783C29.009 18.917 29.0874 19.113 29.2438 19.2663C29.4003 19.4195 29.6001 19.496 29.8434 19.4955C30.0976 19.495 30.3457 19.4135 30.5876 19.2512Z" fill="white"/>
<path d="M31.5577 18.5737C31.4265 18.5739 31.319 18.6187 31.2351 18.7082C31.1512 18.7976 31.1094 18.9113 31.1096 19.0493C31.1098 19.1863 31.153 19.298 31.2393 19.3845C31.3255 19.471 31.4363 19.5142 31.5714 19.5139C31.7054 19.5136 31.8153 19.4696 31.9007 19.3817C31.9861 19.2939 32.0287 19.1814 32.0284 19.0445C32.0282 18.9084 31.9835 18.796 31.8943 18.7069C31.8049 18.6178 31.6928 18.5734 31.5577 18.5737ZM31.5722 18.3183C31.7824 18.3179 31.9572 18.3879 32.0966 18.5282C32.2359 18.6687 32.3059 18.8452 32.3062 19.0579C32.3066 19.2644 32.2364 19.4361 32.0955 19.5728C31.9546 19.7096 31.777 19.7782 31.5628 19.7786C31.3556 19.779 31.1823 19.7101 31.043 19.5717C30.9036 19.4334 30.8337 19.2605 30.8333 19.053C30.8329 18.8434 30.9029 18.6686 31.0434 18.5287C31.1837 18.3888 31.36 18.3187 31.5722 18.3183Z" fill="white"/>
<path d="M33.7348 18.7096L33.7367 19.7495L33.4619 19.75L33.4605 18.953C33.4602 18.7941 33.4395 18.6834 33.3983 18.6208C33.3572 18.5581 33.2856 18.5268 33.1834 18.527C33.1264 18.5271 33.0741 18.5407 33.0267 18.5677C32.9792 18.5948 32.9249 18.6426 32.864 18.7113L32.8659 19.7512L32.5926 19.7517L32.59 18.3195L32.8633 18.319L32.8637 18.5074C33.0025 18.3628 33.1385 18.2904 33.2716 18.2901C33.4468 18.2898 33.5826 18.3757 33.679 18.5478C33.8248 18.3732 33.9773 18.2857 34.1364 18.2854C34.2706 18.2851 34.381 18.3358 34.4678 18.4373C34.5546 18.5389 34.5982 18.6939 34.5985 18.9025L34.6 19.7478L34.3268 19.7484L34.3253 18.9C34.3251 18.7807 34.3013 18.6893 34.2542 18.6261C34.207 18.5629 34.1393 18.5313 34.0513 18.5315C33.9382 18.5317 33.8327 18.5911 33.7348 18.7096Z" fill="white"/>
<path d="M35.4217 18.5788L35.2285 18.5792L35.23 19.4602C35.3139 19.5047 35.4019 19.5268 35.4938 19.5267C35.6217 19.5264 35.7262 19.48 35.8074 19.3875C35.8886 19.295 35.9292 19.1761 35.9289 19.0308C35.9287 18.9374 35.9094 18.8549 35.8708 18.7834C35.8322 18.7118 35.7797 18.6598 35.7132 18.6272C35.6467 18.5947 35.5495 18.5786 35.4217 18.5788ZM34.9525 20.4773L34.9487 18.3151L35.4271 18.3141C35.672 18.3137 35.8628 18.3766 35.9995 18.5029C36.1362 18.6293 36.2048 18.8061 36.2052 19.0334C36.2056 19.2482 36.1416 19.4247 36.0135 19.563C35.8853 19.7013 35.7218 19.7707 35.5229 19.771C35.4349 19.7712 35.3374 19.7511 35.2304 19.7108L35.2318 20.4767L34.9525 20.4773Z" fill="white"/>
<path d="M36.5027 17.5694L36.7759 17.5689L36.7798 19.7436L36.5066 19.7441L36.5027 17.5694Z" fill="white"/>
<path d="M37.3787 18.8818L38.0739 18.8805C38.0666 18.7673 38.0339 18.6802 37.9758 18.6191C37.9177 18.5579 37.8395 18.5275 37.7414 18.5277C37.6432 18.5279 37.563 18.5587 37.5006 18.62C37.4381 18.6814 37.3975 18.7686 37.3787 18.8818ZM38.3444 19.0496L37.373 19.0515C37.3802 19.1885 37.4248 19.2974 37.5064 19.3781C37.5881 19.4589 37.6936 19.4992 37.8227 19.4989C38.0029 19.4986 38.169 19.4402 38.3209 19.3236L38.3214 19.6007C38.2375 19.659 38.1541 19.7007 38.0716 19.7257C37.9891 19.7508 37.8922 19.7634 37.7812 19.7637C37.629 19.7639 37.5058 19.7315 37.4116 19.6663C37.3174 19.6011 37.2419 19.5132 37.1852 19.4029C37.1284 19.2925 37.0999 19.1646 37.0997 19.0193C37.0992 18.8013 37.1585 18.6241 37.2774 18.4873C37.3963 18.3506 37.5508 18.2821 37.741 18.2817C37.9241 18.2813 38.0704 18.3475 38.1797 18.4801C38.289 18.6127 38.3439 18.7907 38.3443 19.0138L38.3444 19.0496Z" fill="white"/>
<path d="M38.7578 17.7052C38.8028 17.7051 38.8414 17.7215 38.8735 17.754C38.9056 17.7867 38.9216 17.8258 38.9217 17.8715C38.9218 17.9192 38.9066 17.9592 38.8761 17.9915C38.8456 18.0237 38.8074 18.0398 38.7613 18.0399C38.7183 18.04 38.6802 18.0235 38.6471 17.9903C38.614 17.9572 38.5975 17.9178 38.5974 17.8721C38.5973 17.8286 38.6135 17.7899 38.646 17.756C38.6785 17.7223 38.7157 17.7053 38.7578 17.7052ZM38.6297 18.308L38.9029 18.3074L38.9059 19.9435C38.9063 20.1916 38.8148 20.3672 38.6313 20.4702L38.4275 20.2636C38.4905 20.2406 38.5405 20.2006 38.5774 20.1434C38.6143 20.0862 38.6328 20.0198 38.6326 19.944L38.6297 18.308Z" fill="white"/>
<path d="M39.9468 18.5575C39.8157 18.5578 39.7081 18.6026 39.6242 18.6921C39.5403 18.7815 39.4985 18.8952 39.4987 19.0332C39.4989 19.1702 39.5422 19.2819 39.6285 19.3684C39.7147 19.4549 39.8254 19.4981 39.9605 19.4978C40.0946 19.4975 40.2044 19.4535 40.2898 19.3656C40.3752 19.2778 40.4178 19.1653 40.4175 19.0284C40.4173 18.8923 40.3726 18.7799 40.2834 18.6908C40.1941 18.6017 40.0819 18.5573 39.9468 18.5575ZM39.9613 18.3022C40.1715 18.3018 40.3464 18.3718 40.4858 18.5121C40.6251 18.6525 40.695 18.829 40.6953 19.0417C40.6957 19.2483 40.6255 19.42 40.4846 19.5567C40.3436 19.6935 40.1661 19.7621 39.9519 19.7624C39.7448 19.7628 39.5714 19.6939 39.4321 19.5556C39.2927 19.4173 39.2228 19.2444 39.2224 19.0369C39.222 18.8273 39.2921 18.6525 39.4325 18.5126C39.5728 18.3727 39.7491 18.3026 39.9613 18.3022Z" fill="white"/>
<path d="M43.5436 17.5559L43.8244 17.5554L43.8283 19.7301L43.5265 19.7307L43.5235 18.0386L42.8802 18.8804L42.8246 18.8805L42.1707 18.0412L42.1737 19.7333L41.8735 19.7339L41.8696 17.5592L42.1539 17.5586L42.8524 18.4504L43.5436 17.5559Z" fill="white"/>
<path d="M45.1125 17.5187L44.774 17.9863L44.6058 17.9867L44.8077 17.5193L45.1125 17.5187ZM44.4468 18.8681L45.1419 18.8668C45.1347 18.7536 45.102 18.6665 45.0439 18.6054C44.9857 18.5443 44.9076 18.5138 44.8095 18.514C44.7113 18.5142 44.6311 18.545 44.5687 18.6063C44.5062 18.6677 44.4656 18.7549 44.4468 18.8681ZM45.4125 19.0359L44.441 19.0378C44.4483 19.1748 44.4928 19.2837 44.5745 19.3644C44.6562 19.4452 44.7617 19.4855 44.8908 19.4852C45.071 19.4849 45.237 19.4265 45.389 19.3099L45.3895 19.587C45.3055 19.6453 45.2222 19.687 45.1397 19.712C45.0572 19.7371 44.9603 19.7498 44.8493 19.75C44.6971 19.7503 44.5739 19.7178 44.4797 19.6526C44.3855 19.5874 44.31 19.4995 44.2533 19.3892C44.1965 19.2788 44.168 19.1509 44.1677 19.0056C44.1674 18.7877 44.2266 18.6104 44.3455 18.4736C44.4643 18.3369 44.6189 18.2684 44.809 18.268C44.9922 18.2677 45.1385 18.3338 45.2478 18.4665C45.3571 18.5991 45.412 18.777 45.4124 19.0001L45.4125 19.0359Z" fill="white"/>
<path d="M46.6247 19.4819L46.6231 18.5743C46.5379 18.5299 46.4519 18.5077 46.3648 18.5079C46.2287 18.5081 46.1203 18.5545 46.04 18.6471C45.9596 18.7396 45.9195 18.8642 45.9198 19.0209C45.9201 19.1683 45.9553 19.2819 46.0255 19.3616C46.0676 19.4093 46.1122 19.4414 46.1593 19.4578C46.2064 19.4744 46.291 19.4825 46.4131 19.4823L46.6247 19.4819ZM46.6213 17.55L46.8961 17.5495L46.8999 19.7242L46.3159 19.7253C46.1117 19.7257 45.9487 19.6591 45.8268 19.5254C45.705 19.3919 45.6439 19.2124 45.6434 18.9873C45.6431 18.7766 45.7066 18.6031 45.834 18.4669C45.9613 18.3307 46.1241 18.2624 46.3223 18.262C46.4144 18.2618 46.5145 18.2819 46.6227 18.3221L46.6213 17.55Z" fill="white"/>
<path d="M47.2681 18.2914L47.5414 18.2909L47.544 19.7231L47.2707 19.7236L47.2681 18.2914ZM47.4022 17.6887C47.4472 17.6886 47.4857 17.7047 47.5179 17.7367C47.55 17.7689 47.5661 17.8083 47.5662 17.855C47.5662 17.9007 47.5503 17.9401 47.5183 17.9734C47.4863 18.0067 47.4478 18.0233 47.4028 18.0234C47.3607 18.0234 47.3237 18.0067 47.2916 17.973C47.2595 17.9394 47.2434 17.9002 47.2433 17.8556C47.2432 17.812 47.2592 17.7733 47.2912 17.7395C47.3232 17.7057 47.3601 17.6888 47.4022 17.6887Z" fill="white"/>
<path d="M48.9681 19.3857L48.9685 19.6659C48.8315 19.7191 48.6974 19.7458 48.5663 19.7461C48.3501 19.7465 48.1775 19.6804 48.0487 19.5478C47.9198 19.4152 47.8552 19.2374 47.8548 19.0142C47.8544 18.789 47.9166 18.6073 48.0415 18.469C48.1663 18.3307 48.3309 18.2614 48.5351 18.261C48.6062 18.2608 48.67 18.2677 48.7266 18.2816C48.7831 18.2956 48.853 18.3216 48.9362 18.3598L48.9367 18.6619C48.7984 18.5708 48.6702 18.5254 48.5521 18.5256C48.429 18.5258 48.3279 18.5709 48.2491 18.6608C48.1701 18.7507 48.1308 18.8653 48.1311 19.0043C48.1313 19.1506 48.1743 19.2668 48.26 19.3528C48.3458 19.4388 48.4612 19.4816 48.6063 19.4813C48.7115 19.4811 48.832 19.4493 48.9681 19.3857Z" fill="white"/>
<path d="M49.9169 18.5385C49.7858 18.5388 49.6782 18.5836 49.5943 18.673C49.5104 18.7625 49.4685 18.8761 49.4688 19.0141C49.469 19.1512 49.5123 19.2629 49.5985 19.3494C49.6848 19.4358 49.7954 19.479 49.9306 19.4787C50.0647 19.4785 50.1745 19.4344 50.2599 19.3465C50.3453 19.2587 50.3879 19.1462 50.3876 19.0093C50.3874 18.8733 50.3427 18.7609 50.2534 18.6718C50.1642 18.5826 50.052 18.5382 49.9169 18.5385ZM49.9314 18.2832C50.1416 18.2827 50.3164 18.3527 50.4559 18.4931C50.5952 18.6335 50.6651 18.81 50.6654 19.0227C50.6658 19.2293 50.5956 19.401 50.4547 19.5376C50.3137 19.6745 50.1362 19.743 49.922 19.7434C49.7149 19.7438 49.5415 19.6749 49.4021 19.5365C49.2628 19.3983 49.1929 19.2253 49.1925 19.0178C49.1921 18.8082 49.2622 18.6334 49.4026 18.4936C49.5429 18.3537 49.7192 18.2836 49.9314 18.2832Z" fill="white"/>
<path d="M53.3245 17.537L53.6248 17.5365L53.6287 19.7112L53.3284 19.7118L53.3267 18.7653L52.1481 18.7675L52.1498 19.714L51.8495 19.7146L51.8456 17.5399L52.1459 17.5393L52.1476 18.4795L53.3262 18.4773L53.3245 17.537Z" fill="white"/>
<path d="M54.691 18.5292C54.5599 18.5295 54.4523 18.5743 54.3684 18.6638C54.2845 18.7531 54.2427 18.8668 54.2429 19.0049C54.2431 19.1419 54.2864 19.2536 54.3726 19.3401C54.4589 19.4265 54.5695 19.4697 54.7047 19.4695C54.8388 19.4692 54.9486 19.4252 55.034 19.3373C55.1194 19.2494 55.162 19.137 55.1617 19C55.1615 18.864 55.1168 18.7516 55.0276 18.6625C54.9383 18.5734 54.8261 18.5289 54.691 18.5292ZM54.7055 18.2739C54.9157 18.2734 55.0905 18.3435 55.23 18.4838C55.3692 18.6242 55.4392 18.8007 55.4395 19.0134C55.4399 19.22 55.3697 19.3917 55.2288 19.5284C55.0878 19.6652 54.9103 19.7337 54.6961 19.7341C54.489 19.7345 54.3156 19.6656 54.1763 19.5273C54.0369 19.389 53.967 19.2161 53.9666 19.0085C53.9662 18.7989 54.0363 18.6242 54.1767 18.4843C54.317 18.3444 54.4933 18.2743 54.7055 18.2739Z" fill="white"/>
<path d="M55.6702 19.6046L55.6697 19.2995C55.7468 19.3555 55.8258 19.4007 55.9064 19.4353C55.987 19.4699 56.0549 19.4872 56.1099 19.487C56.167 19.4869 56.216 19.4723 56.257 19.4432C56.298 19.4141 56.3185 19.3793 56.3184 19.3388C56.3183 19.2973 56.3049 19.2628 56.2784 19.2354C56.2518 19.2079 56.1944 19.1683 56.1063 19.1166C55.9299 19.0152 55.8144 18.9285 55.7597 18.8564C55.705 18.7845 55.6776 18.7059 55.6774 18.6208C55.6772 18.5108 55.7184 18.4209 55.8009 18.3513C55.8833 18.2815 55.9896 18.2465 56.1197 18.2463C56.2549 18.2461 56.3935 18.2852 56.5358 18.3639L56.5363 18.6441C56.374 18.5426 56.2413 18.4921 56.1382 18.4923C56.0851 18.4923 56.0424 18.5042 56.0099 18.5276C55.9774 18.551 55.9611 18.5819 55.9612 18.6204C55.9613 18.6537 55.9761 18.6853 56.0056 18.7154C56.0351 18.7455 56.087 18.7817 56.1612 18.824L56.2589 18.8815C56.4894 19.0159 56.6048 19.1651 56.6052 19.329C56.6054 19.4462 56.5612 19.5426 56.4728 19.618C56.3843 19.6934 56.2705 19.7312 56.1314 19.7314C56.0493 19.7316 55.9762 19.7226 55.9121 19.7046C55.848 19.6866 55.7674 19.6533 55.6702 19.6046Z" fill="white"/>
<path d="M57.3674 18.5365L57.1741 18.5369L57.1757 19.418C57.2596 19.4625 57.3476 19.4846 57.4395 19.4844C57.5673 19.4842 57.6719 19.4378 57.7531 19.3453C57.8343 19.2528 57.8749 19.1338 57.8746 18.9885C57.8744 18.8951 57.855 18.8126 57.8164 18.7411C57.7779 18.6696 57.7254 18.6176 57.6588 18.585C57.5923 18.5525 57.4952 18.5363 57.3674 18.5365ZM56.8982 20.4351L56.8943 18.2728L57.3727 18.2719C57.6177 18.2714 57.8085 18.3343 57.9452 18.4607C58.0819 18.5871 58.1505 18.7639 58.1509 18.9911C58.1513 19.2059 58.0873 19.3825 57.9591 19.5208C57.8309 19.659 57.6675 19.7285 57.4686 19.7288C57.3806 19.729 57.2831 19.7089 57.1761 19.6686L57.1775 20.4345L56.8982 20.4351Z" fill="white"/>
<path d="M58.4497 18.2699L58.7229 18.2694L58.7255 19.7016L58.4522 19.7021L58.4497 18.2699ZM58.5837 17.6672C58.6288 17.6672 58.6673 17.6832 58.6994 17.7152C58.7315 17.7474 58.7476 17.7868 58.7477 17.8335C58.7478 17.8792 58.7318 17.9186 58.6998 17.9519C58.6678 17.9852 58.6294 18.0018 58.5843 18.0019C58.5422 18.0019 58.5052 17.9852 58.4731 17.9515C58.441 17.9179 58.4249 17.8787 58.4249 17.8341C58.4248 17.7905 58.4407 17.7518 58.4727 17.718C58.5047 17.6843 58.5417 17.6673 58.5837 17.6672Z" fill="white"/>
<path d="M58.9185 18.4963L59.431 17.9722L59.4315 18.2681L59.8684 18.2672L59.8689 18.5225L59.432 18.5234L59.4332 19.2243C59.4335 19.388 59.4992 19.4697 59.6304 19.4695C59.7284 19.4692 59.832 19.4353 59.9409 19.3676L59.9414 19.6323C59.8364 19.6938 59.7219 19.7246 59.5978 19.7249C59.4727 19.7251 59.3685 19.6874 59.2853 19.6118C59.2592 19.589 59.2377 19.5633 59.2206 19.5349C59.2035 19.5063 59.1892 19.469 59.1776 19.4228C59.166 19.3767 59.1601 19.2887 59.1598 19.159L59.1587 18.5239L58.9185 18.5243L58.9185 18.4963Z" fill="white"/>
<path d="M60.7306 19.4143L60.7298 18.9894L60.5468 19.0628C60.4537 19.1014 60.388 19.1401 60.3496 19.1792C60.3111 19.2182 60.2919 19.2668 60.292 19.3249C60.2921 19.384 60.3104 19.4322 60.3471 19.4695C60.3836 19.5067 60.431 19.5254 60.4891 19.5253C60.5761 19.5251 60.6566 19.4881 60.7306 19.4143ZM60.9983 18.8363L60.9994 19.4449C60.9995 19.4937 61.0155 19.518 61.0476 19.518C61.0806 19.5179 61.1321 19.4924 61.2021 19.4414L61.2023 19.6142C61.1404 19.6559 61.0906 19.6842 61.0531 19.6993C61.0157 19.7144 60.9764 19.7221 60.9353 19.7222C60.8182 19.7224 60.7491 19.6748 60.7278 19.5793C60.6119 19.6729 60.4884 19.7199 60.3572 19.7201C60.2611 19.7203 60.181 19.6876 60.1169 19.6218C60.0527 19.556 60.0205 19.4733 60.0203 19.3737C60.0202 19.2833 60.0513 19.2026 60.1138 19.1314C60.1761 19.0602 60.2649 19.0037 60.38 18.9619L60.7296 18.8368L60.7294 18.7605C60.7291 18.5883 60.6459 18.5022 60.4798 18.5025C60.3305 18.5028 60.1855 18.583 60.0447 18.7431L60.0442 18.4334C60.1501 18.3035 60.3025 18.2382 60.5017 18.2378C60.6508 18.2376 60.7706 18.2778 60.8609 18.3585C60.8909 18.3845 60.918 18.419 60.9421 18.4619C60.9662 18.505 60.9815 18.548 60.9881 18.5911C60.9947 18.6341 60.9981 18.7159 60.9983 18.8363Z" fill="white"/>
<path d="M61.4403 17.5216L61.7136 17.5211L61.7175 19.6957L61.4442 19.6963L61.4403 17.5216Z" fill="white"/>
<path d="M62.7048 19.4104L62.704 18.9854L62.5209 19.0589C62.4279 19.0975 62.3622 19.1362 62.3238 19.1753C62.2853 19.2142 62.266 19.2629 62.2662 19.321C62.2663 19.3801 62.2846 19.4283 62.3213 19.4656C62.3578 19.5028 62.4052 19.5215 62.4633 19.5214C62.5503 19.5212 62.6308 19.4842 62.7048 19.4104ZM62.9725 18.8324L62.9736 19.441C62.9737 19.4898 62.9897 19.5141 63.0218 19.5141C63.0548 19.514 63.1063 19.4885 63.1762 19.4375L63.1765 19.6103C63.1146 19.652 63.0648 19.6803 63.0273 19.6954C62.9898 19.7105 62.9505 19.7182 62.9095 19.7183C62.7924 19.7185 62.7232 19.6708 62.702 19.5754C62.5861 19.669 62.4626 19.716 62.3314 19.7162C62.2353 19.7164 62.1552 19.6837 62.0911 19.6179C62.0269 19.5521 61.9947 19.4694 61.9945 19.3698C61.9943 19.2794 62.0255 19.1987 62.0879 19.1275C62.1503 19.0563 62.2391 18.9998 62.3541 18.958L62.7037 18.8329L62.7036 18.7566C62.7033 18.5844 62.62 18.4983 62.4539 18.4986C62.3047 18.4989 62.1597 18.5791 62.0189 18.7392L62.0184 18.4295C62.1243 18.2995 62.2767 18.2343 62.4759 18.2339C62.625 18.2336 62.7448 18.2739 62.835 18.3546C62.8651 18.3806 62.8922 18.4151 62.9163 18.458C62.9404 18.5011 62.9556 18.5441 62.9623 18.5872C62.9689 18.6302 62.9723 18.712 62.9725 18.8324Z" fill="white"/>
<path d="M63.7024 18.2597L63.703 18.5881L63.718 18.5632C63.8497 18.3418 63.9817 18.2311 64.1138 18.2308C64.2169 18.2306 64.3245 18.2844 64.4369 18.3922L64.2932 18.6415C64.1979 18.5482 64.1097 18.5017 64.0286 18.5019C63.9406 18.5021 63.8643 18.5458 63.7999 18.6331C63.7355 18.7204 63.7034 18.8238 63.7037 18.943L63.705 19.6919L63.4302 19.6924L63.4277 18.2602L63.7024 18.2597Z" fill="white"/>
<path d="M64.6273 18.258L64.9005 18.2575L64.9031 19.6896L64.6298 19.6902L64.6273 18.258ZM64.7613 17.6553C64.8064 17.6552 64.8449 17.6712 64.877 17.7033C64.9091 17.7354 64.9252 17.7748 64.9253 17.8215C64.9254 17.8672 64.9094 17.9066 64.8774 17.9399C64.8454 17.9732 64.807 17.9898 64.7619 17.9899C64.7198 17.99 64.6828 17.9732 64.6507 17.9395C64.6186 17.9059 64.6025 17.8668 64.6024 17.8221C64.6024 17.7786 64.6183 17.7399 64.6503 17.7061C64.6823 17.6723 64.7193 17.6554 64.7613 17.6553Z" fill="white"/>
<path d="M65.9353 18.5075C65.8041 18.5078 65.6966 18.5526 65.6126 18.642C65.5287 18.7315 65.4869 18.8451 65.4871 18.9831C65.4874 19.1202 65.5307 19.2319 65.6169 19.3184C65.7031 19.4048 65.8138 19.448 65.9489 19.4477C66.0831 19.4475 66.1928 19.4034 66.2783 19.3155C66.3637 19.2277 66.4063 19.1152 66.406 18.9783C66.4058 18.8423 66.361 18.7299 66.2718 18.6407C66.1826 18.5516 66.0704 18.5072 65.9353 18.5075ZM65.9498 18.2522C66.16 18.2517 66.3348 18.3217 66.4742 18.4621C66.6135 18.6025 66.6834 18.779 66.6838 18.9917C66.6842 19.1983 66.614 19.37 66.473 19.5066C66.3321 19.6434 66.1546 19.712 65.9404 19.7124C65.7332 19.7128 65.5599 19.6439 65.4205 19.5055C65.2812 19.3673 65.2113 19.1943 65.2109 18.9868C65.2105 18.7772 65.2805 18.6024 65.4209 18.4626C65.5613 18.3227 65.7376 18.2525 65.9498 18.2522Z" fill="white"/>
<path d="M33.1679 13.8546L32.184 11.4208L31.3006 13.8582L33.1679 13.8546ZM33.0336 9.92095L35.7292 16.1821L34.1103 16.1852L33.6101 14.9482L30.9036 14.9534L30.4545 16.1922L28.8592 16.1953L31.2892 9.92434L33.0336 9.92095Z" fill="white"/>
<path d="M41.4037 9.9049L38.6218 16.2573L37.9685 16.2585L35.0291 9.91717L36.6691 9.914L38.2746 13.4915L39.782 9.90801L41.4037 9.9049Z" fill="white"/>
<path d="M45.0389 13.8316L44.055 11.3978L43.1716 13.8352L45.0389 13.8316ZM44.9046 9.898L47.6002 16.1591L45.9813 16.1623L45.4811 14.9253L42.7746 14.9304L42.3256 16.1693L40.7302 16.1724L43.1603 9.90139L44.9046 9.898Z" fill="white"/>
<path d="M54.407 9.87969L54.4181 16.146L53.1468 16.1484L49.8037 12.1403L49.8109 16.1548L48.3053 16.1577L48.2941 9.89146L49.6747 9.88879L52.9084 13.7133L52.9016 9.88258L54.407 9.87969Z" fill="white"/>
<path d="M61.2208 9.86672L61.2228 11.015L59.0339 11.0192L59.043 16.1372L57.5374 16.1401L57.5283 11.0221L55.3393 11.0263L55.3372 9.87805L61.2208 9.86672Z" fill="white"/>
<path d="M66.6204 14.9743L66.6225 16.1225L62.1665 16.1311L62.1553 9.86479L66.5507 9.85635L66.5528 11.0046L63.6629 11.0102L63.6652 12.3245L66.421 12.3192L66.4231 13.4675L63.6672 13.4728L63.67 14.9799L66.6204 14.9743Z" fill="white"/>
<path d="M13.6259 13.7968C14.8342 12.1415 16.11 11.2657 17.599 12.8503C17.8512 13.6439 17.8665 14.3951 17.3455 15.05C16.7193 13.6243 15.8453 13.4322 14.6475 14.8522L13.6259 13.7968Z" fill="#CCCBCB"/>
<path d="M9.88904 13.9456C8.11828 15.9571 11.0268 17.665 12.6807 15.156L13.6254 16.0104C11.8277 18.4928 9.27271 18.9555 7.89301 15.3097C7.9579 14.1577 8.66923 13.7564 9.88904 13.9456Z" fill="#CCCBCB"/>
<path d="M14.4308 15.7411L13.0728 12.3823L11.8537 15.746L14.4308 15.7411ZM14.2454 10.3125L17.9654 18.9532L15.7312 18.9575L15.0409 17.2504L11.3058 17.2575L10.6861 18.9672L8.48438 18.9714L11.838 10.3171L14.2454 10.3125Z" fill="white"/>
<path d="M7.89299 15.3098C7.9746 14.1248 8.70606 13.7528 9.88903 13.9457L10.665 13.6923C9.70285 13.0436 8.76796 12.9423 7.92678 13.6444C7.68592 14.1992 7.74804 14.7544 7.89299 15.3098Z" fill="#CCCBCB"/>
<path d="M17.3767 15.9749L17.3455 15.0501C17.7497 14.5089 17.8658 13.8166 17.599 12.8504C18.0371 13.3592 18.3209 13.8166 18.4232 14.387C18.1254 15.0372 17.784 15.5841 17.3767 15.9749Z" fill="#CCCBCB"/>
<path d="M8.65356 12.6173C8.40435 12.883 8.16178 13.2224 7.92676 13.6444C9.58432 12.1492 12.3451 14.7649 14.489 16.8355C15.4043 17.7195 16.82 17.7689 17.7474 16.9442C15.037 18.3281 12.3083 11.3564 8.65356 12.6173Z" fill="#CCCBCB"/>
<path d="M17.9359 16.7572C18.5074 16.1227 18.6279 15.3167 18.4232 14.387C18.055 15.1581 17.6532 15.8186 17.1519 16.1528C16.6634 16.4785 16.0151 16.3704 15.62 15.929C13.1474 13.1664 10.6796 10.4571 8.65356 12.6173C12.3083 11.3564 15.037 18.3281 17.7474 16.9442C17.8128 16.8862 17.8758 16.824 17.9359 16.7572Z" fill="#CCCBCB"/>
<path d="M4.77081 5.99243L4.76471 2.59236L9.25537 2.58376L9.26142 5.98377L4.77081 5.99243Z" fill="#CCCBCB"/>
<path d="M1.49322 11.8801L1.48486 7.22407L4.773 7.21774L4.78136 11.8738L1.49322 11.8801Z" fill="white"/>
<path d="M4.76476 2.59248L1.47662 2.59881L1.48492 7.23438L4.77306 7.22805L4.76476 2.59248Z" fill="#E6E6E6"/>
<path d="M4.79292 23.3076L1.51367 23.314L1.50537 18.6579L4.78457 18.6516L4.79292 23.3076Z" fill="#CCCBCB"/>
<path d="M10.4714 26.7059L5.98077 26.7146L5.97467 23.3053L10.4653 23.2967L10.4714 26.7059Z" fill="white"/>
<path d="M1.51367 23.3139L1.51978 26.7231L5.99062 26.7145L5.98452 23.3053L1.51367 23.3139Z" fill="#E6E6E6"/>
<path d="M21.4696 23.2341L21.4757 26.6342L16.9851 26.6428L16.979 23.2428L21.4696 23.2341Z" fill="#CCCBCB"/>
<path d="M24.7472 17.3464L24.7555 22.0025L21.4674 22.0088L21.459 17.3527L24.7472 17.3464Z" fill="white"/>
<path d="M21.4757 26.634L24.7638 26.6277L24.7555 21.9921L21.4674 21.9984L21.4757 26.634Z" fill="#E6E6E6"/>
<path d="M21.4877 5.96944L24.7669 5.96311L24.7752 10.6192L21.496 10.6255L21.4877 5.96944Z" fill="#CCCBCB"/>
<path d="M15.8093 2.57118L20.2999 2.56252L20.306 5.97181L15.8154 5.98047L15.8093 2.57118Z" fill="white"/>
<path d="M24.7669 5.96332L24.7608 2.55403L20.29 2.56264L20.296 5.97192L24.7669 5.96332Z" fill="#E6E6E6"/>
</g>
</svg>
