<svg width="16" height="16" viewBox="0 0 16 16" fill="none" xmlns="http://www.w3.org/2000/svg">
<path d="M0.820068 14.8467L10.1534 11.5133L4.1534 5.51332L0.820068 14.8467Z" fill="#F2F9FF"/>
<path d="M9.1734 8.53332L12.9001 4.80665C13.2267 4.47999 13.7534 4.47999 14.0801 4.80665L14.4734 5.19999L15.1801 4.49332L14.7867 4.09999C14.0734 3.38665 12.9067 3.38665 12.1934 4.09999L8.46674 7.82665L9.1734 8.53332Z" fill="#F2F9FF"/>
<path d="M6.1934 4.76665L5.80007 5.15999L6.50673 5.86665L6.90007 5.47332C7.6134 4.75999 7.6134 3.59332 6.90007 2.87999L6.50673 2.48665L5.80007 3.19999L6.1934 3.59332C6.5134 3.91332 6.5134 4.44665 6.1934 4.76665Z" fill="#F2F9FF"/>
<path d="M10.8601 8.09999L9.80007 9.15999L10.5067 9.86665L11.5667 8.80665C11.8934 8.47999 12.4201 8.47999 12.7467 8.80665L13.8201 9.87999L14.5267 9.17332L13.4534 8.09999C12.7334 7.38665 11.5734 7.38665 10.8601 8.09999Z" fill="#F2F9FF"/>
<path d="M9.52674 4.09999L7.1334 6.49332L7.84007 7.19999L10.2334 4.80665C10.9467 4.09332 10.9467 2.92665 10.2334 2.21332L9.1734 1.15332L8.46674 1.85999L9.52674 2.91999C9.84674 3.24665 9.84674 3.77999 9.52674 4.09999Z" fill="#F2F9FF"/>
</svg>
