<svg width="24" height="24" viewBox="0 0 24 24" fill="none" xmlns="http://www.w3.org/2000/svg">
<path fill-rule="evenodd" clip-rule="evenodd" d="M6 4.5C6 3.67158 6.67155 3 7.5 3H11.5C12.3285 3 13 3.67158 13 4.5H14.5C15.3285 4.5 16 5.17155 16 6V19.5C16 20.3284 15.3285 21 14.5 21H4.5C3.67158 21 3 20.3284 3 19.5V6C3 5.17155 3.67158 4.5 4.5 4.5H6ZM7.5 4C7.22385 4 7 4.22386 7 4.5V5.5C7 5.77615 7.22385 6 7.5 6H11.5C11.7761 6 12 5.77615 12 5.5V4.5C12 4.22386 11.7761 4 11.5 4H7.5ZM7 9V10.5H5.5V11.5H7V13H8V11.5H9.5V10.5H8V9H7ZM6 14.5C5.72385 14.5 5.5 14.7239 5.5 15C5.5 15.2761 5.72385 15.5 6 15.5H13C13.2761 15.5 13.5 15.2761 13.5 15C13.5 14.7239 13.2761 14.5 13 14.5H6ZM5.5 17.5C5.5 17.2239 5.72385 17 6 17H13C13.2761 17 13.5 17.2239 13.5 17.5C13.5 17.7761 13.2761 18 13 18H6C5.72385 18 5.5 17.7761 5.5 17.5Z" fill="#BA5A31"/>
<path fill-rule="evenodd" clip-rule="evenodd" d="M6 4.5C6 3.67158 6.67155 3 7.5 3H11.5C12.3285 3 13 3.67158 13 4.5H14.5C15.3285 4.5 16 5.17155 16 6V19.5C16 20.3284 15.3285 21 14.5 21H4.5C3.67158 21 3 20.3284 3 19.5V6C3 5.17155 3.67158 4.5 4.5 4.5H6ZM7.5 4C7.22385 4 7 4.22386 7 4.5V5.5C7 5.77615 7.22385 6 7.5 6H11.5C11.7761 6 12 5.77615 12 5.5V4.5C12 4.22386 11.7761 4 11.5 4H7.5ZM7 9V10.5H5.5V11.5H7V13H8V11.5H9.5V10.5H8V9H7ZM6 14.5C5.72385 14.5 5.5 14.7239 5.5 15C5.5 15.2761 5.72385 15.5 6 15.5H13C13.2761 15.5 13.5 15.2761 13.5 15C13.5 14.7239 13.2761 14.5 13 14.5H6ZM5.5 17.5C5.5 17.2239 5.72385 17 6 17H13C13.2761 17 13.5 17.2239 13.5 17.5C13.5 17.7761 13.2761 18 13 18H6C5.72385 18 5.5 17.7761 5.5 17.5Z" fill="#212121" fill-opacity="0.3"/>
<path d="M18 9C18 8.17155 18.6715 7.5 19.5 7.5C20.3284 7.5 21 8.17155 21 9V10.5H18V9Z" fill="#BA5A31"/>
<path d="M18 9C18 8.17155 18.6715 7.5 19.5 7.5C20.3284 7.5 21 8.17155 21 9V10.5H18V9Z" fill="#212121" fill-opacity="0.3"/>
<path d="M18 19V11.5H21V19L19.5 21L18 19Z" fill="#BA5A31"/>
<path d="M18 19V11.5H21V19L19.5 21L18 19Z" fill="#212121" fill-opacity="0.3"/>
</svg>
