<svg width="16" height="17" viewBox="0 0 16 17" fill="none" xmlns="http://www.w3.org/2000/svg">
<path fill-rule="evenodd" clip-rule="evenodd" d="M7.988 2.04175C4.3061 2.04476 1.32377 5.03199 1.32678 8.71389C1.3298 12.3958 4.317 15.3781 7.9989 15.3751C11.6808 15.3721 14.6631 12.3849 14.6601 8.70295C14.6571 5.02105 11.6699 2.03873 7.988 2.04175ZM6.6638 11.7308V9.39745H9.33047V11.7308H10.6638V5.73079H9.33047V8.06412H6.6638V5.73079H5.33047V11.7308H6.6638Z" fill="#28C2FF"/>
<path fill-rule="evenodd" clip-rule="evenodd" d="M7.988 2.04175C4.3061 2.04476 1.32377 5.03199 1.32678 8.71389C1.3298 12.3958 4.317 15.3781 7.9989 15.3751C11.6808 15.3721 14.6631 12.3849 14.6601 8.70295C14.6571 5.02105 11.6699 2.03873 7.988 2.04175ZM6.6638 11.7308V9.39745H9.33047V11.7308H10.6638V5.73079H9.33047V8.06412H6.6638V5.73079H5.33047V11.7308H6.6638Z" fill="#212121" fill-opacity="0.3"/>
</svg>
