<svg width="24" height="24" viewBox="0 0 24 24" fill="none" xmlns="http://www.w3.org/2000/svg">
<path fill-rule="evenodd" clip-rule="evenodd" d="M10 2C9.17155 2 8.5 2.67158 8.5 3.5H6.5C5.67155 3.5 5 4.17158 5 5V10.4943H8.8163L10.5104 7.4827L11.5688 11.1875L12.8642 9.5221H15.6088C15.8849 9.5221 16.1087 9.74595 16.1087 10.0221C16.1087 10.2983 15.8849 10.5221 15.6088 10.5221H13.3533L11.1486 13.3567L10.2072 10.0615L9.40115 11.4943H5V20.5C5 21.3285 5.67155 22 6.5 22H17.5C18.3285 22 19 21.3285 19 20.5V5C19 4.17158 18.3285 3.5 17.5 3.5H15.5C15.5 2.67158 14.8285 2 14 2H10ZM9.5 3.5C9.5 3.22386 9.72385 3 10 3H14C14.2761 3 14.5 3.22386 14.5 3.5V4.5C14.5 4.77614 14.2761 5 14 5H10C9.72385 5 9.5 4.77614 9.5 4.5V3.5ZM8 15.5C8 15.2239 8.22385 15 8.5 15H15.5C15.7761 15 16 15.2239 16 15.5C16 15.7761 15.7761 16 15.5 16H8.5C8.22385 16 8 15.7761 8 15.5ZM8.5 18C8.22385 18 8 18.2239 8 18.5C8 18.7761 8.22385 19 8.5 19H11.5C11.7761 19 12 18.7761 12 18.5C12 18.2239 11.7761 18 11.5 18H8.5Z" fill="#28C2FF"/>
<path fill-rule="evenodd" clip-rule="evenodd" d="M10 2C9.17155 2 8.5 2.67158 8.5 3.5H6.5C5.67155 3.5 5 4.17158 5 5V10.4943H8.8163L10.5104 7.4827L11.5688 11.1875L12.8642 9.5221H15.6088C15.8849 9.5221 16.1087 9.74595 16.1087 10.0221C16.1087 10.2983 15.8849 10.5221 15.6088 10.5221H13.3533L11.1486 13.3567L10.2072 10.0615L9.40115 11.4943H5V20.5C5 21.3285 5.67155 22 6.5 22H17.5C18.3285 22 19 21.3285 19 20.5V5C19 4.17158 18.3285 3.5 17.5 3.5H15.5C15.5 2.67158 14.8285 2 14 2H10ZM9.5 3.5C9.5 3.22386 9.72385 3 10 3H14C14.2761 3 14.5 3.22386 14.5 3.5V4.5C14.5 4.77614 14.2761 5 14 5H10C9.72385 5 9.5 4.77614 9.5 4.5V3.5ZM8 15.5C8 15.2239 8.22385 15 8.5 15H15.5C15.7761 15 16 15.2239 16 15.5C16 15.7761 15.7761 16 15.5 16H8.5C8.22385 16 8 15.7761 8 15.5ZM8.5 18C8.22385 18 8 18.2239 8 18.5C8 18.7761 8.22385 19 8.5 19H11.5C11.7761 19 12 18.7761 12 18.5C12 18.2239 11.7761 18 11.5 18H8.5Z" fill="#212121" fill-opacity="0.3"/>
</svg>
