<svg width="96" height="96" viewBox="0 0 96 96" fill="none" xmlns="http://www.w3.org/2000/svg">
<path d="M62 18V51.4622C62 53.4352 64.554 54.2164 65.6576 52.5812L71.1064 44.5092C72.6982 42.1508 75.9112 41.5494 78.2482 43.1724C80.3842 44.6556 81.0634 47.5078 79.8254 49.7946L65.95 75.4256C61.7558 83.1732 53.6542 88 44.8442 88H42C28.7452 88 18 77.2548 18 64V30C18 27.7908 19.7909 26 22 26C24.2092 26 26 27.7908 26 30V50.2222H30V18C30 15.7909 31.7908 14 34 14C36.2092 14 38 15.7909 38 18V46H42V12C42 9.79086 43.7908 8 46 8C48.2092 8 50 9.79086 50 12V46H54V18C54 15.7909 55.7908 14 58 14C60.2092 14 62 15.7909 62 18Z" fill="#39393A"/>
</svg>
