<svg width="16" height="16" viewBox="0 0 16 16" fill="none" xmlns="http://www.w3.org/2000/svg">
<path fill-rule="evenodd" clip-rule="evenodd" d="M8.05193 14.6668C11.7338 14.6668 14.7186 11.6821 14.7186 8.00016C14.7186 4.31826 11.7338 1.3335 8.05193 1.3335C4.37003 1.3335 1.38525 4.31826 1.38525 8.00016C1.38525 11.6821 4.37003 14.6668 8.05193 14.6668ZM5.66626 4.66683C5.48216 4.66683 5.33293 4.81606 5.33293 5.00016V5.2412L4.51019 4.539L4.07739 5.04606L5.33293 6.1177V11.0002C5.33293 11.1843 5.48216 11.3335 5.66626 11.3335C5.85036 11.3335 5.99959 11.1843 5.99959 11.0002V6.6867L6.99959 7.54023V11.0002C6.99959 11.1843 7.14883 11.3335 7.33293 11.3335C7.51703 11.3335 7.66626 11.1843 7.66626 11.0002V8.10923L8.66626 8.96276V11.0002C8.66626 11.1843 8.81549 11.3335 8.99959 11.3335C9.18369 11.3335 9.33293 11.1843 9.33293 11.0002V9.53176L10.3329 10.3853V11.0002C10.3329 11.1843 10.4822 11.3335 10.6663 11.3335C10.8504 11.3335 10.9996 11.1843 10.9996 11.0002V10.9543L11.6065 11.4723L12.0393 10.9652L10.9996 10.0778V5.00016C10.9996 4.81606 10.8504 4.66683 10.6663 4.66683C10.4822 4.66683 10.3329 4.81606 10.3329 5.00016V9.5088L9.33293 8.6553V5.00016C9.33293 4.81606 9.18369 4.66683 8.99959 4.66683C8.81549 4.66683 8.66626 4.81606 8.66626 5.00016V8.08626L7.66626 7.23276V5.00016C7.66626 4.81606 7.51703 4.66683 7.33293 4.66683C7.14883 4.66683 6.99959 4.81606 6.99959 5.00016V6.66373L5.99959 5.81023V5.00016C5.99959 4.81606 5.85036 4.66683 5.66626 4.66683Z" fill="#212121"/>
<path fill-rule="evenodd" clip-rule="evenodd" d="M8.05193 14.6668C11.7338 14.6668 14.7186 11.6821 14.7186 8.00016C14.7186 4.31826 11.7338 1.3335 8.05193 1.3335C4.37003 1.3335 1.38525 4.31826 1.38525 8.00016C1.38525 11.6821 4.37003 14.6668 8.05193 14.6668ZM5.66626 4.66683C5.48216 4.66683 5.33293 4.81606 5.33293 5.00016V5.2412L4.51019 4.539L4.07739 5.04606L5.33293 6.1177V11.0002C5.33293 11.1843 5.48216 11.3335 5.66626 11.3335C5.85036 11.3335 5.99959 11.1843 5.99959 11.0002V6.6867L6.99959 7.54023V11.0002C6.99959 11.1843 7.14883 11.3335 7.33293 11.3335C7.51703 11.3335 7.66626 11.1843 7.66626 11.0002V8.10923L8.66626 8.96276V11.0002C8.66626 11.1843 8.81549 11.3335 8.99959 11.3335C9.18369 11.3335 9.33293 11.1843 9.33293 11.0002V9.53176L10.3329 10.3853V11.0002C10.3329 11.1843 10.4822 11.3335 10.6663 11.3335C10.8504 11.3335 10.9996 11.1843 10.9996 11.0002V10.9543L11.6065 11.4723L12.0393 10.9652L10.9996 10.0778V5.00016C10.9996 4.81606 10.8504 4.66683 10.6663 4.66683C10.4822 4.66683 10.3329 4.81606 10.3329 5.00016V9.5088L9.33293 8.6553V5.00016C9.33293 4.81606 9.18369 4.66683 8.99959 4.66683C8.81549 4.66683 8.66626 4.81606 8.66626 5.00016V8.08626L7.66626 7.23276V5.00016C7.66626 4.81606 7.51703 4.66683 7.33293 4.66683C7.14883 4.66683 6.99959 4.81606 6.99959 5.00016V6.66373L5.99959 5.81023V5.00016C5.99959 4.81606 5.85036 4.66683 5.66626 4.66683Z" fill="#F5F7FF" fill-opacity="0.5"/>
</svg>
