<svg width="24" height="24" viewBox="0 0 24 24" fill="none" xmlns="http://www.w3.org/2000/svg">
<path d="M10.4285 9.76563C10.7025 9.79988 10.8969 10.0498 10.8626 10.3238L10.4103 13.9428C10.376 14.2169 10.1261 14.4112 9.85208 14.377C9.57808 14.3427 9.38373 14.0928 9.41798 13.8188L9.87038 10.1998C9.90463 9.92573 10.1545 9.73138 10.4285 9.76563Z" fill="#28C2FF"/>
<path d="M10.4285 9.76563C10.7025 9.79988 10.8969 10.0498 10.8626 10.3238L10.4103 13.9428C10.376 14.2169 10.1261 14.4112 9.85208 14.377C9.57808 14.3427 9.38373 14.0928 9.41798 13.8188L9.87038 10.1998C9.90463 9.92573 10.1545 9.73138 10.4285 9.76563Z" fill="#212121" fill-opacity="0.3"/>
<path fill-rule="evenodd" clip-rule="evenodd" d="M4.5 3C3.67158 3 3 3.67158 3 4.5V19.5C3 20.3285 3.67158 21 4.5 21H19.5C20.3285 21 21 20.3285 21 19.5V4.5C21 3.67158 20.3285 3 19.5 3H4.5ZM8.72685 9.83085C8.8244 9.00295 9.42305 8.30685 10.2445 8.16495C11.5192 7.9447 12.54 7.9467 13.7653 8.1609C14.5823 8.3038 15.1753 8.9987 15.2724 9.8225L16.0001 16H8.0001L8.72685 9.83085ZM7.5001 18V17H16.5001V18H7.5001ZM6.5224 12.5C6.5076 12.3353 6.5 12.1685 6.5 12C6.5 11.8315 6.5076 11.6647 6.5224 11.5H5V12.5H6.5224ZM7.00545 9.69375C7.14635 9.3891 7.31425 9.09955 7.5062 8.82815L6.1878 8.067L5.6878 8.933L7.00545 9.69375ZM8.82815 7.5062C9.09955 7.3143 9.3891 7.14635 9.69375 7.00545L8.933 5.68785L8.067 6.18785L8.82815 7.5062ZM11.5 6.5224C11.6647 6.5076 11.8315 6.5 12 6.5C12.1685 6.5 12.3353 6.5076 12.5 6.5224V5H11.5V6.5224ZM14.3062 7.00545C14.6109 7.14635 14.9005 7.3143 15.1719 7.5062L15.933 6.18785L15.067 5.68785L14.3062 7.00545ZM16.4938 8.82815C16.6857 9.09955 16.8537 9.3891 16.9946 9.69375L18.3122 8.933L17.8122 8.067L16.4938 8.82815ZM17.4776 11.5C17.4924 11.6647 17.5 11.8315 17.5 12C17.5 12.1685 17.4924 12.3353 17.4776 12.5H19V11.5H17.4776Z" fill="#28C2FF"/>
<path fill-rule="evenodd" clip-rule="evenodd" d="M4.5 3C3.67158 3 3 3.67158 3 4.5V19.5C3 20.3285 3.67158 21 4.5 21H19.5C20.3285 21 21 20.3285 21 19.5V4.5C21 3.67158 20.3285 3 19.5 3H4.5ZM8.72685 9.83085C8.8244 9.00295 9.42305 8.30685 10.2445 8.16495C11.5192 7.9447 12.54 7.9467 13.7653 8.1609C14.5823 8.3038 15.1753 8.9987 15.2724 9.8225L16.0001 16H8.0001L8.72685 9.83085ZM7.5001 18V17H16.5001V18H7.5001ZM6.5224 12.5C6.5076 12.3353 6.5 12.1685 6.5 12C6.5 11.8315 6.5076 11.6647 6.5224 11.5H5V12.5H6.5224ZM7.00545 9.69375C7.14635 9.3891 7.31425 9.09955 7.5062 8.82815L6.1878 8.067L5.6878 8.933L7.00545 9.69375ZM8.82815 7.5062C9.09955 7.3143 9.3891 7.14635 9.69375 7.00545L8.933 5.68785L8.067 6.18785L8.82815 7.5062ZM11.5 6.5224C11.6647 6.5076 11.8315 6.5 12 6.5C12.1685 6.5 12.3353 6.5076 12.5 6.5224V5H11.5V6.5224ZM14.3062 7.00545C14.6109 7.14635 14.9005 7.3143 15.1719 7.5062L15.933 6.18785L15.067 5.68785L14.3062 7.00545ZM16.4938 8.82815C16.6857 9.09955 16.8537 9.3891 16.9946 9.69375L18.3122 8.933L17.8122 8.067L16.4938 8.82815ZM17.4776 11.5C17.4924 11.6647 17.5 11.8315 17.5 12C17.5 12.1685 17.4924 12.3353 17.4776 12.5H19V11.5H17.4776Z" fill="#212121" fill-opacity="0.3"/>
</svg>
