<svg width="16" height="16" viewBox="0 0 16 16" fill="none" xmlns="http://www.w3.org/2000/svg">
<path d="M11.695 12.7279C13.0983 11.6297 14.0003 9.92026 14.0003 8.00016C14.0003 5.38123 12.3224 3.15422 9.98291 2.33546L10.2032 1.70605C12.8026 2.61578 14.6669 5.09026 14.6669 8.00016C14.6669 10.1378 13.6608 12.0405 12.0963 13.2605L11.695 12.7279Z" fill="#212121"/>
<path d="M11.695 12.7279C13.0983 11.6297 14.0003 9.92026 14.0003 8.00016C14.0003 5.38123 12.3224 3.15422 9.98291 2.33546L10.2032 1.70605C12.8026 2.61578 14.6669 5.09026 14.6669 8.00016C14.6669 10.1378 13.6608 12.0405 12.0963 13.2605L11.695 12.7279Z" fill="#F5F7FF" fill-opacity="0.5"/>
<path d="M9.48874 13.814C9.01271 13.9355 8.51394 14.0001 8.00008 14.0001C7.49748 14.0001 7.00934 13.9383 6.54281 13.8219L6.38428 14.4696C6.90161 14.5984 7.44288 14.6668 8.00008 14.6668C8.56858 14.6668 9.12044 14.5956 9.64728 14.4617L9.48874 13.814Z" fill="#212121"/>
<path d="M9.48874 13.814C9.01271 13.9355 8.51394 14.0001 8.00008 14.0001C7.49748 14.0001 7.00934 13.9383 6.54281 13.8219L6.38428 14.4696C6.90161 14.5984 7.44288 14.6668 8.00008 14.6668C8.56858 14.6668 9.12044 14.5956 9.64728 14.4617L9.48874 13.814Z" fill="#F5F7FF" fill-opacity="0.5"/>
<path d="M2.00016 8.00016C2.00016 9.92983 2.9111 11.6467 4.3264 12.7443L3.9252 13.2768C2.34864 12.0575 1.3335 10.1474 1.3335 8.00016C1.3335 5.09026 3.19784 2.61578 5.79723 1.70605L6.01753 2.33546C3.67806 3.15422 2.00016 5.38123 2.00016 8.00016Z" fill="#212121"/>
<path d="M2.00016 8.00016C2.00016 9.92983 2.9111 11.6467 4.3264 12.7443L3.9252 13.2768C2.34864 12.0575 1.3335 10.1474 1.3335 8.00016C1.3335 5.09026 3.19784 2.61578 5.79723 1.70605L6.01753 2.33546C3.67806 3.15422 2.00016 5.38123 2.00016 8.00016Z" fill="#F5F7FF" fill-opacity="0.5"/>
<path d="M9.5 2.83349C9.5 3.66193 8.82843 4.3335 8 4.3335C7.17157 4.3335 6.5 3.66193 6.5 2.83349C6.5 2.00609 7.16993 1.33515 7.99693 1.3335H8.00307C8.83007 1.33515 9.5 2.00609 9.5 2.83349Z" fill="#212121"/>
<path d="M9.5 2.83349C9.5 3.66193 8.82843 4.3335 8 4.3335C7.17157 4.3335 6.5 3.66193 6.5 2.83349C6.5 2.00609 7.16993 1.33515 7.99693 1.3335H8.00307C8.83007 1.33515 9.5 2.00609 9.5 2.83349Z" fill="#F5F7FF" fill-opacity="0.5"/>
<path fill-rule="evenodd" clip-rule="evenodd" d="M5.3335 7.33317C5.57636 7.33317 5.80406 7.26824 6.00016 7.1548V8.66154L6.00013 8.6665V9.6665C6.00013 9.66587 6.00013 9.6655 6.0001 9.6654C6.00006 9.6653 6.00003 9.6655 5.99993 9.66594L5.9994 9.66957C5.99716 9.68484 5.98873 9.74274 5.9579 9.85917C5.92276 9.99187 5.87 10.1595 5.80243 10.3547C5.79053 10.3891 5.7782 10.4242 5.76556 10.4598C5.31323 10.6731 5.00016 11.1332 5.00016 11.6665C5.00016 11.8405 5.0335 12.0068 5.09413 12.1592C4.98233 12.4247 4.87713 12.6689 4.78996 12.8691C4.72033 13.0289 4.66236 13.1604 4.6219 13.2516C4.60163 13.2972 4.5858 13.3328 4.57503 13.3568L4.55886 13.3929C4.418 13.7059 4.53786 14.0748 4.8358 14.2452C5.13376 14.4156 5.51243 14.3319 5.71083 14.0518L6.4602 12.9939C7.13716 12.9301 7.66683 12.3601 7.66683 11.6665C7.66683 11.5558 7.65333 11.4482 7.6279 11.3454L8.00016 10.8199L10.2895 14.0518C10.4879 14.3319 10.8666 14.4156 11.1645 14.2452C11.4625 14.0748 11.5823 13.7059 11.4415 13.3929L11.4253 13.3568C11.4145 13.3328 11.3987 13.2972 11.3784 13.2516C11.3379 13.1603 11.28 13.0289 11.2103 12.8691C11.071 12.549 10.8855 12.1163 10.7005 11.6641C10.5149 11.2102 10.3326 10.744 10.1979 10.3547C10.1303 10.1595 10.0775 9.99187 10.0424 9.85917C10.0116 9.74274 10.0032 9.68484 10.0009 9.66957C10.0007 9.66797 10.0005 9.6668 10.0004 9.66614C10.0002 9.665 10.0002 9.66517 10.0002 9.6665V8.82147C10.3987 8.5909 10.6668 8.16004 10.6668 7.6665C10.6668 7.26827 10.4922 6.9108 10.2154 6.6665H12.0002C12.3684 6.6665 12.6668 6.36804 12.6668 5.99984C12.6668 5.63164 12.3684 5.33317 12.0002 5.33317H6.48846C6.25793 4.93464 5.82703 4.6665 5.3335 4.6665C4.83996 4.6665 4.40906 4.93464 4.17853 5.33317H4.00016C3.63196 5.33317 3.3335 5.63164 3.3335 5.99984C3.3335 6.36804 3.63196 6.6665 4.00016 6.6665H4.17853C4.40906 7.06504 4.83996 7.33317 5.3335 7.33317ZM6.00016 5.99984C6.00016 6.36804 5.7017 6.6665 5.3335 6.6665C4.9653 6.6665 4.66683 6.36804 4.66683 5.99984C4.66683 5.63164 4.9653 5.33317 5.3335 5.33317C5.7017 5.33317 6.00016 5.63164 6.00016 5.99984ZM10.0002 7.6665C10.0002 8.0347 9.7017 8.33317 9.3335 8.33317C8.9653 8.33317 8.66683 8.0347 8.66683 7.6665C8.66683 7.2983 8.9653 6.99984 9.3335 6.99984C9.7017 6.99984 10.0002 7.2983 10.0002 7.6665ZM7.00016 11.6665C7.00016 12.0347 6.7017 12.3332 6.3335 12.3332C5.9653 12.3332 5.66683 12.0347 5.66683 11.6665C5.66683 11.2983 5.9653 10.9998 6.3335 10.9998C6.7017 10.9998 7.00016 11.2983 7.00016 11.6665Z" fill="#212121"/>
<path fill-rule="evenodd" clip-rule="evenodd" d="M5.3335 7.33317C5.57636 7.33317 5.80406 7.26824 6.00016 7.1548V8.66154L6.00013 8.6665V9.6665C6.00013 9.66587 6.00013 9.6655 6.0001 9.6654C6.00006 9.6653 6.00003 9.6655 5.99993 9.66594L5.9994 9.66957C5.99716 9.68484 5.98873 9.74274 5.9579 9.85917C5.92276 9.99187 5.87 10.1595 5.80243 10.3547C5.79053 10.3891 5.7782 10.4242 5.76556 10.4598C5.31323 10.6731 5.00016 11.1332 5.00016 11.6665C5.00016 11.8405 5.0335 12.0068 5.09413 12.1592C4.98233 12.4247 4.87713 12.6689 4.78996 12.8691C4.72033 13.0289 4.66236 13.1604 4.6219 13.2516C4.60163 13.2972 4.5858 13.3328 4.57503 13.3568L4.55886 13.3929C4.418 13.7059 4.53786 14.0748 4.8358 14.2452C5.13376 14.4156 5.51243 14.3319 5.71083 14.0518L6.4602 12.9939C7.13716 12.9301 7.66683 12.3601 7.66683 11.6665C7.66683 11.5558 7.65333 11.4482 7.6279 11.3454L8.00016 10.8199L10.2895 14.0518C10.4879 14.3319 10.8666 14.4156 11.1645 14.2452C11.4625 14.0748 11.5823 13.7059 11.4415 13.3929L11.4253 13.3568C11.4145 13.3328 11.3987 13.2972 11.3784 13.2516C11.3379 13.1603 11.28 13.0289 11.2103 12.8691C11.071 12.549 10.8855 12.1163 10.7005 11.6641C10.5149 11.2102 10.3326 10.744 10.1979 10.3547C10.1303 10.1595 10.0775 9.99187 10.0424 9.85917C10.0116 9.74274 10.0032 9.68484 10.0009 9.66957C10.0007 9.66797 10.0005 9.6668 10.0004 9.66614C10.0002 9.665 10.0002 9.66517 10.0002 9.6665V8.82147C10.3987 8.5909 10.6668 8.16004 10.6668 7.6665C10.6668 7.26827 10.4922 6.9108 10.2154 6.6665H12.0002C12.3684 6.6665 12.6668 6.36804 12.6668 5.99984C12.6668 5.63164 12.3684 5.33317 12.0002 5.33317H6.48846C6.25793 4.93464 5.82703 4.6665 5.3335 4.6665C4.83996 4.6665 4.40906 4.93464 4.17853 5.33317H4.00016C3.63196 5.33317 3.3335 5.63164 3.3335 5.99984C3.3335 6.36804 3.63196 6.6665 4.00016 6.6665H4.17853C4.40906 7.06504 4.83996 7.33317 5.3335 7.33317ZM6.00016 5.99984C6.00016 6.36804 5.7017 6.6665 5.3335 6.6665C4.9653 6.6665 4.66683 6.36804 4.66683 5.99984C4.66683 5.63164 4.9653 5.33317 5.3335 5.33317C5.7017 5.33317 6.00016 5.63164 6.00016 5.99984ZM10.0002 7.6665C10.0002 8.0347 9.7017 8.33317 9.3335 8.33317C8.9653 8.33317 8.66683 8.0347 8.66683 7.6665C8.66683 7.2983 8.9653 6.99984 9.3335 6.99984C9.7017 6.99984 10.0002 7.2983 10.0002 7.6665ZM7.00016 11.6665C7.00016 12.0347 6.7017 12.3332 6.3335 12.3332C5.9653 12.3332 5.66683 12.0347 5.66683 11.6665C5.66683 11.2983 5.9653 10.9998 6.3335 10.9998C6.7017 10.9998 7.00016 11.2983 7.00016 11.6665Z" fill="#F5F7FF" fill-opacity="0.5"/>
</svg>
