<svg width="16" height="16" viewBox="0 0 16 16" fill="none" xmlns="http://www.w3.org/2000/svg">
<path fill-rule="evenodd" clip-rule="evenodd" d="M3 3.83333C3 3.3731 3.3731 3 3.83333 3H12.1667C12.6269 3 13 3.3731 13 3.83333V12.1667C13 12.6269 12.6269 13 12.1667 13H3.83333C3.3731 13 3 12.6269 3 12.1667V3.83333ZM7.44439 7.44444V5.22222H8.5555V7.44444H10.7777V8.55556H8.5555V10.7778H7.44439V8.55556H5.22217V7.44444H7.44439Z" fill="#212121"/>
<path fill-rule="evenodd" clip-rule="evenodd" d="M3 3.83333C3 3.3731 3.3731 3 3.83333 3H12.1667C12.6269 3 13 3.3731 13 3.83333V12.1667C13 12.6269 12.6269 13 12.1667 13H3.83333C3.3731 13 3 12.6269 3 12.1667V3.83333ZM7.44439 7.44444V5.22222H8.5555V7.44444H10.7777V8.55556H8.5555V10.7778H7.44439V8.55556H5.22217V7.44444H7.44439Z" fill="#F5F7FF" fill-opacity="0.5"/>
</svg>
