<svg width="16" height="16" viewBox="0 0 16 16" fill="none" xmlns="http://www.w3.org/2000/svg">
<path fill-rule="evenodd" clip-rule="evenodd" d="M4 3C4 2.44772 4.4477 2 5 2H7.66667C8.21897 2 8.66667 2.44772 8.66667 3H9.66667C10.219 3 10.6667 3.4477 10.6667 4V13C10.6667 13.5523 10.219 14 9.66667 14H3C2.44772 14 2 13.5523 2 13V4C2 3.4477 2.44772 3 3 3H4ZM5 2.66667C4.8159 2.66667 4.66667 2.81591 4.66667 3V3.66667C4.66667 3.85077 4.8159 4 5 4H7.66667C7.85077 4 8 3.85077 8 3.66667V3C8 2.81591 7.85077 2.66667 7.66667 2.66667H5ZM4.66667 6V7H3.66667V7.66667H4.66667V8.66667H5.33333V7.66667H6.33333V7H5.33333V6H4.66667ZM4 9.66667C3.8159 9.66667 3.66667 9.8159 3.66667 10C3.66667 10.1841 3.8159 10.3333 4 10.3333H8.66667C8.85077 10.3333 9 10.1841 9 10C9 9.8159 8.85077 9.66667 8.66667 9.66667H4ZM3.66667 11.6667C3.66667 11.4826 3.8159 11.3333 4 11.3333H8.66667C8.85077 11.3333 9 11.4826 9 11.6667C9 11.8508 8.85077 12 8.66667 12H4C3.8159 12 3.66667 11.8508 3.66667 11.6667Z" fill="#212121"/>
<path fill-rule="evenodd" clip-rule="evenodd" d="M4 3C4 2.44772 4.4477 2 5 2H7.66667C8.21897 2 8.66667 2.44772 8.66667 3H9.66667C10.219 3 10.6667 3.4477 10.6667 4V13C10.6667 13.5523 10.219 14 9.66667 14H3C2.44772 14 2 13.5523 2 13V4C2 3.4477 2.44772 3 3 3H4ZM5 2.66667C4.8159 2.66667 4.66667 2.81591 4.66667 3V3.66667C4.66667 3.85077 4.8159 4 5 4H7.66667C7.85077 4 8 3.85077 8 3.66667V3C8 2.81591 7.85077 2.66667 7.66667 2.66667H5ZM4.66667 6V7H3.66667V7.66667H4.66667V8.66667H5.33333V7.66667H6.33333V7H5.33333V6H4.66667ZM4 9.66667C3.8159 9.66667 3.66667 9.8159 3.66667 10C3.66667 10.1841 3.8159 10.3333 4 10.3333H8.66667C8.85077 10.3333 9 10.1841 9 10C9 9.8159 8.85077 9.66667 8.66667 9.66667H4ZM3.66667 11.6667C3.66667 11.4826 3.8159 11.3333 4 11.3333H8.66667C8.85077 11.3333 9 11.4826 9 11.6667C9 11.8508 8.85077 12 8.66667 12H4C3.8159 12 3.66667 11.8508 3.66667 11.6667Z" fill="#F5F7FF" fill-opacity="0.5"/>
<path d="M12 6C12 5.4477 12.4477 5 13 5C13.5523 5 14 5.4477 14 6V7H12V6Z" fill="#212121"/>
<path d="M12 6C12 5.4477 12.4477 5 13 5C13.5523 5 14 5.4477 14 6V7H12V6Z" fill="#F5F7FF" fill-opacity="0.5"/>
<path d="M12 12.6665V7.6665H14V12.6665L13 13.9998L12 12.6665Z" fill="#212121"/>
<path d="M12 12.6665V7.6665H14V12.6665L13 13.9998L12 12.6665Z" fill="#F5F7FF" fill-opacity="0.5"/>
</svg>
