<svg width="16" height="16" viewBox="0 0 16 16" fill="none" xmlns="http://www.w3.org/2000/svg">
<path fill-rule="evenodd" clip-rule="evenodd" d="M5.6665 2.3335C5.6665 1.78121 6.1142 1.3335 6.6665 1.3335H9.33317C9.88547 1.3335 10.3332 1.78121 10.3332 2.3335V3.00016C10.3332 3.55246 9.88547 4.00016 9.33317 4.00016H6.6665C6.1142 4.00016 5.6665 3.55246 5.6665 3.00016V2.3335ZM6.6665 2.00016C6.4824 2.00016 6.33317 2.1494 6.33317 2.3335V3.00016C6.33317 3.18426 6.4824 3.3335 6.6665 3.3335H9.33317C9.51727 3.3335 9.6665 3.18426 9.6665 3.00016V2.3335C9.6665 2.1494 9.51727 2.00016 9.33317 2.00016H6.6665Z" fill="#212121"/>
<path fill-rule="evenodd" clip-rule="evenodd" d="M5.6665 2.3335C5.6665 1.78121 6.1142 1.3335 6.6665 1.3335H9.33317C9.88547 1.3335 10.3332 1.78121 10.3332 2.3335V3.00016C10.3332 3.55246 9.88547 4.00016 9.33317 4.00016H6.6665C6.1142 4.00016 5.6665 3.55246 5.6665 3.00016V2.3335ZM6.6665 2.00016C6.4824 2.00016 6.33317 2.1494 6.33317 2.3335V3.00016C6.33317 3.18426 6.4824 3.3335 6.6665 3.3335H9.33317C9.51727 3.3335 9.6665 3.18426 9.6665 3.00016V2.3335C9.6665 2.1494 9.51727 2.00016 9.33317 2.00016H6.6665Z" fill="#F5F7FF" fill-opacity="0.5"/>
<path fill-rule="evenodd" clip-rule="evenodd" d="M6.00016 2.3335H4.3335C3.7812 2.3335 3.3335 2.78121 3.3335 3.3335V13.6668C3.3335 14.2191 3.7812 14.6668 4.3335 14.6668H11.6668C12.2191 14.6668 12.6668 14.2191 12.6668 13.6668V3.3335C12.6668 2.78121 12.2191 2.3335 11.6668 2.3335H10.0002V3.00016C10.0002 3.36836 9.7017 3.66683 9.3335 3.66683H6.66683C6.29863 3.66683 6.00016 3.36836 6.00016 3.00016V2.3335ZM5.00016 7.00016C5.00016 6.81606 5.1494 6.66683 5.3335 6.66683H7.66683C7.85093 6.66683 8.00016 6.81606 8.00016 7.00016C8.00016 7.18426 7.85093 7.3335 7.66683 7.3335H5.3335C5.1494 7.3335 5.00016 7.18426 5.00016 7.00016ZM5.3335 5.00016C5.1494 5.00016 5.00016 5.1494 5.00016 5.3335C5.00016 5.5176 5.1494 5.66683 5.3335 5.66683H10.5002C10.6843 5.66683 10.8335 5.5176 10.8335 5.3335C10.8335 5.1494 10.6843 5.00016 10.5002 5.00016H5.3335ZM5.66683 9.66683V10.3335H6.3335V9.66683H5.66683ZM5.3335 9.00016C5.1494 9.00016 5.00016 9.1494 5.00016 9.3335V10.6668C5.00016 10.8509 5.1494 11.0002 5.3335 11.0002H6.66683C6.85093 11.0002 7.00016 10.8509 7.00016 10.6668V9.3335C7.00016 9.1494 6.85093 9.00016 6.66683 9.00016H5.3335ZM10.3335 9.66683C10.3335 10.2193 9.886 10.6668 9.3335 10.6668C8.781 10.6668 8.3335 10.2193 8.3335 9.66683C8.3335 9.11433 8.781 8.66683 9.3335 8.66683C9.886 8.66683 10.3335 9.11433 10.3335 9.66683ZM9.3335 11.1062C8.666 11.1062 7.3335 11.4616 7.3335 12.1669V13.0001H11.3335V12.1669C11.3335 11.4616 10.001 11.1062 9.3335 11.1062Z" fill="#212121"/>
<path fill-rule="evenodd" clip-rule="evenodd" d="M6.00016 2.3335H4.3335C3.7812 2.3335 3.3335 2.78121 3.3335 3.3335V13.6668C3.3335 14.2191 3.7812 14.6668 4.3335 14.6668H11.6668C12.2191 14.6668 12.6668 14.2191 12.6668 13.6668V3.3335C12.6668 2.78121 12.2191 2.3335 11.6668 2.3335H10.0002V3.00016C10.0002 3.36836 9.7017 3.66683 9.3335 3.66683H6.66683C6.29863 3.66683 6.00016 3.36836 6.00016 3.00016V2.3335ZM5.00016 7.00016C5.00016 6.81606 5.1494 6.66683 5.3335 6.66683H7.66683C7.85093 6.66683 8.00016 6.81606 8.00016 7.00016C8.00016 7.18426 7.85093 7.3335 7.66683 7.3335H5.3335C5.1494 7.3335 5.00016 7.18426 5.00016 7.00016ZM5.3335 5.00016C5.1494 5.00016 5.00016 5.1494 5.00016 5.3335C5.00016 5.5176 5.1494 5.66683 5.3335 5.66683H10.5002C10.6843 5.66683 10.8335 5.5176 10.8335 5.3335C10.8335 5.1494 10.6843 5.00016 10.5002 5.00016H5.3335ZM5.66683 9.66683V10.3335H6.3335V9.66683H5.66683ZM5.3335 9.00016C5.1494 9.00016 5.00016 9.1494 5.00016 9.3335V10.6668C5.00016 10.8509 5.1494 11.0002 5.3335 11.0002H6.66683C6.85093 11.0002 7.00016 10.8509 7.00016 10.6668V9.3335C7.00016 9.1494 6.85093 9.00016 6.66683 9.00016H5.3335ZM10.3335 9.66683C10.3335 10.2193 9.886 10.6668 9.3335 10.6668C8.781 10.6668 8.3335 10.2193 8.3335 9.66683C8.3335 9.11433 8.781 8.66683 9.3335 8.66683C9.886 8.66683 10.3335 9.11433 10.3335 9.66683ZM9.3335 11.1062C8.666 11.1062 7.3335 11.4616 7.3335 12.1669V13.0001H11.3335V12.1669C11.3335 11.4616 10.001 11.1062 9.3335 11.1062Z" fill="#F5F7FF" fill-opacity="0.5"/>
</svg>
