<svg width="60" height="24" viewBox="0 0 60 24" fill="none" xmlns="http://www.w3.org/2000/svg">
<path d="M8.81984 1.06529L7.31557 5.77888L5.82764 1.06529H1.23307V1.43913C2.05061 1.43913 2.39398 1.58541 2.39398 2.1868C2.39398 2.25182 2.37763 2.31683 2.37763 2.3981L1.69089 9.63101C1.60914 10.4112 1.24942 10.5412 0.350128 10.5412V10.9151H3.65299V10.5412C2.80275 10.5412 2.31222 10.4274 2.31222 9.76104V9.63101L2.99896 2.08928L5.99115 11.0776H6.12196L9.04875 2.08928L9.78454 9.58225C9.80089 9.71228 9.80089 9.84231 9.80089 9.93984C9.80089 10.4112 9.62103 10.5412 8.967 10.5412V10.9151H13.8722V10.5412C13.071 10.5412 12.9566 10.3462 12.8748 9.58225L12.1718 2.3981C12.1554 2.31683 12.1554 2.25182 12.1554 2.17055C12.1554 1.58541 12.4988 1.43913 13.3 1.43913V1.06529H8.81984Z" fill="#5059A9"/>
<path d="M17.719 4.00722C18.3403 4.00722 18.7328 4.80365 18.7655 6.00643H16.7707C16.8034 4.60861 17.1304 4.00722 17.719 4.00722ZM21.0055 9.02962L20.7439 8.83458C20.3024 9.46848 19.8119 9.74479 19.1742 9.74479C17.9479 9.74479 16.8688 8.49325 16.7707 6.47779H20.9401C20.9074 5.09622 19.7629 3.50335 17.8335 3.50335C15.7896 3.50335 13.9583 5.25876 13.9583 7.48552C13.9583 9.64727 15.6588 11.0776 17.7517 11.0776C19.0761 11.0776 20.2861 10.3787 21.0055 9.02962Z" fill="#5059A9"/>
<path d="M25.6847 9.90733C24.9325 9.90733 24.3439 9.06213 24.3439 7.16044C24.3439 4.90118 25.1451 4.16976 25.8155 4.16976C26.0117 4.16976 26.2079 4.21852 26.3714 4.31604V9.58225C26.2079 9.8098 25.9953 9.90733 25.6847 9.90733ZM26.3714 10.9151H29.9522V10.5737C29.3472 10.5737 29.3145 10.3787 29.3145 9.58225V0.350128H25.5702V0.691457C26.1752 0.691457 26.3714 0.805233 26.3714 1.60167V3.95846C26.0117 3.6984 25.5048 3.50335 24.9162 3.50335C23.183 3.50335 21.3354 5.04746 21.3354 7.58304C21.3354 9.71228 22.6925 11.0776 24.3439 11.0776C25.374 11.0776 26.028 10.4925 26.3714 9.97234V10.9151Z" fill="#5059A9"/>
<path d="M34.0059 4.00722C34.6273 4.00722 35.0197 4.80365 35.0524 6.00643H33.0576C33.0903 4.60861 33.4173 4.00722 34.0059 4.00722ZM37.2924 9.02962L37.0308 8.83458C36.5894 9.46848 36.0988 9.74479 35.4612 9.74479C34.2349 9.74479 33.1557 8.49325 33.0576 6.47779H37.227C37.1943 5.09622 36.0498 3.50335 34.1204 3.50335C32.0765 3.50335 30.2453 5.25876 30.2453 7.48552C30.2453 9.64727 31.9457 11.0776 34.0386 11.0776C35.3631 11.0776 36.573 10.3787 37.2924 9.02962Z" fill="#5059A9"/>
<path d="M42.2332 10.5737C41.3339 10.5575 41.2685 10.3787 41.2685 9.58225V5.97392C41.4974 5.6651 41.7917 5.4538 42.0697 5.4538C42.5602 5.4538 43.3451 5.8764 43.8029 6.55906L43.8846 6.5428L44.3097 3.89344C44.0481 3.68214 43.6721 3.50335 43.296 3.50335C42.5439 3.50335 42.1842 3.99097 41.2685 5.58383V3.66589H37.6877V4.00722C38.2927 4.00722 38.3254 4.20226 38.3254 4.9987V9.58225C38.3254 10.3787 38.2927 10.5737 37.6877 10.5737V10.9151H42.2332V10.5737Z" fill="#5059A9"/>
<path d="M48.446 11.0776L51.2747 5.14498C51.7489 4.121 51.896 4.00722 52.4519 4.00722V3.66589H49.8522V4.00722C50.5552 4.00722 50.915 4.02347 50.915 4.38106C50.915 4.54359 50.8332 4.77115 50.6861 5.11247L49.5905 7.56679L48.3642 4.86867C48.2334 4.5761 48.1517 4.3648 48.1517 4.23477C48.1517 4.05598 48.2988 4.00722 48.7403 4.00722V3.66589H44.2929V4.00722C44.7834 4.00722 44.8815 4.13725 45.2576 4.85241L48.3969 11.0776H48.446Z" fill="#5059A9"/>
<path d="M55.6603 6.41277V6.52655L54.3686 7.06292C52.897 7.68056 51.8342 8.13567 51.8342 9.38721C51.8342 10.4112 52.6354 11.0776 53.6818 11.0776C54.5484 11.0776 55.3333 10.5575 55.693 9.89107C56.02 10.785 56.8375 11.0776 57.6224 11.0776C58.6198 11.0776 59.3392 10.5412 59.6499 10.0211L59.4046 9.76104C59.2411 9.97234 59.1593 10.0374 58.9958 10.0374C58.7506 10.0374 58.6198 9.84231 58.6198 9.53349V6.39652C58.6198 4.68988 57.4752 3.50335 55.4968 3.50335C53.6655 3.50335 52.5373 4.64112 52.0467 6.03894L52.4228 6.18522C52.8316 5.2425 53.4366 4.83616 54.1723 4.83616C55.1697 4.83616 55.6603 5.55132 55.6603 6.41277ZM55.6603 7.01416V9.61476C55.4968 9.76104 55.3496 9.7773 55.2351 9.7773C54.761 9.7773 54.4176 9.24092 54.4176 8.60703C54.4176 7.76183 54.7283 7.45301 55.3823 7.14419L55.6603 7.01416Z" fill="#5059A9"/>
<path d="M5.35347 22.7315C4.58498 22.7315 4.47053 22.5365 4.47053 21.74V18.1642H7.41367V21.74C7.41367 22.5365 7.29922 22.7315 6.53073 22.7315V23.1054H11.4033V22.7315C10.6348 22.7315 10.5203 22.5365 10.5203 21.74V14.6209C10.5203 13.8245 10.6348 13.6294 11.4033 13.6294V13.2556H6.53073V13.6294C7.29922 13.6294 7.41367 13.8245 7.41367 14.6209V17.6116H4.47053V14.6209C4.47053 13.8245 4.58498 13.6294 5.35347 13.6294V13.2556H0.480935V13.6294C1.24942 13.6294 1.36388 13.8245 1.36388 14.6209V21.74C1.36388 22.5365 1.24942 22.7315 0.480935 22.7315V23.1054H5.35347V22.7315Z" fill="#5059A9"/>
<path d="M15.4516 16.1975C16.073 16.1975 16.4654 16.994 16.4981 18.1967H14.5033C14.536 16.7989 14.863 16.1975 15.4516 16.1975ZM18.7381 21.2199L18.4765 21.0249C18.035 21.6588 17.5445 21.9351 16.9068 21.9351C15.6805 21.9351 14.6014 20.6836 14.5033 18.6681H18.6727C18.64 17.2865 17.4955 15.6937 15.5661 15.6937C13.5222 15.6937 11.6909 17.4491 11.6909 19.6758C11.6909 21.8376 13.3914 23.2679 15.4843 23.2679C16.8087 23.2679 18.0187 22.569 18.7381 21.2199Z" fill="#5059A9"/>
<path d="M22.9267 18.6031V18.7169L21.635 19.2532C20.1635 19.8709 19.1007 20.326 19.1007 21.5775C19.1007 22.6015 19.9018 23.2679 20.9483 23.2679C21.8149 23.2679 22.5997 22.7478 22.9594 22.0814C23.2865 22.9753 24.104 23.2679 24.8888 23.2679C25.8862 23.2679 26.6057 22.7315 26.9163 22.2114L26.6711 21.9513C26.5076 22.1626 26.4258 22.2277 26.2623 22.2277C26.017 22.2277 25.8862 22.0326 25.8862 21.7238V18.5868C25.8862 16.8802 24.7417 15.6937 22.7632 15.6937C20.9319 15.6937 19.8037 16.8314 19.3132 18.2292L19.6893 18.3755C20.0981 17.4328 20.703 17.0265 21.4388 17.0265C22.4362 17.0265 22.9267 17.7416 22.9267 18.6031ZM22.9267 19.2045V21.8051C22.7632 21.9513 22.6161 21.9676 22.5016 21.9676C22.0275 21.9676 21.6841 21.4312 21.6841 20.7973C21.6841 19.9521 21.9948 19.6433 22.6488 19.3345L22.9267 19.2045Z" fill="#5059A9"/>
<path d="M27.4663 13.792V21.7726C27.4663 22.569 27.4336 22.764 26.8286 22.764V23.1054H31.0471V22.764C30.4421 22.764 30.4094 22.569 30.4094 21.7726V12.5404H26.6651V12.8818C27.2701 12.8818 27.4663 12.9955 27.4663 13.792Z" fill="#5059A9"/>
<path d="M31.347 16.0837V16.3926H31.952L31.9029 20.8786C31.9029 22.2927 32.9167 23.2679 34.3556 23.2679C35.5492 23.2679 36.5466 22.569 37.1025 21.5775L36.8572 21.3662C36.5139 21.8051 36.285 22.0651 35.7944 22.0651C35.2058 22.0651 34.8788 21.5613 34.8788 20.7973V16.4088H36.7591L36.8572 15.8237C36.3831 15.8724 35.402 15.8887 34.8788 15.8887V13.4669H34.7316C34.1103 14.2796 32.4425 15.6286 31.347 16.0837Z" fill="#5059A9"/>
<path d="M41.3462 22.764C40.7412 22.764 40.7085 22.569 40.7085 21.7726V17.4653C40.8884 17.0915 41.15 16.9614 41.4116 16.9614C41.9184 16.9614 42.3436 17.3028 42.3436 18.3755V21.7726C42.3436 22.569 42.3109 22.764 41.7059 22.764V23.1054H45.9244V22.764C45.3194 22.764 45.2867 22.569 45.2867 21.7726V18.0504C45.2867 16.7502 44.4365 15.6937 42.8995 15.6937C41.9021 15.6937 41.0519 16.3276 40.7085 17.059V12.5404H36.9642V12.8818C37.5691 12.8818 37.7653 12.9955 37.7653 13.792V21.7726C37.7653 22.569 37.7326 22.764 37.1277 22.764V23.1054H41.3462V22.764Z" fill="#5059A9"/>
<path d="M8.81984 1.06529L7.31557 5.77888L5.82764 1.06529H1.23307V1.43913C2.05061 1.43913 2.39398 1.58541 2.39398 2.1868C2.39398 2.25182 2.37763 2.31683 2.37763 2.3981L1.69089 9.63101C1.60914 10.4112 1.24942 10.5412 0.350128 10.5412V10.9151H3.65299V10.5412C2.80275 10.5412 2.31222 10.4274 2.31222 9.76104V9.63101L2.99896 2.08928L5.99115 11.0776H6.12196L9.04875 2.08928L9.78454 9.58225C9.80089 9.71228 9.80089 9.84231 9.80089 9.93984C9.80089 10.4112 9.62103 10.5412 8.967 10.5412V10.9151H13.8722V10.5412C13.071 10.5412 12.9566 10.3462 12.8748 9.58225L12.1718 2.3981C12.1554 2.31683 12.1554 2.25182 12.1554 2.17055C12.1554 1.58541 12.4988 1.43913 13.3 1.43913V1.06529H8.81984Z" fill="#5059A9"/>
</svg>
