<?xml version="1.0" standalone="no"?>
<!DOCTYPE svg PUBLIC "-//W3C//DTD SVG 20010904//EN"
 "http://www.w3.org/TR/2001/REC-SVG-20010904/DTD/svg10.dtd">
<svg version="1.0" xmlns="http://www.w3.org/2000/svg"
 width="700.000000pt" height="700.000000pt" viewBox="0 0 700.000000 700.000000"
 preserveAspectRatio="xMidYMid meet">
<metadata>
Created by potrace 1.14, written by Peter Selinger 2001-2017
</metadata>
<g transform="translate(0.000000,700.000000) scale(0.100000,-0.100000)"
fill="#000000" stroke="none">
<path d="M3215 6989 c-458 -39 -879 -157 -1285 -361 -1610 -805 -2339 -2690
-1698 -4386 61 -161 206 -454 298 -600 36 -57 113 -168 171 -245 787 -1050
2087 -1565 3392 -1346 1455 244 2612 1400 2856 2854 37 219 46 336 46 595 0
258 -9 377 -46 593 -164 976 -749 1849 -1591 2377 -146 92 -439 237 -600 298
-491 186 -1037 264 -1543 221z m-975 -2951 c80 -257 148 -470 151 -473 3 -2
73 209 155 470 l149 475 453 0 452 0 0 -34 c0 -37 -15 -46 -80 -46 -20 0 -56
-10 -80 -22 -83 -42 -83 6 4 -893 43 -434 82 -808 87 -830 20 -76 68 -105 176
-105 81 0 131 21 153 65 22 43 23 1672 1 1723 -15 35 -55 62 -93 62 -53 0 -68
11 -68 46 l0 34 491 0 490 0 -3 -37 c-3 -38 -3 -38 -56 -43 -78 -8 -101 -36
-113 -136 -5 -43 -8 -212 -7 -374 l3 -295 298 -3 298 -2 -3 367 c-2 276 -6
374 -16 390 -16 29 -62 53 -101 53 -49 0 -61 9 -61 46 l0 34 495 0 495 0 0
-34 c0 -37 -12 -46 -63 -46 -46 0 -80 -20 -99 -60 -17 -32 -18 -95 -18 -863 0
-920 -2 -884 64 -912 20 -8 54 -15 76 -15 l41 0 -3 -37 -3 -38 -492 -3 -493
-2 0 39 0 38 56 6 c66 7 99 32 114 86 6 21 10 203 10 439 l0 402 -301 0 -301
0 4 -417 c3 -463 3 -463 68 -495 19 -10 52 -18 73 -18 37 0 37 0 37 -40 l0
-40 -975 0 -975 0 0 39 0 38 57 6 c105 11 118 48 97 276 -68 720 -142 1433
-147 1421 -4 -8 -137 -418 -295 -910 -194 -601 -293 -896 -303 -898 -11 -2
-89 225 -314 908 -232 703 -301 904 -306 882 -4 -15 -38 -371 -75 -792 -67
-757 -67 -765 -49 -803 25 -52 78 -78 177 -84 l78 -6 0 -39 0 -38 -332 2 -333
3 0 35 0 35 72 6 c94 9 142 33 171 85 20 38 29 110 97 838 41 438 72 809 69
824 -17 65 -73 102 -158 102 -65 0 -76 7 -76 46 l0 34 467 -2 467 -3 146 -467z"/>
</g>
</svg>
