<svg width="33" height="32" viewBox="0 0 33 32" fill="none" xmlns="http://www.w3.org/2000/svg">
<path d="M25.9998 5.33329H24.6665V2.66663H21.9998V5.33329H11.3332V2.66663H8.6665V5.33329H7.33317C5.8665 5.33329 4.6665 6.53329 4.6665 7.99996V26.6666C4.6665 28.1333 5.8665 29.3333 7.33317 29.3333H25.9998C27.4665 29.3333 28.6665 28.1333 28.6665 26.6666V7.99996C28.6665 6.53329 27.4665 5.33329 25.9998 5.33329ZM25.9998 26.6666H7.33317V13.3333H25.9998V26.6666ZM7.33317 10.6666V7.99996H25.9998V10.6666H7.33317ZM14.7465 24.6133L22.6532 16.7066L21.2398 15.2933L14.7465 21.7866L11.9332 18.9733L10.5198 20.3866L14.7465 24.6133Z" fill="#212121"/>
<path d="M25.9998 5.33329H24.6665V2.66663H21.9998V5.33329H11.3332V2.66663H8.6665V5.33329H7.33317C5.8665 5.33329 4.6665 6.53329 4.6665 7.99996V26.6666C4.6665 28.1333 5.8665 29.3333 7.33317 29.3333H25.9998C27.4665 29.3333 28.6665 28.1333 28.6665 26.6666V7.99996C28.6665 6.53329 27.4665 5.33329 25.9998 5.33329ZM25.9998 26.6666H7.33317V13.3333H25.9998V26.6666ZM7.33317 10.6666V7.99996H25.9998V10.6666H7.33317ZM14.7465 24.6133L22.6532 16.7066L21.2398 15.2933L14.7465 21.7866L11.9332 18.9733L10.5198 20.3866L14.7465 24.6133Z" fill="#F5F7FF" fill-opacity="0.5"/>
</svg>
