<svg width="33" height="32" viewBox="0 0 33 32" fill="none" xmlns="http://www.w3.org/2000/svg">
<path d="M26.4099 17.3066C26.4632 16.88 26.5032 16.4533 26.5032 16C26.5032 15.5466 26.4632 15.12 26.4099 14.6933L29.2232 12.4933C29.4765 12.2933 29.5432 11.9333 29.3832 11.64L26.7165 7.02663C26.5965 6.81329 26.3699 6.69329 26.1299 6.69329C26.0499 6.69329 25.9699 6.70663 25.9032 6.73329L22.5832 8.06663C21.8899 7.53329 21.1432 7.09329 20.3299 6.75996L19.8232 3.22663C19.7832 2.90663 19.5032 2.66663 19.1699 2.66663H13.8365C13.5032 2.66663 13.2232 2.90663 13.1832 3.22663L12.6765 6.75996C11.8632 7.09329 11.1165 7.54663 10.4232 8.06663L7.1032 6.73329C7.0232 6.70663 6.9432 6.69329 6.8632 6.69329C6.63654 6.69329 6.40987 6.81329 6.28987 7.02663L3.6232 11.64C3.44987 11.9333 3.52987 12.2933 3.7832 12.4933L6.59654 14.6933C6.5432 15.12 6.5032 15.56 6.5032 16C6.5032 16.44 6.5432 16.88 6.59654 17.3066L3.7832 19.5066C3.52987 19.7066 3.4632 20.0666 3.6232 20.36L6.28987 24.9733C6.40987 25.1866 6.63654 25.3066 6.87654 25.3066C6.95654 25.3066 7.03654 25.2933 7.1032 25.2666L10.4232 23.9333C11.1165 24.4666 11.8632 24.9066 12.6765 25.24L13.1832 28.7733C13.2232 29.0933 13.5032 29.3333 13.8365 29.3333H19.1699C19.5032 29.3333 19.7832 29.0933 19.8232 28.7733L20.3299 25.24C21.1432 24.9066 21.8899 24.4533 22.5832 23.9333L25.9032 25.2666C25.9832 25.2933 26.0632 25.3066 26.1432 25.3066C26.3699 25.3066 26.5965 25.1866 26.7165 24.9733L29.3832 20.36C29.5432 20.0666 29.4765 19.7066 29.2232 19.5066L26.4099 17.3066ZM23.7699 15.0266C23.8232 15.44 23.8365 15.72 23.8365 16C23.8365 16.28 23.8099 16.5733 23.7699 16.9733L23.5832 18.48L24.7699 19.4133L26.2099 20.5333L25.2765 22.1466L23.5832 21.4666L22.1965 20.9066L20.9965 21.8133C20.4232 22.24 19.8765 22.56 19.3299 22.7866L17.9165 23.36L17.7032 24.8666L17.4365 26.6666H15.5699L15.1032 23.36L13.6899 22.7866C13.1165 22.5466 12.5832 22.24 12.0499 21.84L10.8365 20.9066L9.4232 21.48L7.72987 22.16L6.79654 20.5466L8.23654 19.4266L9.4232 18.4933L9.23654 16.9866C9.19654 16.5733 9.16987 16.2666 9.16987 16C9.16987 15.7333 9.19654 15.4266 9.23654 15.0266L9.4232 13.52L8.23654 12.5866L6.79654 11.4666L7.72987 9.85329L9.4232 10.5333L10.8099 11.0933L12.0099 10.1866C12.5832 9.75996 13.1299 9.43996 13.6765 9.21329L15.0899 8.63996L15.3032 7.13329L15.5699 5.33329H17.4232L17.8899 8.63996L19.3032 9.21329C19.8765 9.45329 20.4099 9.75996 20.9432 10.16L22.1565 11.0933L23.5699 10.52L25.2632 9.83996L26.1965 11.4533L24.7699 12.5866L23.5832 13.52L23.7699 15.0266ZM16.5032 10.6666C13.5565 10.6666 11.1699 13.0533 11.1699 16C11.1699 18.9466 13.5565 21.3333 16.5032 21.3333C19.4499 21.3333 21.8365 18.9466 21.8365 16C21.8365 13.0533 19.4499 10.6666 16.5032 10.6666ZM16.5032 18.6666C15.0365 18.6666 13.8365 17.4666 13.8365 16C13.8365 14.5333 15.0365 13.3333 16.5032 13.3333C17.9699 13.3333 19.1699 14.5333 19.1699 16C19.1699 17.4666 17.9699 18.6666 16.5032 18.6666Z" fill="#8F95C8"/>
</svg>
