<svg width="33" height="32" viewBox="0 0 33 32" fill="none" xmlns="http://www.w3.org/2000/svg">
<path d="M22.7065 16.08L21.2932 14.6666L14.7865 21.1733L11.9598 18.3466L10.5465 19.76L14.7865 24L22.7065 16.08ZM25.9998 5.33329H24.6665V2.66663H21.9998V5.33329H11.3332V2.66663H8.6665V5.33329H7.33317C5.85317 5.33329 4.67984 6.53329 4.67984 7.99996L4.6665 26.6666C4.6665 28.1333 5.85317 29.3333 7.33317 29.3333H25.9998C27.4665 29.3333 28.6665 28.1333 28.6665 26.6666V7.99996C28.6665 6.53329 27.4665 5.33329 25.9998 5.33329ZM25.9998 26.6666H7.33317V12H25.9998V26.6666Z" fill="#5059A9"/>
</svg>
