<svg width="33" height="32" viewBox="0 0 33 32" fill="none" xmlns="http://www.w3.org/2000/svg">
<path d="M24.3333 21.3334H21.6667V20H11V21.3334H8.33333V20H3V26.6667H29.6667V20H24.3333V21.3334Z" fill="#5059A9"/>
<path d="M27 10.6667H23V8.00004C23 6.53337 21.8 5.33337 20.3333 5.33337H12.3333C10.8667 5.33337 9.66667 6.53337 9.66667 8.00004V10.6667H5.66667C4.2 10.6667 3 11.8667 3 13.3334V18.6667H8.33333V16H11V18.6667H21.6667V16H24.3333V18.6667H29.6667V13.3334C29.6667 11.8667 28.4667 10.6667 27 10.6667ZM20.3333 10.6667H12.3333V8.00004H20.3333V10.6667Z" fill="#5059A9"/>
</svg>
