<svg width="33" height="32" viewBox="0 0 33 32" fill="none" xmlns="http://www.w3.org/2000/svg">
<path d="M27.1665 10.6667H23.1665V8.00004C23.1665 6.53337 21.9665 5.33337 20.4998 5.33337H12.4998C11.0332 5.33337 9.83317 6.53337 9.83317 8.00004V10.6667H5.83317C4.3665 10.6667 3.1665 11.8667 3.1665 13.3334V26.6667H29.8332V13.3334C29.8332 11.8667 28.6332 10.6667 27.1665 10.6667ZM12.4998 8.00004H20.4998V10.6667H12.4998V8.00004ZM27.1665 24H5.83317V20H8.49984V21.3334H11.1665V20H21.8332V21.3334H24.4998V20H27.1665V24ZM24.4998 17.3334V16H21.8332V17.3334H11.1665V16H8.49984V17.3334H5.83317V13.3334H27.1665V17.3334H24.4998Z" fill="#8F95C8"/>
</svg>
