<svg width="33" height="32" viewBox="0 0 33 32" fill="none" xmlns="http://www.w3.org/2000/svg">
<path d="M8.83333 28H14.1667C14.1667 29.4667 12.9667 30.6667 11.5 30.6667C10.0333 30.6667 8.83333 29.4667 8.83333 28ZM6.16667 26.6667H16.8333V24H6.16667V26.6667ZM21.5 14C21.5 19.0934 17.9533 21.8134 16.4733 22.6667H6.52667C5.04667 21.8134 1.5 19.0934 1.5 14C1.5 8.48004 5.98 4.00004 11.5 4.00004C17.02 4.00004 21.5 8.48004 21.5 14ZM18.8333 14C18.8333 9.96004 15.54 6.66671 11.5 6.66671C7.46 6.66671 4.16667 9.96004 4.16667 14C4.16667 17.2934 6.15333 19.1867 7.3 20H15.7C16.8467 19.1867 18.8333 17.2934 18.8333 14ZM27.9933 11.16L26.1667 12L27.9933 12.84L28.8333 14.6667L29.6733 12.84L31.5 12L29.6733 11.16L28.8333 9.33337L27.9933 11.16ZM24.8333 9.33337L26.0867 6.58671L28.8333 5.33337L26.0867 4.08004L24.8333 1.33337L23.58 4.08004L20.8333 5.33337L23.58 6.58671L24.8333 9.33337Z" fill="#8F95C8"/>
</svg>
