<svg width="25" height="24" viewBox="0 0 25 24" fill="none" xmlns="http://www.w3.org/2000/svg">
<path d="M9.6665 13.75C7.3265 13.75 2.6665 14.92 2.6665 17.25V19H16.6665V17.25C16.6665 14.92 12.0065 13.75 9.6665 13.75ZM5.0065 17C5.8465 16.42 7.8765 15.75 9.6665 15.75C11.4565 15.75 13.4865 16.42 14.3265 17H5.0065ZM9.6665 12C11.5965 12 13.1665 10.43 13.1665 8.5C13.1665 6.57 11.5965 5 9.6665 5C7.7365 5 6.1665 6.57 6.1665 8.5C6.1665 10.43 7.7365 12 9.6665 12ZM9.6665 7C10.4965 7 11.1665 7.67 11.1665 8.5C11.1665 9.33 10.4965 10 9.6665 10C8.8365 10 8.1665 9.33 8.1665 8.5C8.1665 7.67 8.8365 7 9.6665 7ZM16.7065 13.81C17.8665 14.65 18.6665 15.77 18.6665 17.25V19H22.6665V17.25C22.6665 15.23 19.1665 14.08 16.7065 13.81ZM15.6665 12C17.5965 12 19.1665 10.43 19.1665 8.5C19.1665 6.57 17.5965 5 15.6665 5C15.1265 5 14.6265 5.13 14.1665 5.35C14.7965 6.24 15.1665 7.33 15.1665 8.5C15.1665 9.67 14.7965 10.76 14.1665 11.65C14.6265 11.87 15.1265 12 15.6665 12Z" fill="#7A81BE"/>
</svg>
