<?xml version="1.0" encoding="UTF-8"?>
<!-- Generator: Adobe Illustrator 25.2.1, SVG Export Plug-In . SVG Version: 6.00 Build 0)  -->
<svg xmlns="http://www.w3.org/2000/svg" xmlns:xlink="http://www.w3.org/1999/xlink" version="1.1" id="Capa_1" x="0px" y="0px" viewBox="0 0 512 512" style="enable-background:new 0 0 512 512;" xml:space="preserve" width="512" height="512">
<g>
	<path style="fill:#FFFFFF;" d="M506.926,161.376l-8.542-13.595c-6.104-9.713-16.604-15.512-28.084-15.512   c-0.374,0-0.745,0.006-1.117,0.019c-13.514-24.156-31.489-46.033-52.641-64.026c-3.655-14.055-11.996-25.767-24.378-34.131   c-13.953-9.412-29.006-14.184-44.739-14.184c-5.751,0-11.621,0.649-17.503,1.934c-20.704-5.899-42.136-8.887-63.771-8.887   c-31.478,0-62.024,6.223-90.861,18.504c-2.139-0.162-4.268-0.243-6.363-0.243c-19.319,0-36.873,6.719-52.167,19.971   c-10.932,9.472-17.564,21.181-19.768,34.868c-11.719,12.45-22.066,26.212-30.829,41.008c-7.404,5.478-14.732,12.886-21.848,20.081   l-0.415,0.419c-1.908,1.778-12.85,12.071-23.052,23.742c-9.598,10.981-29.57,33.831-16.596,50.879   c4.881,6.414,11.807,9.945,19.501,9.945c3.966,0,7.483-0.904,10.558-1.984c-0.351,5.158-0.528,10.238-0.528,15.205   c0,7.863,0.416,15.848,1.242,23.841c-6.187,5.185-11.757,11.547-16.409,18.784c-0.266,0.371-0.557,0.808-0.853,1.308   C7.27,306.233,3.173,325.687,6.804,341.427c2.405,10.429,7.925,18.714,15.986,24.015c1.601,1.464,3.345,2.795,5.233,3.986   c5.684,3.549,12.4,5.425,19.423,5.425c7.285,0,14.8-1.949,22.083-5.644c6.852,10.875,14.579,21.147,23.119,30.733   c-8.808,13.736-9.761,26.646-2.202,35.976c1.304,1.611,2.809,3.014,4.502,4.196c5.135,5.169,12.424,7.987,20.808,7.987   c7.864,0,16.598-2.413,25.31-6.915c35.761,22.919,76.688,35.456,119.278,36.501c2.976,2.686,6.127,5.152,9.383,7.348   c2.036,1.402,4.006,2.563,5.456,3.395c11.801,6.821,24.829,10.576,36.686,10.576c14.631,0,27.072-5.745,34.462-15.994   c1.537-1.56,2.948-3.275,4.232-5.154c3.625-5.38,5.648-11.65,6.012-18.364c30.505-12.907,58.131-32.362,80.636-56.844   c1.083-0.663,2.09-1.46,2.997-2.382c1.284-1.305,2.313-2.806,3.064-4.431c7.884-9.265,15.167-19.338,21.691-30.02   c3.217-5.326,6.232-10.78,8.955-16.199c9.385-18.655,16.179-38.458,20.182-58.818c2.951-14.813,4.447-30.091,4.447-45.41   c0-12.572-1.03-25.196-3.069-37.662l1.022-0.643C511.975,197.358,516.652,176.853,506.926,161.376z"/>
	<g>
		<path style="fill:#9ED9E5;" d="M484.071,245.389c0,14.479-1.417,28.643-4.144,42.335c-3.803,19.331-22.662,34.392-31.265,51.493    c-2.597,5.167,7.055,13.556,4.091,18.461c-6.295,10.308-13.377,19.066-21.22,28.141c-0.42,0.498-0.866,0.997-1.312,1.495    c-0.236,0.289-0.498,1.577-0.787,1.866c-39.659,44.695-97.548,72.84-162.021,72.84c-119.66,0-216.631-96.997-216.631-216.631    c0-119.66,96.971-216.657,216.631-216.657C387.074,28.732,484.071,125.73,484.071,245.389z"/>
		<g>
			<path style="fill:#FF6963;" d="M389.055,139.656c-0.926,1.902-1.851,3.755-2.825,5.656     c-34.96,68.206-109.239,143.361-114.825,148.963l0.095,1c0,0-57.802-45.017-103.568-97.333c-0.869-0.954-1.691-1.955-2.561-2.957     C123.86,146.819,93.605,93.207,128.327,63.12C185.631,13.48,258.66,94.226,258.66,94.226l0.438-0.713     c0,0,62.584-88.793,125.529-46.334C412.494,65.997,407.514,101.391,389.055,139.656z"/>
			<path style="fill:#FFEEDC;" d="M389.293,141.323c-0.974,1.806-1.899,3.612-2.872,5.418l-0.19-1.428l-7.916-52.986l-26.817,87.643     c-0.245,0.809-0.972,1.235-1.748,1.281l-46.132-1.111l-8.997,33.148c-0.195,0.714-0.875,1.235-1.602,1.329     c-0.775,0.046-1.501-0.432-1.791-1.099l-18.603-42.304l-14.211,45.081c-0.196,0.713-0.924,1.234-1.651,1.233     c-0.823-0.002-1.501-0.432-1.741-1.194L214.406,97.736l-46.474,100.206c-0.869-0.954-1.691-1.955-2.561-2.957l47.644-102.773     c0.292-0.665,1.02-1.044,1.747-1.042c0.727,0.049,1.356,0.527,1.596,1.194l40.277,117.691l13.967-44.462     c0.244-0.713,0.875-1.235,1.651-1.233c0.727-0.046,1.404,0.384,1.742,1.052l18.458,42.066l8.068-29.581     c0.196-0.761,0.924-1.283,1.796-1.328l46.132,1.111l28.771-93.967c0.244-0.808,0.972-1.33,1.845-1.28     c0.823,0.049,1.5,0.718,1.644,1.48l8.346,55.747L389.293,141.323z"/>
		</g>
		<g>
			<path style="fill:#412424;" d="M430.196,386.873l1.338-0.053c-0.42,0.498-0.866,0.997-1.312,1.495     C430.196,387.843,430.196,387.371,430.196,386.873z"/>
			<path style="fill:#FF998D;" d="M410.772,294.848c0,0-48.409-11.258-72.614-5.629c-24.205,5.629-43.906,11.258-64.733,14.635     c-20.827,3.378-46.158,0.563-42.78,19.702c0,0-73.177-21.953-83.872-5.066c0,0-33.211-11.821-39.966,7.318     c0,0-14.073,0.563-11.258,12.947c2.869,12.625,137.348,34.9,137.348,34.9s21.39,18.013,34.9,18.576     c13.51,0.563,136.785-7.881,136.785-7.881S428.222,330.874,410.772,294.848z"/>
			<g>
				<path style="fill:#412424;" d="M310.538,335.632c-14.997,0-40.224-0.329-55.014-2.336c-22.187-3.009-25.261-9.247-25.382-9.511      c-0.126-0.276-0.003-0.605,0.274-0.731c0.273-0.13,0.598-0.007,0.727,0.269c0.05,0.098,3.217,5.991,24.53,8.881      c21.847,2.959,66.638,2.253,67.089,2.247c0.285-0.011,0.555,0.235,0.56,0.541c0.005,0.304-0.237,0.555-0.542,0.559      C322.634,335.554,317.777,335.632,310.538,335.632z"/>
				<path style="fill:#412424;" d="M279.229,376.746c-5.761,0-31.175-0.4-68.66-6.769c-20.741-3.525-37.865-6.751-53.889-10.151      l-4.821-1.016c-8.908-1.872-18.118-3.806-27.042-6.306c-1.693-0.473-3.424-0.911-5.167-1.354      c-6.17-1.564-12.549-3.183-17.984-6.523c-2.963-1.824-6.368-5.155-7.039-9.039c-0.382-2.219,0.184-4.288,1.683-6.151      c4.178-5.194,12.787-4.932,15.324-4.742c1.642,0.13,5.937,0.548,11.884,1.128c15.226,1.484,40.71,3.968,54.527,4.781      c4.227,0.249,10.104,0.731,16.91,1.285c23.724,1.943,59.574,4.874,74.418,1.822c0.299-0.075,0.59,0.13,0.651,0.427      c0.062,0.299-0.13,0.591-0.429,0.651c-14.994,3.091-50.942,0.146-74.73-1.799c-6.799-0.557-12.67-1.037-16.884-1.285      c-13.839-0.813-39.337-3.299-54.571-4.783c-5.94-0.58-10.232-0.998-11.863-1.126c-2.405-0.192-10.54-0.438-14.379,4.331      c-1.292,1.607-1.781,3.381-1.454,5.274c0.608,3.525,3.898,6.667,6.53,8.285c5.291,3.253,11.588,4.852,17.678,6.395      c1.752,0.445,3.491,0.886,5.192,1.363c8.889,2.486,18.082,4.418,26.972,6.285l4.823,1.018      c16.01,3.397,33.12,6.619,53.846,10.142c42.509,7.224,69.432,6.747,69.695,6.747c0.003,0,0.008,0,0.011,0      c0.299,0,0.545,0.237,0.551,0.539c0.006,0.304-0.235,0.557-0.54,0.562C280.44,376.739,280.019,376.746,279.229,376.746z"/>
				<path style="fill:#412424;" d="M235.147,328.047c-0.011,0-0.024,0-0.037,0c-0.7-0.048-70.123-4.71-83.389-7.612l-4.018-0.884      c-10.548-2.329-15.844-3.495-24.729-3.749c-12.757-0.331-15.527,8.381-15.638,8.753c-0.087,0.29-0.393,0.457-0.684,0.372      c-0.291-0.084-0.459-0.39-0.374-0.68c0.029-0.098,2.937-9.557,15.953-9.557c0.255,0,0.511,0.002,0.775,0.011      c8.99,0.253,14.319,1.429,24.935,3.772l4.016,0.884c13.186,2.886,82.529,7.543,83.227,7.589      c0.304,0.021,0.534,0.283,0.514,0.587C235.678,327.826,235.434,328.047,235.147,328.047z"/>
			</g>
			<path style="fill:#BB8C98;" d="M464.242,293.154l-7.295,46.598c-2.597,5.167-1.23,13.022-4.194,17.927     c-6.295,10.308-13.377,20.066-21.22,29.141c-0.42,0.498-0.866,0.997-1.312,1.495c-0.232,0.249-0.787,0.866-0.787,0.866     l-30.479-2.02c0,0,0.472-0.892,1.233-2.518c2.571-5.456,8.367-19.174,9.652-33.889c3.174-36.774-1.888-56.472-1.888-56.472h0.157     l43.987-0.892L464.242,293.154z"/>
			<path style="fill:#FFEEDC;" d="M479.927,287.724c-3.803,19.331-10.203,37.718-18.807,54.82     c-2.597,5.167-5.404,10.23-8.367,15.135c0.866-27.568-0.157-53.85-0.656-64.289c-0.131-3.017-0.236-4.721-0.236-4.721     L479.927,287.724z"/>
			<circle style="fill:#FFEEDC;" cx="425.97" cy="370.652" r="7.505"/>
		</g>
		<g>
			<path style="fill:#FFEEDC;" d="M56.118,158.906c0,0-46.395,42.861-38.08,53.787c8.315,10.926,20.492-6.243,29.729,0.431     c9.236,6.674,88.962,114.301,126.19,83.197c37.228-31.104-78.057-126.628-77.498-132.293c0.56-5.665,8.97-26.766-1.9-30.011     C83.688,130.773,70.08,144.794,56.118,158.906z"/>
			<path style="fill:#412424;" d="M23.255,206.013c-0.274,0-0.485-0.071-0.628-0.217c-2.217-2.272,14.193-20.706,30.76-36.9     c16.565-16.187,35.366-32.192,37.595-29.902c0.378,0.386,1.529,1.564-7.671,12.461c-5.815,6.89-14.015,15.569-23.089,24.438     C44.718,191.043,27.255,206.013,23.255,206.013z M90.199,139.349c-2.441,0-15.849,9.979-36.355,30.018     c-21.702,21.212-31.957,34.735-30.749,35.973c1.209,1.247,14.965-8.705,36.67-29.916c9.059-8.854,17.244-17.516,23.046-24.388     c8.716-10.326,7.749-11.537,7.703-11.584C90.447,139.383,90.342,139.349,90.199,139.349z"/>
			<g>
				<g>
					<path style="fill:#9ED9E5;" d="M171.753,266.276c1.83,7.849,0.788,15.194-5.127,21.012c-4.433,4.348-10.278,5.134-16.912,3.527       c-31.213-7.651-79.823-69.16-79.823-69.16c16.35-15.299,34.4-26.255,37.965-28.346c0.435-0.259,0.642-0.371,0.642-0.371       s13.259,12.064,24.71,21.553C141.519,221.391,166.846,245.47,171.753,266.276z"/>
					<path style="opacity:0.31;fill:#FFEEDC;" d="M107.855,193.309c-0.821,8.556-5.226,16.702-11.969,22.053       c-7.212,5.707-16.957,8.081-25.996,6.293C86.24,206.357,104.29,195.401,107.855,193.309z"/>
				</g>
				<path style="fill:#412424;" d="M171.753,266.276c1.83,7.849,0.788,15.194-5.127,21.012c-4.433,4.348-10.278,5.134-16.912,3.527      c5.747-0.938,11.219-4.107,15-8.583C168.515,277.721,170.799,272.124,171.753,266.276z"/>
				<path style="fill:#FFEEDC;" d="M105.546,249.81c-3.357,0-6.427-2.267-7.297-5.667c-1.029-4.025,1.409-8.135,5.43-9.164      c4.035-1.018,8.132,1.409,9.162,5.432c0.499,1.95,0.208,3.975-0.817,5.705c-1.026,1.733-2.664,2.959-4.613,3.459      C106.787,249.732,106.162,249.81,105.546,249.81z M105.545,235.458c-0.557,0-1.123,0.068-1.687,0.215      c-3.642,0.929-5.847,4.651-4.917,8.292c0.451,1.765,1.563,3.247,3.129,4.176c1.566,0.932,3.404,1.196,5.163,0.74      c1.765-0.45,3.248-1.562,4.176-3.128c0.929-1.566,1.192-3.402,0.741-5.164C111.362,237.511,108.584,235.458,105.545,235.458z"/>
				<path style="fill:#FFEEDC;" d="M140.555,257.015c-2.532,0-4.848-1.71-5.505-4.274c-0.376-1.47-0.156-2.998,0.618-4.304      c0.774-1.304,2.009-2.231,3.479-2.605c3.037-0.783,6.135,1.062,6.91,4.096l0,0c0.376,1.47,0.156,2.998-0.616,4.304      c-0.774,1.304-2.01,2.231-3.481,2.605C141.491,256.958,141.02,257.015,140.555,257.015z M140.553,246.193      c-0.42,0-0.847,0.053-1.273,0.16c-2.745,0.703-4.409,3.509-3.707,6.256c0.702,2.744,3.501,4.397,6.255,3.708      c1.33-0.34,2.449-1.178,3.15-2.361c0.7-1.18,0.898-2.564,0.557-3.895l0,0C144.942,247.741,142.846,246.193,140.553,246.193z"/>
				<path style="fill:#FFEEDC;" d="M135.672,241.177c-2.022,0-3.87-1.365-4.392-3.411c-0.3-1.171-0.126-2.39,0.491-3.432      c0.618-1.041,1.603-1.781,2.775-2.08c2.427-0.616,4.896,0.852,5.513,3.269l0,0c0.619,2.42-0.847,4.893-3.267,5.511      C136.417,241.132,136.042,241.177,135.672,241.177z M135.666,232.543c-0.334,0-0.675,0.041-1.013,0.128      c-1.062,0.272-1.954,0.941-2.513,1.884c-0.558,0.943-0.717,2.046-0.445,3.107c0.561,2.189,2.8,3.518,4.989,2.959      c2.192-0.562,3.518-2.799,2.959-4.991l0,0C139.169,233.778,137.497,232.543,135.666,232.543z"/>
			</g>
			<g>
				<path style="fill:#FFFFFF;" d="M97.142,190.971c2.57,3.4,5.471,6.846,9.469,8.323c1.866,0.689,4.133,0.846,5.693-0.388      c1.18-0.933,1.72-2.507,1.706-4.012c-0.013-1.505-0.512-2.962-1.091-4.351c-2.071-4.97-5.257-9.471-9.255-13.077      c-2.63-2.371-8.8-5.488-11.459-1.475C89.194,180.535,94.551,187.544,97.142,190.971z"/>
				<path style="fill:#FFFFFF;" d="M124.22,204.872c0.649,2.537-0.882,5.12-3.42,5.769c-2.537,0.649-5.12-0.882-5.769-3.42      c-0.649-2.537,0.882-5.12,3.42-5.769C120.988,200.804,123.571,202.335,124.22,204.872z"/>
				<path style="fill:#FFFFFF;" d="M135.808,289.046c1.908,0.696,3.983,1.264,5.95,0.758c1.967-0.506,3.695-2.45,3.274-4.438      c-0.322-1.521-1.706-2.546-2.989-3.424c-4.928-3.374-9.803-7.413-15.054-10.265c-2.771-1.505-6.658-1.472-8.71,1.406      C113.898,279.23,131.635,287.524,135.808,289.046z"/>
			</g>
		</g>
		<g>
			<path style="fill:#BB8C98;" d="M497.825,188.457l-138.797,87.238c-3.483,2.189-8.081,1.14-10.27-2.343l-19.15-30.468     c-2.189-3.483-1.14-8.081,2.343-10.27l138.797-87.238c3.483-2.189,8.081-1.14,10.27,2.343l19.15,30.468     C502.357,181.67,501.308,186.268,497.825,188.457z"/>
			<path style="fill:#EDD9DE;" d="M399.713,244.12l-0.17-0.272L378.08,209.7l0.271-0.169l49.984-31.418l0.17,0.272l21.464,34.148     l-0.271,0.169L399.713,244.12z M378.961,209.901l20.953,33.338l49.172-30.906l-20.953-33.338L378.961,209.901z"/>
			<g>
				<path style="fill:#EDD9DE;" d="M349.934,234.841c0.844,1.343,0.44,3.115-0.903,3.959c-1.343,0.844-3.115,0.439-3.959-0.903      c-0.844-1.343-0.44-3.115,0.903-3.959C347.318,233.094,349.09,233.498,349.934,234.841z"/>
				<path style="fill:#EDD9DE;" d="M367.46,238.705c0.844,1.343,0.44,3.115-0.903,3.959c-1.343,0.844-3.115,0.44-3.959-0.903      c-0.844-1.343-0.44-3.115,0.903-3.959C364.844,236.958,366.616,237.362,367.46,238.705z"/>
				<path style="fill:#EDD9DE;" d="M367.299,222.232c0.844,1.343,0.44,3.115-0.903,3.959c-1.343,0.844-3.115,0.44-3.959-0.903      c-0.844-1.343-0.44-3.115,0.903-3.959C364.682,220.484,366.455,220.889,367.299,222.232z"/>
				<path style="fill:#EDD9DE;" d="M382.013,245.954c0.844,1.343,0.44,3.115-0.903,3.959c-1.343,0.844-3.115,0.44-3.959-0.903      c-0.844-1.343-0.44-3.115,0.903-3.959C379.396,244.207,381.169,244.611,382.013,245.954z"/>
				<path style="fill:#EDD9DE;" d="M363.586,255.691c0.844,1.343,0.44,3.115-0.903,3.959c-1.343,0.844-3.116,0.44-3.959-0.903      c-0.844-1.343-0.439-3.115,0.903-3.959C360.969,253.944,362.742,254.348,363.586,255.691z"/>
			</g>
			<g>
				<path style="fill:#EDD9DE;" d="M461.586,164.047c0.844,1.343,2.617,1.747,3.959,0.903c1.343-0.844,1.747-2.617,0.903-3.959      c-0.844-1.343-2.616-1.747-3.959-0.903C461.146,160.931,460.742,162.704,461.586,164.047z"/>
				<path style="fill:#EDD9DE;" d="M441.556,177.27c0.844,1.343,2.617,1.747,3.959,0.903c1.343-0.844,1.747-2.617,0.903-3.959      c-0.844-1.343-2.616-1.747-3.959-0.903C441.117,174.154,440.712,175.927,441.556,177.27z"/>
				<path style="fill:#EDD9DE;" d="M457.467,181.514c0.844,1.343,2.616,1.747,3.959,0.903c1.343-0.844,1.747-2.616,0.903-3.959      c-0.844-1.343-2.616-1.747-3.959-0.903C457.027,178.399,456.623,180.172,457.467,181.514z"/>
				<path style="fill:#EDD9DE;" d="M474.453,185.389c0.844,1.343,2.617,1.747,3.959,0.903c1.343-0.844,1.747-2.617,0.903-3.959      c-0.844-1.343-2.617-1.747-3.959-0.903C474.014,182.274,473.61,184.046,474.453,185.389z"/>
				<path style="fill:#EDD9DE;" d="M458.164,197.854c0.844,1.343,2.617,1.747,3.959,0.903c1.342-0.844,1.747-2.617,0.903-3.959      c-0.844-1.343-2.617-1.747-3.959-0.903C457.725,194.739,457.32,196.512,458.164,197.854z"/>
			</g>
		</g>
		<g>
			<g>
				<path style="fill:#EDD9DE;" d="M37.621,356.079c-1.432-0.905-2.714-1.948-3.871-3.151c-9.951-10.596-8.89-32.444,3.311-52.009      c0.062-0.08,0.119-0.207,0.181-0.287c13.387-21.249,35.069-31.698,48.965-23.798c0.207,0.119,0.44,0.258,0.673,0.398      c12.955,8.064,14.055,30.103,3.13,50.665c-0.799,1.516-1.624,3.01-2.57,4.496C73.854,354.17,51.542,364.77,37.621,356.079z"/>
				<path style="fill:#FFEEDC;" d="M33.751,352.927c-0.207-0.119-0.44-0.258-0.647-0.377c-13.921-8.69-14.194-33.377-0.56-55.161      c0.077-0.153,0.202-0.313,0.306-0.446c13.6-21.467,35.672-31.869,49.487-23.261c1.433,0.905,2.714,1.949,3.871,3.151      c9.535,10.143,8.964,30.705-1.828,49.617c-0.475,0.827-0.956,1.607-1.457,2.413C69.532,350.282,47.705,360.917,33.751,352.927z"/>
				<path style="fill:#FF998D;" d="M84.379,326.451c-5.021-1.569-9.888-3.829-14.597-6.181      c-11.378-5.592-22.615-11.802-32.54-19.638c-1.515-1.183-2.962-2.398-4.393-3.688c13.6-21.467,35.672-31.869,49.487-23.261      c1.433,0.905,2.714,1.949,3.871,3.151C95.742,286.977,95.171,307.539,84.379,326.451z"/>
			</g>
			<g>
				<path style="fill:#FFFFFF;" d="M76.195,307.968c0.08,0.254,0.166,0.502,0.257,0.746c2.017,5.373,7.701,2.802,9.962-0.914      c2.554-4.197,3.627-10.566,2.832-15.366c-0.712-4.297-4.992-6.16-8.685-3.822C74.608,292.381,74.292,301.957,76.195,307.968z"/>
				<path style="fill:#FFFFFF;" d="M80.237,323.07c0,2.281-1.849,4.13-4.13,4.13s-4.13-1.849-4.13-4.13      c0-2.281,1.849-4.13,4.13-4.13S80.237,320.789,80.237,323.07z"/>
			</g>
		</g>
		<g>
			<g>
				<path style="fill:#EDD9DE;" d="M258.022,421.443c0.955-1.399,2.044-2.643,3.287-3.756c10.944-9.567,32.74-7.728,51.858,5.162      c0.078,0.065,0.202,0.126,0.28,0.191c20.758,14.136,30.428,36.176,22.038,49.781c-0.126,0.202-0.274,0.43-0.422,0.659      c-8.521,12.659-30.585,12.974-50.744,1.323c-1.486-0.852-2.951-1.73-4.401-2.729      C258.638,457.721,248.841,435.045,258.022,421.443z"/>
				<path style="fill:#FFEEDC;" d="M261.31,417.687c0.126-0.202,0.274-0.431,0.4-0.633c9.181-13.602,33.861-12.995,55.146,1.406      c0.151,0.083,0.306,0.213,0.435,0.321c20.969,14.357,30.577,36.785,21.483,50.284c-0.956,1.399-2.044,2.643-3.288,3.756      c-10.476,9.168-31.005,7.864-49.52-3.595c-0.81-0.504-1.572-1.012-2.36-1.542C262.679,453.54,252.828,431.348,261.31,417.687z"/>
				<path style="fill:#FFA34F;" d="M285.965,469.227c1.747-4.962,4.179-9.745,6.697-14.368c5.994-11.171,12.6-22.181,20.785-31.819      c1.236-1.472,2.503-2.874,3.842-4.259c20.969,14.357,30.577,36.785,21.483,50.284c-0.956,1.399-2.044,2.643-3.288,3.756      C325.009,481.989,304.48,480.686,285.965,469.227z"/>
			</g>
			<g>
				<path style="fill:#FFFFFF;" d="M304.728,461.706c-0.256,0.071-0.508,0.148-0.754,0.231c-5.442,1.824-3.074,7.597,0.558,9.989      c4.103,2.702,10.431,4.002,15.255,3.378c4.319-0.559,6.334-4.769,4.129-8.543C320.362,460.676,310.803,460.019,304.728,461.706z      "/>
				<path style="fill:#FFFFFF;" d="M289.491,465.208c-2.279-0.081-4.061-1.995-3.98-4.274c0.081-2.279,1.995-4.061,4.274-3.98      c2.279,0.081,4.061,1.995,3.98,4.274C293.684,463.507,291.771,465.289,289.491,465.208z"/>
			</g>
		</g>
		<g>
			<g>
				
					<ellipse transform="matrix(0.7771 -0.6294 0.6294 0.7771 -224.7355 175.5765)" style="fill:#EDD9DE;" cx="135.487" cy="405.039" rx="36.988" ry="18.413"/>
				
					<ellipse transform="matrix(0.7771 -0.6294 0.6294 0.7771 -223.9114 173.2999)" style="fill:#FFEEDC;" cx="132.685" cy="402.737" rx="36.988" ry="15.027"/>
			</g>
			<path style="fill:#EDD9DE;" d="M144.829,415.372c-0.201,0-0.402-0.082-0.548-0.242l-21.602-23.566     c-0.277-0.304-0.257-0.772,0.046-1.05c0.304-0.276,0.775-0.256,1.05,0.046l21.602,23.566c0.277,0.304,0.257,0.772-0.046,1.05     C145.189,415.306,145.008,415.372,144.829,415.372z"/>
		</g>
		<g>
			<g>
				
					<ellipse transform="matrix(0.1259 -0.992 0.992 0.1259 -223.8237 563.3278)" style="fill:#EDD9DE;" cx="207.767" cy="408.68" rx="18.413" ry="36.988"/>
				
					<ellipse transform="matrix(0.1259 -0.992 0.992 0.1259 -220.4775 559.8938)" style="fill:#FFEEDC;" cx="207.491" cy="405.064" rx="15.026" ry="36.988"/>
			</g>
			<path style="fill:#EDD9DE;" d="M207.303,422.803c-0.022,0-0.043-0.002-0.066-0.005c-0.409-0.034-0.711-0.395-0.676-0.804     l2.747-31.514c0.035-0.411,0.39-0.721,0.806-0.676c0.409,0.034,0.711,0.395,0.676,0.804l-2.747,31.514     C208.009,422.511,207.684,422.803,207.303,422.803z"/>
		</g>
		<g>
			<g>
				<g>
					<path style="fill:#FFEEDC;" d="M256.031,71.915c-0.543,0-0.984-0.441-0.984-0.984V38.115c0-0.543,0.441-0.984,0.984-0.984       c0.543,0,0.984,0.441,0.984,0.984v32.815C257.015,71.474,256.575,71.915,256.031,71.915z"/>
					<path style="fill:#FFEEDC;" d="M244.43,67.109c-0.252,0-0.503-0.096-0.695-0.288c-0.385-0.386-0.385-1.007,0-1.393       l23.203-23.203c0.384-0.384,1.007-0.384,1.39,0c0.385,0.386,0.385,1.007,0,1.393l-23.203,23.203       C244.933,67.013,244.682,67.109,244.43,67.109z"/>
					<path style="fill:#FFEEDC;" d="M272.439,55.506h-32.815c-0.543,0-0.984-0.441-0.984-0.984c0-0.543,0.441-0.984,0.984-0.984       h32.815c0.543,0,0.984,0.441,0.984,0.984C273.423,55.065,272.982,55.506,272.439,55.506z"/>
					<path style="fill:#FFEEDC;" d="M267.633,67.109c-0.252,0-0.503-0.096-0.695-0.288l-23.203-23.203       c-0.385-0.386-0.385-1.007,0-1.393c0.384-0.384,1.007-0.384,1.39,0l23.203,23.203c0.385,0.386,0.385,1.007,0,1.393       C268.136,67.013,267.885,67.109,267.633,67.109z"/>
				</g>
				<g>
					<path style="fill:#FFEEDC;" d="M449.238,275.837c-0.543,0-0.984-0.441-0.984-0.984v-32.815c0-0.543,0.441-0.984,0.984-0.984       c0.543,0,0.984,0.441,0.984,0.984v32.815C450.222,275.397,449.782,275.837,449.238,275.837z"/>
					<path style="fill:#FFEEDC;" d="M437.637,271.031c-0.252,0-0.503-0.096-0.695-0.288c-0.385-0.386-0.385-1.007,0-1.393       l23.203-23.206c0.384-0.384,1.007-0.384,1.39,0c0.385,0.386,0.385,1.007,0,1.393l-23.203,23.206       C438.14,270.935,437.889,271.031,437.637,271.031z"/>
					<path style="fill:#FFEEDC;" d="M465.646,259.429h-32.815c-0.543,0-0.984-0.441-0.984-0.984c0-0.543,0.441-0.984,0.984-0.984       h32.815c0.543,0,0.984,0.441,0.984,0.984C466.63,258.988,466.189,259.429,465.646,259.429z"/>
					<path style="fill:#FFEEDC;" d="M460.84,271.031c-0.252,0-0.503-0.096-0.695-0.288l-23.203-23.206       c-0.385-0.386-0.385-1.007,0-1.393c0.384-0.384,1.007-0.384,1.39,0l23.203,23.206c0.385,0.386,0.385,1.007,0,1.393       C461.343,270.935,461.091,271.031,460.84,271.031z"/>
				</g>
				<g>
					<path style="fill:#FFEEDC;" d="M207.479,302.625c-0.543,0-0.984-0.441-0.984-0.984v-32.815c0-0.543,0.441-0.984,0.984-0.984       s0.984,0.441,0.984,0.984v32.815C208.463,302.184,208.022,302.625,207.479,302.625z"/>
					<path style="fill:#FFEEDC;" d="M195.877,297.819c-0.252,0-0.503-0.096-0.695-0.288c-0.385-0.386-0.385-1.007,0-1.393       l23.203-23.206c0.384-0.384,1.007-0.384,1.39,0c0.385,0.386,0.385,1.007,0,1.393l-23.203,23.206       C196.381,297.723,196.13,297.819,195.877,297.819z"/>
					<path style="fill:#FFEEDC;" d="M223.886,286.216h-32.815c-0.543,0-0.984-0.441-0.984-0.984c0-0.543,0.441-0.984,0.984-0.984       h32.815c0.543,0,0.984,0.441,0.984,0.984C224.87,285.776,224.43,286.216,223.886,286.216z"/>
					<path style="fill:#FFEEDC;" d="M219.08,297.819c-0.252,0-0.503-0.096-0.695-0.288l-23.203-23.206       c-0.385-0.386-0.385-1.007,0-1.393s1.008-0.381,1.39,0l23.203,23.206c0.385,0.386,0.385,1.007,0,1.393       C219.584,297.723,219.332,297.819,219.08,297.819z"/>
				</g>
			</g>
			<g>
				<g>
					<polygon style="fill:#FFEEDC;" points="414.602,147.169 428.919,150.601 414.855,154.495 411.424,168.813 407.53,154.748        393.212,151.317 407.276,147.422 410.708,133.105      "/>
				</g>
				<g>
					<polygon style="fill:#FFEEDC;" points="318.86,271.945 328.781,274.322 319.036,277.021 316.658,286.941 313.96,277.196        304.039,274.818 313.785,272.12 316.162,262.199      "/>
				</g>
				<g>
					<polygon style="fill:#FFEEDC;" points="359.499,418.502 369.42,420.879 359.675,423.578 357.297,433.498 354.599,423.753        344.678,421.375 354.423,418.677 356.801,408.756      "/>
				</g>
				<g>
					<polygon style="fill:#FFEEDC;" points="106.179,362.529 116.1,364.907 106.355,367.605 103.977,377.526 101.279,367.78        91.358,365.403 101.104,362.704 103.481,352.784      "/>
				</g>
				<g>
					<polygon style="fill:#FFEEDC;" points="144.944,164.729 159.261,168.16 145.197,172.054 141.766,186.372 137.872,172.307        123.554,168.876 137.618,164.981 141.049,150.664      "/>
				</g>
			</g>
		</g>
	</g>
</g>















</svg>
