<?xml version="1.0" encoding="UTF-8"?>
<!-- Generator: Adobe Illustrator 25.2.1, SVG Export Plug-In . SVG Version: 6.00 Build 0)  -->
<svg xmlns="http://www.w3.org/2000/svg" xmlns:xlink="http://www.w3.org/1999/xlink" version="1.1" id="Capa_1" x="0px" y="0px" viewBox="0 0 512 512" style="enable-background:new 0 0 512 512;" xml:space="preserve" width="512" height="512">
<g>
	<path style="fill:#FFFFFF;" d="M254.904,496.236c-5.371,0-11.113-0.121-17.552-0.365c-42.766-1.656-78.232-5.876-111.267-13.257   c-6.164,1.45-12.174,2.183-17.91,2.183c-1.272,0-2.539-0.035-3.811-0.108c-2.23-0.14-4.303-0.789-6.118-1.819   c-7.159-0.857-13.488-3.137-18.877-6.808c-10.151-6.909-17.17-16.249-20.904-27.806c-0.277-0.29-0.551-0.58-0.826-0.874   c-15.944-16.965-28.601-37.474-36.587-59.29c-5.837-15.994-12.271-34.959-15.751-54.43c-0.606-3.449-1.1-6.841-1.478-10.138   c-3.776-7.012-4.112-15.256-0.931-22.398c0.657-20.023,5.465-39.377,14.309-57.574c1.36-2.783,2.777-5.593,4.238-8.4   C13.765,218.575,7.893,201.45,3.55,183.01c-3.789-16.084-6.821-37.072,3.442-56.786c5.874-11.265,15.803-18.07,26.567-18.209   c0.057-0.002,0.27-0.002,0.33-0.002c7.748,0,13.749,3.53,17.589,6.186c2.876,1.988,5.553,4.088,8.056,6.261   c4.661-17.28,23.009-29.417,47.126-31.106c25.096-24.199,55.705-40.798,88.985-48.214c16.541-16.18,40.611-25.377,66.805-25.377   c3.6,0,7.229,0.184,10.786,0.546c23.248,2.367,44.034,11.792,59.431,26.788c4.512-2.913,9.885-4.58,15.619-4.58   c15.86,0,28.764,12.904,28.764,28.764c0,6.208-2.017,11.992-5.433,16.722c2.731,2.57,5.349,5.237,7.845,7.992   c0.819,0.907,1.619,1.815,2.394,2.72c0.191-0.002,0.38-0.004,0.571-0.004c13.126,0,25.548,6.131,33.566,16.482   c0.34,0.356,0.63,0.699,0.879,1.015c0.523,0.668,1.096,1.531,1.599,2.586c3.978,6.395,6.179,13.695,6.384,21.227   c0.272,10.063-3.049,19.819-9.257,27.598c0.949,4.038,1.779,8.137,2.491,12.284c14.132-11.412,30.519-20.575,49.864-22.477   c1.634-0.163,3.304-0.244,4.967-0.244c18.575,0,33.408,9.356,37.786,23.832c4.978,16.449-5.722,31.576-9.749,37.27   c-14.494,20.498-32.406,40.244-54.479,60.03c9.327,11.594,13.354,29.687,9.951,49.635c-0.266,1.584-0.652,3.743-1.237,6.048   c-4.817,19.83-16.023,35.873-30.034,43.526c-0.053,0.154-0.105,0.308-0.158,0.461c-13.134,38.247-36.235,71.218-65.034,92.814   c-0.116,0.086-0.231,0.169-0.349,0.253c-0.419,0.312-0.778,0.573-1.123,0.808c-23.808,17.374-52.058,26.288-88.871,28.052   c-0.215,0.011-0.43,0.015-0.646,0.015l-0.483,0.024C264.043,496.144,259.645,496.236,254.904,496.236z"/>
	<g>
		<path style="fill:#00BDF9;" d="M415.731,358.326c-0.495,1.799-1.012,3.599-1.575,5.376c-0.607,1.957-1.237,3.914-1.912,5.871    c-11.517,33.539-31.785,64.987-60.375,86.424c-0.382,0.27-0.742,0.562-1.125,0.81c-24.586,18.018-52.637,16.226-81.768,17.621    c-0.405,0-0.81,0.023-1.215,0.045c-9.875,0.427-19.863,0.292-29.895-0.09c-37.769-1.462-75.132-5.151-111.978-13.654    c-0.765-0.158-4.004-0.923-4.859-1.147c0,0-21.64-4.364-30.525-9.605c-6.703-3.959-12.934-9.515-18.558-15.206    c-0.495-0.517-1.012,6.988-1.485,6.47c-1.012-1.035-2.002-2.047-2.969-3.082c-14.734-15.679-26.364-34.484-33.764-54.707    c-6.388-17.501-12.035-34.799-15.139-52.165c-0.72-4.094-1.282-8.165-1.665-12.237c-0.472-4.814-0.675-9.628-0.607-14.396    c-0.023,0,0-0.023,0-0.023c0.18-18.963,4.409-37.453,13.024-55.179c2.317-4.746,4.724-9.403,7.221-13.992    c12.664-23.507,26.993-45.462,36.374-70.836c0.405-1.102,0.832-2.204,1.282-3.307c1.282-3.329,2.699-6.591,4.206-9.808    c0.72-1.53,1.44-3.059,2.204-4.566c7.086-14.059,16.039-27.061,26.454-38.646c1.755-1.934,3.532-3.824,5.354-5.668    c24.317-24.744,55.674-42.312,90.001-49.128h0.022c0.9-0.18,1.777-0.36,2.699-0.517h0.023c6.996-1.282,14.127-2.092,21.325-2.452    c6.523-0.315,13.159-0.36,19.84-0.09c0,0,0.022-0.023,0.045,0c6.636,0.225,13.317,0.765,19.975,1.62    c0.113,0.023,0.203,0.023,0.315,0.045c8.458,1.08,16.871,2.654,25.171,4.769h0.023c12.597,3.194,24.834,7.603,36.329,13.384    c2.07,1.012,4.117,2.092,6.141,3.239c1.822,1.012,3.622,2.047,5.399,3.172c3.014,1.822,5.961,3.779,8.84,5.849    c7.558,5.398,14.577,11.585,20.875,18.535c2.294,2.542,4.499,5.174,6.546,7.873c0.607,0.765,1.192,1.552,1.755,2.339    c4.836,6.568,8.998,13.609,12.574,20.942c0.113,0.203,0.202,0.405,0.292,0.607c0.113,0.203,0.203,0.382,0.293,0.585    c4.004,8.391,7.221,17.208,9.717,26.251c0.045,0.09,0.068,0.157,0.09,0.247c0,0.023,0,0.023,0,0.023    c3.959,14.352,6.164,29.31,6.793,44.202c0.113,2.272,0.18,4.566,0.203,6.838c0.247,19.525-1.845,39.141,0.202,58.621    c0.135,1.372,0.315,2.744,0.54,4.094c0.18,1.282,0.405,2.565,0.652,3.847c0.562,2.969,1.237,5.916,1.979,8.841    c2.812,11.315,6.523,22.45,8.008,34.057c0.292,2.227,0.495,4.499,0.607,6.771C420.162,337.699,418.498,348.159,415.731,358.326z"/>
		<g>
			<g>
				<path style="fill:#BB8C98;" d="M283.688,345.123c21.49-54.211,47.264-107.891,86.945-150.623      c3.805-4.097,7.864-8.179,12.985-10.425c5.121-2.245,11.581-2.279,15.864,1.315c6.563,5.506,5.051,15.81,2.952,24.116      c18.479-19.758,39.918-40.001,66.842-42.65c11.443-1.126,25.182,3.057,28.511,14.062c2.677,8.851-2.509,18.021-7.849,25.571      c-26.458,37.415-61.709,67.759-98.631,94.902c-36.922,27.142-75.868,51.485-112.247,79.351      C280.706,370.592,279.899,354.682,283.688,345.123z"/>
			</g>
			<g>
				<path style="fill:#BB8C98;" d="M139.061,416.426c-27.336-40.11-72.802-69.79-101.15-109.391      c-6.823-9.531-12.74-20.084-12.005-31.598c0.248-3.884,1.701-8.331,5.987-10.485c4.591-2.308,10.277-0.897,14.368,1.316      s7.665,5.211,12.554,6.195c-20.683-28.922-34.22-58.981-42.127-92.548c-3.638-15.445-5.711-32.117,2.278-47.456      c2.723-5.227,7.963-10.86,14.767-10.948c3.935-0.051,7.233,1.827,10.069,3.789c16.881,11.678,26.814,28.524,35.29,45.34      C118.012,247.85,136.5,330.452,139.061,416.426z"/>
			</g>
			<g>
				<g>
					<path style="fill:#412424;" d="M328.278,58.168c1.735,2.058,3.366,4.22,4.882,6.485c10.736,16.045,15.442,36.147,12.03,55.232       c-2.761,15.44-10.391,31.82-3.566,45.943c5.587,11.562,19.263,17.334,25.46,28.58c5.08,9.219,4.248,20.618,1.336,30.734       c-2.592,9.008-6.895,17.809-13.983,23.943c-4.433,3.836-9.784,6.482-15.299,8.468c-19.224,6.923-40.415,6.084-60.55,2.609       c-30.518-5.268-60.008-16.43-86.366-32.69c-17.245-10.638-33.702-24.124-42.194-42.52s-7.025-42.546,7.854-56.299       c7.441-6.878,17.683-10.887,23.185-19.397c5.054-7.815,5.013-17.722,6.844-26.847c7.736-38.556,47.649-56.368,83.959-52.672       C293.383,31.927,314.196,41.466,328.278,58.168z"/>
				</g>
				<g>
					<g>
						<g>
							<path style="fill:#FFEEDC;" d="M372.969,394.16c-1.485,9.56-3.892,18.715-6.726,27.173v0.023         c-4.882,14.666-10.977,27.129-15.499,35.452c-24.586,18.018-52.637,24.226-81.768,25.621c-0.405,0-0.81,0.023-1.215,0.045         c-9.875,0.427-19.863,0.292-29.895-0.09c-37.769-1.462-75.132-5.151-111.978-13.654c-0.765-0.158-1.507-0.338-2.272-0.54         h-0.022c-0.855-0.18-1.71-0.383-2.564-0.607h-0.023c-0.045,0-0.09-0.023-0.135-0.023         c-10.078-2.452-21.482-4.341-30.368-9.583c-6.703-3.959-12.934-9.515-18.558-15.206c0-12.979,2.429-32.55,6.523-54.234         c0.09-0.472,0.18-0.945,0.27-1.417c1.822-9.47,3.937-19.323,6.321-29.175c0.63-2.587,1.26-5.174,1.934-7.761         c0.315-1.26,0.63-2.52,0.967-3.757c0.112-0.517,0.247-1.035,0.382-1.552c1.35-5.061,2.744-10.1,4.206-15.026         c0.023-0.09,0.045-0.203,0.09-0.292c6.658-22.652,14.442-43.325,22.472-57.047c0.652-1.125,1.372-2.249,2.115-3.329         c0.022-0.045,0.045-0.067,0.112-0.113v-0.023c0.585-0.877,1.215-1.754,1.845-2.609c2.587-3.374,5.556-6.613,8.863-9.74         c15.026-14.262,36.531-25.846,55.292-34.169c0.247-0.113,0.517-0.225,0.787-0.337c0.158-0.09,0.315-0.157,0.495-0.225         c15.431-6.771,28.815-11.315,34.934-13.249c0.18-0.067,0.36-0.135,0.54-0.18c0.18-0.068,0.36-0.113,0.54-0.157         c1.575-0.518,2.452-0.765,2.452-0.765l9.965,1.17l28.343,3.329l9.223,1.08l0.607,0.068c0,0,0.18,0.09,0.495,0.27         c3.172,1.732,21.325,11.81,40.4,24.992h0.023c0.337,0.225,0.697,0.472,1.035,0.72c5.264,3.644,10.573,7.513,15.634,11.517         c2.137,1.687,4.229,3.397,6.253,5.106c0.855,0.72,1.687,1.462,2.52,2.227c15.859,14.599,24.654,34.462,30.098,60.173         c2.947,13.856,4.904,29.4,6.456,46.721C375.016,374.815,374.453,384.667,372.969,394.16z"/>
						</g>
						<g>
							<g>
								<path style="fill:#FF998D;" d="M263.591,207.832c0,0-3.905,12.233-16.419,11.06c-12.416-1.158-15.951-14.521-15.951-14.521          l3.569-12.426l1.866-9.153l0.021-0.137l0.745,0.075l28.27,2.868l-0.744,7.92L263.591,207.832z"/>
							</g>
							<g>
								<path style="fill:#412424;" d="M264.947,193.517c-1.113,1.435-2.311,2.776-3.683,3.95c-3.117,2.712-7.14,4.58-11.243,4.348          c-1.796-0.097-3.535-0.567-5.202-1.247c-4.135-1.725-7.663-4.822-10.031-8.623l1.866-9.153          c0.262-0.02,0.504-0.043,0.765-0.062l28.27,2.868L264.947,193.517z"/>
							</g>
						</g>
						<g>
							<path style="fill:#FF998D;" d="M329.15,130.529c-1.409,9.284-4.54,17.86-9.013,25.444         c-14.168,24.024-41.771,38.255-70.828,33.758c-23.81-3.684-42.961-19.062-52.598-39.457         c-5.86-12.378-8.221-26.584-6.008-41.168c5.858-38.608,41.587-65.102,79.819-59.186         C308.754,55.836,335.008,91.921,329.15,130.529z"/>
						</g>
						<g>
							<path style="fill:#FF998D;" d="M179.852,102.675c-4.671,1.586-7.934,6.204-8.82,11.099c-0.886,4.895,0.326,9.984,2.45,14.475         c3.822,8.081,11.447,14.975,20.312,15.173c0.907,0.02,1.844-0.036,2.663-0.43c1.761-0.848,2.487-2.974,2.815-4.916         c1.552-9.181-2.089-17.779-4.753-26.351C192.547,105.378,187.186,100.185,179.852,102.675z"/>
						</g>
						<g>
							<path style="fill:#FF998D;" d="M340.172,126.456c3.987,2.926,5.731,8.318,5.125,13.257c-0.606,4.939-3.272,9.428-6.629,13.07         c-6.042,6.555-15.362,10.827-23.879,8.335c-0.872-0.255-1.749-0.591-2.413-1.215c-1.429-1.342-1.491-3.59-1.229-5.542         c1.241-9.229,7.264-16.332,12.348-23.705C327.258,125.197,333.913,121.863,340.172,126.456z"/>
						</g>
						<g>
							<g>
								<path style="fill:#412424;" d="M242.798,112.995c-0.451,2.975-3.206,5.018-6.152,4.562          c-2.946-0.456-4.969-3.237-4.517-6.213c0.452-2.975,3.206-5.018,6.152-4.562          C241.227,107.238,243.249,110.02,242.798,112.995z"/>
							</g>
							<g>
								<path style="fill:#412424;" d="M288.949,120.136c-0.451,2.975-3.206,5.018-6.152,4.562          c-2.946-0.456-4.969-3.237-4.517-6.213c0.451-2.976,3.206-5.018,6.152-4.562          C287.378,114.379,289.401,117.161,288.949,120.136z"/>
							</g>
							<g>
								<path style="fill:#FF6963;" d="M253.377,117.014c-2.386,3.712-4.128,7.845-5.123,12.155c-0.306,1.326-0.3,3.13,0.972,3.581          c0.634,0.225,1.349-0.018,2.001,0.147c0.824,0.208,1.347,0.994,1.965,1.583c1.598,1.522,4.255,1.747,6.082,0.517          c0.795-0.535,1.473-1.323,2.407-1.527c0.647-0.141,1.336,0.023,1.976-0.151c0.849-0.231,1.451-1.033,1.697-1.886          c0.247-0.852,0.199-1.759,0.149-2.646c-0.229-4.06-0.49-8.248-2.283-11.889c-0.503-1.022-1.15-2.014-2.095-2.639          C258.53,112.544,254.817,114.774,253.377,117.014z"/>
							</g>
						</g>
						<g>
							<g>
								<path style="fill:#412424;" d="M229.424,96.48c-0.888,0.605-1.812,1.576-1.495,2.603c0.333,1.08,1.738,1.316,2.867,1.303          c3.249-0.039,6.493-0.538,9.604-1.477c1.143-0.345,2.479-1.021,2.496-2.216c0.033-2.273-4.23-3.119-5.916-3.065          C234.411,93.711,231.508,95.061,229.424,96.48z"/>
							</g>
							<g>
								<path style="fill:#412424;" d="M295.345,103.513c0.81,0.707,1.611,1.781,1.173,2.763c-0.46,1.032-1.883,1.099-3.002,0.951          c-3.221-0.427-6.382-1.309-9.358-2.613c-1.094-0.479-2.339-1.31-2.214-2.498c0.239-2.26,4.572-2.591,6.24-2.336          C290.725,100.168,293.446,101.856,295.345,103.513z"/>
							</g>
							<g>
								<path style="fill:#412424;" d="M256.278,144.304c-0.125,0-0.25-0.002-0.376-0.007c-3.216-0.123-6.364-1.836-8.214-4.47          c-0.18-0.255-0.119-0.604,0.136-0.782c0.253-0.18,0.604-0.119,0.782,0.136c1.654,2.353,4.466,3.882,7.339,3.991          c2.825,0.114,5.793-1.202,7.621-3.42c0.198-0.237,0.549-0.275,0.793-0.077c0.239,0.198,0.272,0.553,0.077,0.793          C262.468,142.856,259.371,144.304,256.278,144.304z"/>
							</g>
						</g>
						<g>
							<path style="fill:#FF998D;" d="M271.228,213.269l-13.114,21.617l-28.771,47.441l-6.636-52.727l-2.688-21.607l12.45-7.073         l31.582,2.474C267.899,209.13,271.228,213.269,271.228,213.269z"/>
						</g>
						<g>
							<path style="fill:#FFA34F;" d="M258.113,234.886l-28.771,47.441l-6.636-52.727         C233.504,235.156,246.169,237.068,258.113,234.886z"/>
						</g>
					</g>
					<g>
						<g>
							<path style="fill:#412424;" d="M266.452,34.988c-2.113,10.049-0.222,20.57,3.848,29.982s10.226,17.834,16.836,25.779         c11.674,14.03,25.64,27.274,43.431,32.828c7.458-19.954,5.037-44.421-7.355-61.745         C310.82,44.508,288.389,35.277,266.452,34.988z"/>
						</g>
						<g>
							<path style="fill:#412424;" d="M270.465,34.407c0.132,10.056-3.755,19.743-9.565,27.922         c-5.81,8.179-13.476,14.981-21.496,21.234c-14.162,11.041-30.422,20.86-48.949,22.531         c-3.464-20.637,3.637-43.57,19.139-57.619C225.098,34.426,248.887,30.186,270.465,34.407z"/>
						</g>
						<g>
							<path style="fill:#412424;" d="M321.757,117.717c0.326,5.555,0.652,11.11,0.978,16.665c3.44-2.01,5.211-4.029,7.322-6.778         c2.446-3.185,3.547-7.37,2.985-11.347C329.12,116.093,325.678,117.892,321.757,117.717z"/>
						</g>
						<g>
							<path style="fill:#412424;" d="M199.784,103.081c-1.325,5.405-2.65,10.81-3.975,16.214c-3.02-2.599-4.397-4.905-5.976-7.99         c-1.83-3.575-2.156-7.89-0.884-11.699C192.836,100.153,195.897,102.544,199.784,103.081z"/>
						</g>
					</g>
				</g>
				<g>
					<g>
						<path style="fill:#412424;" d="M219.636,332.61c-0.042,0-0.083-0.004-0.127-0.015c-0.178-0.04-0.325-0.167-0.395-0.338        l-33.693-83.852c-0.088-0.222-0.026-0.477,0.154-0.633l16.632-14.415l-19.988-11.476c-0.27-0.154-0.363-0.499-0.209-0.767        c0.154-0.272,0.499-0.36,0.767-0.209l20.676,11.869c0.158,0.09,0.264,0.253,0.281,0.433c0.018,0.182-0.055,0.36-0.191,0.479        l-16.926,14.672l33.243,82.731l55.472-50.191l-4.178-36.85c-0.035-0.307,0.185-0.584,0.49-0.622l40.967-4.978        c0.33-0.026,0.586,0.182,0.626,0.49c0.037,0.308-0.182,0.589-0.49,0.626l-40.413,4.91l4.147,36.584        c0.022,0.18-0.046,0.36-0.18,0.481l-56.285,50.925C219.909,332.56,219.774,332.61,219.636,332.61z"/>
					</g>
					<g>
						<path style="fill:#412424;" d="M219.636,332.61c-0.009,0-0.02,0-0.031,0c-0.31-0.018-0.547-0.281-0.532-0.593        c0.075-1.388,1.905-34.174,10.026-48.868c15.902-28.777,41.395-69.766,41.652-70.177c0.163-0.266,0.512-0.347,0.773-0.18        c0.264,0.163,0.345,0.51,0.18,0.773c-0.255,0.411-25.733,41.375-41.622,70.129c-7.996,14.466-9.868,48.047-9.885,48.385        C220.181,332.377,219.933,332.61,219.636,332.61z"/>
					</g>
				</g>
				<g>
					<path style="fill:#412424;" d="M229.592,283.983c-0.279,0-0.523-0.206-0.558-0.492l-9.573-75.427       c-0.04-0.308,0.18-0.589,0.488-0.628c0.334-0.033,0.589,0.178,0.628,0.488l9.574,75.427c0.04,0.308-0.18,0.589-0.488,0.628       C229.638,283.981,229.614,283.983,229.592,283.983z"/>
				</g>
				<g>
					<g>
						<g>
							<path style="fill:#412424;" d="M118.171,274.232c0,0-4.212-14.167,5.743-16.847c9.955-2.68,50.158-0.766,51.69,2.68         c1.531,3.446,1.149,15.315,1.149,15.315L118.171,274.232z"/>
						</g>
						<g>
							<polygon style="fill:#9ED9E5;" points="78.351,263.894 115.683,437.341 241.461,441.936 216.19,272.509        "/>
						</g>
					</g>
					<g>
						<g>
							<path style="fill:#FF998D;" d="M136.933,397.138c0,0,27.951-17.995,39.82-28.333s35.608-38.289,40.586-35.609         s-11.87,33.694-11.87,33.694l22.973-23.356c0,0,9.955,2.68,7.275,12.635c0,0,7.275,1.532,6.892,8.041         c-0.383,6.509-4.595,13.401-4.595,13.401s4.212-3.446,4.978,3.829c0.766,7.275-15.315,26.802-21.059,31.014         c-5.743,4.212-64.708,28.717-64.708,28.717L136.933,397.138z"/>
						</g>
						<g>
							<path style="fill:#412424;" d="M222.812,374.739c-0.116,0-0.233-0.035-0.332-0.11c-0.25-0.182-0.305-0.534-0.121-0.784         l13.011-17.737c0.185-0.253,0.538-0.305,0.784-0.121c0.25,0.182,0.305,0.534,0.121,0.784l-13.011,17.736         C223.155,374.66,222.986,374.739,222.812,374.739z"/>
						</g>
						<g>
							<path style="fill:#412424;" d="M229.28,389.62c-0.136,0-0.275-0.051-0.382-0.15c-0.228-0.211-0.242-0.567-0.031-0.795         c4.172-4.501,7.084-8.414,9.165-12.308c2.601-4.857,3.943-9.899,3.886-14.578c-0.004-0.31,0.244-0.564,0.556-0.569         c0.288-0.057,0.564,0.246,0.569,0.556c0.059,4.868-1.329,10.098-4.018,15.122c-2.129,3.98-5.094,7.968-9.332,12.541         C229.581,389.558,229.431,389.62,229.28,389.62z"/>
						</g>
					</g>
					<g>
						<g>
							<path style="fill:#FFEEDC;" d="M142.676,374.739l29.865,68.919c0,0-58.582,39.629-85.575,21.25         c-26.994-18.378-17.804-53.413-11.487-86.149c6.318-32.737,16.656-51.115,16.656-51.115l16.847,62.602L142.676,374.739z"/>
						</g>
						<g>
							<path style="fill:#412424;" d="M108.176,471.301c-1.019,0-2.036-0.029-3.056-0.086c-0.31-0.02-0.547-0.286-0.529-0.595         c0.017-0.31,0.294-0.551,0.595-0.53c30.994,1.839,63.184-24.937,66.671-27.925l-29.469-66.686l-48.877,21.407         c-0.292,0.127-0.617-0.004-0.74-0.288c-0.125-0.286,0.004-0.617,0.288-0.74l49.392-21.634c0.29-0.127,0.617,0.004,0.74,0.288         l29.865,67.58c0.099,0.222,0.042,0.485-0.141,0.646C172.582,443.035,140.354,471.301,108.176,471.301z"/>
						</g>
					</g>
				</g>
				<g>
					<path style="fill:#412424;" d="M318.644,314.619c-3.689,15.251-7.603,30.48-11.72,45.664       c-11.135,41.143-23.844,82.038-37.948,122.145c-0.405,0-0.81,0.023-1.215,0.045c13.992-39.793,26.634-80.351,37.723-121.156       c4.252-15.611,8.278-31.267,12.057-46.946c0.09-0.315,0.382-0.495,0.697-0.427       C318.532,314.012,318.712,314.327,318.644,314.619z"/>
				</g>
			</g>
			<g>
				<g>
					<g>
						<path style="fill:#EDD9DE;" d="M70.763,132.308c0.207-1.659,0.601-3.241,1.19-4.779c5.286-13.332,25.24-21.551,47.831-18.866        c0.097,0.022,0.235,0.019,0.332,0.041c24.591,3.038,43.019,18.014,41.795,33.738c-0.019,0.234-0.046,0.501-0.073,0.768        c-1.766,14.952-20.983,25.181-43.927,24.053c-1.689-0.077-3.369-0.187-5.093-0.409        C87.67,163.861,68.844,148.385,70.763,132.308z"/>
					</g>
					<g>
						<path style="fill:#FFEEDC;" d="M71.953,127.529c0.019-0.234,0.046-0.501,0.065-0.736c1.919-16.077,23.848-26.679,49.02-23.645        c0.17,0.004,0.364,0.049,0.527,0.086c24.876,3.137,43.424,18.482,41.535,34.429c-0.207,1.659-0.601,3.241-1.19,4.779        c-5.056,12.77-23.656,20.888-45.072,19.187c-0.938-0.077-1.836-0.179-2.766-0.288        C89.329,158.371,70.674,143.343,71.953,127.529z"/>
					</g>
					<g>
						<path style="fill:#FFA34F;" d="M116.839,161.629c-0.706-5.142-0.73-10.436-0.605-15.628        c0.219-12.506,1.049-25.146,3.882-37.296c0.421-1.849,0.899-3.651,1.45-5.47c24.876,3.137,43.424,18.482,41.535,34.429        c-0.207,1.659-0.601,3.241-1.19,4.779C156.855,155.213,138.254,163.33,116.839,161.629z"/>
					</g>
				</g>
				<g>
					<g>
						<path style="fill:#EDD9DE;" d="M402.778,364.305c-1.622-0.404-3.146-0.984-4.602-1.753        c-12.604-6.843-18.377-27.637-13.009-49.744c0.034-0.094,0.047-0.23,0.081-0.324c5.958-24.051,23.031-40.556,38.495-37.459        c0.23,0.047,0.492,0.106,0.754,0.164c14.633,3.541,22.491,23.844,18.626,46.489c-0.279,1.667-0.589,3.323-1.015,5.008        C436.127,351.294,418.51,368.134,402.778,364.305z"/>
					</g>
					<g>
						<path style="fill:#FFEEDC;" d="M398.176,362.552c-0.23-0.047-0.492-0.106-0.723-0.153        c-15.732-3.828-23.634-26.868-17.611-51.497c0.025-0.168,0.092-0.356,0.148-0.512c6.09-24.322,23.543-40.902,39.15-37.119        c1.622,0.404,3.146,0.985,4.602,1.753c12.073,6.547,17.908,25.985,13.658,47.043c-0.189,0.922-0.397,1.801-0.617,2.712        C430.874,348.99,413.723,365.714,398.176,362.552z"/>
					</g>
					<g>
						<path style="fill:#FF998D;" d="M437.4,322.068c-5.19,0.086-10.449-0.524-15.589-1.268c-12.39-1.713-24.84-4.049-36.564-8.316        c-1.785-0.639-3.517-1.329-5.258-2.094c6.09-24.322,23.543-40.902,39.15-37.119c1.622,0.404,3.146,0.985,4.602,1.753        C435.816,281.572,441.65,301.01,437.4,322.068z"/>
					</g>
				</g>
			</g>
			<g>
				<g>
					<g>
						<path style="fill:#BB8C98;" d="M380.348,169.129c-15.99,0.434-29.304-12.176-29.738-28.166s12.176-29.304,28.166-29.738        s29.304,12.176,29.738,28.167C408.948,155.381,396.338,168.696,380.348,169.129z"/>
					</g>
					<g>
						<path style="fill:#EDD9DE;" d="M383.196,166.122c-15.99,0.434-29.304-12.176-29.738-28.167        c-0.434-15.99,12.176-29.304,28.166-29.738c15.99-0.434,29.304,12.176,29.738,28.166        C411.797,152.374,399.186,165.688,383.196,166.122z"/>
					</g>
					<g>
						<line style="fill:none;" x1="405.734" y1="120.911" x2="360.793" y2="156.313"/>
						<path style="fill:#FFFFFF;" d="M360.794,156.95c-0.189,0-0.376-0.083-0.501-0.242c-0.218-0.277-0.169-0.679,0.105-0.896        l44.941-35.403c0.279-0.217,0.681-0.169,0.896,0.106c0.217,0.277,0.169,0.679-0.106,0.896l-44.941,35.403        C361.071,156.906,360.932,156.95,360.794,156.95z"/>
					</g>
				</g>
				<g>
					<g>
						<path style="fill:#BB8C98;" d="M62.744,393.692c-15.99,0.434-29.304-12.177-29.738-28.167        c-0.434-15.99,12.176-29.304,28.167-29.738c15.99-0.434,29.304,12.177,29.738,28.166        C91.344,379.944,78.734,393.258,62.744,393.692z"/>
					</g>
					<g>
						
							<ellipse transform="matrix(0.7071 -0.7071 0.7071 0.7071 -236.8024 151.774)" style="fill:#EDD9DE;" cx="64.806" cy="361.733" rx="28.963" ry="28.963"/>
					</g>
					<g>
						<line style="fill:none;" x1="88.13" y1="345.473" x2="43.189" y2="380.876"/>
						<path style="fill:#FFFFFF;" d="M43.188,381.514c-0.189,0-0.376-0.083-0.501-0.242c-0.217-0.277-0.169-0.679,0.106-0.896        l44.943-35.403c0.281-0.217,0.679-0.169,0.896,0.105c0.218,0.277,0.169,0.679-0.105,0.896l-44.943,35.403        C43.465,381.47,43.326,381.514,43.188,381.514z"/>
					</g>
				</g>
			</g>
			<g>
				<g>
					<path style="fill:#412424;" d="M121.997,204.846c-8.795,0-15.971,7.176-15.971,15.971c0,8.795,7.176,15.971,15.971,15.971       c8.795,0,15.971-7.176,15.971-15.971C137.968,212.022,130.792,204.846,121.997,204.846z M121.997,235.393       c-8.031,0-14.576-6.546-14.576-14.576c0-8.031,6.546-14.576,14.576-14.576c8.031,0,14.576,6.546,14.576,14.576       C136.573,228.847,130.027,235.393,121.997,235.393z"/>
				</g>
				<g>
					<circle style="fill:#FFA34F;" cx="348.286" cy="67.282" r="15.268"/>
				</g>
				<g>
					<g>
						<path style="fill:#412424;" d="M367.233,396.365c-0.945-7.896-7.693-14.037-15.836-14.037        c-8.795,0-15.971,7.153-15.971,15.971c0,8.795,7.176,15.949,15.971,15.949c3.329,0,6.411-1.035,8.998-2.789        c4.206-2.857,6.973-7.693,6.973-13.159C367.368,397.647,367.322,396.994,367.233,396.365z M360.237,409.839        c-2.452,1.912-5.511,3.014-8.841,3.014c-8.031,0-14.576-6.523-14.576-14.554c0-8.053,6.546-14.576,14.576-14.576        c7.693,0,14.014,5.984,14.532,13.564c0.023,0.338,0.045,0.675,0.045,1.012C365.973,403.023,363.724,407.207,360.237,409.839z"/>
					</g>
					<g>
						<circle style="fill:#FFA34F;" cx="375.471" cy="409.199" r="15.268"/>
					</g>
				</g>
				<g>
					
						<ellipse transform="matrix(0.7071 -0.7071 0.7071 0.7071 -212.7932 109.9333)" style="fill:#FFEEDC;" cx="26.303" cy="311.827" rx="11.846" ry="12.324"/>
				</g>
			</g>
			<g>
				<path style="fill:#FFEEDC;" d="M386.168,241.423c4.813,4.813,4.965,12.465,0.338,17.091c-4.626,4.626-12.278,4.475-17.091-0.338      c-4.813-4.813-4.965-12.465-0.339-17.091C373.704,236.459,381.355,236.61,386.168,241.423z"/>
			</g>
		</g>
	</g>
</g>















</svg>
