<?xml version="1.0" encoding="UTF-8"?>
<!-- Generator: Adobe Illustrator 25.2.1, SVG Export Plug-In . SVG Version: 6.00 Build 0)  -->
<svg xmlns="http://www.w3.org/2000/svg" xmlns:xlink="http://www.w3.org/1999/xlink" version="1.1" id="Capa_1" x="0px" y="0px" viewBox="0 0 512 512" style="enable-background:new 0 0 512 512;" xml:space="preserve" width="512" height="512">
<g>
	<g>
		<g>
			<path style="fill:#FFFFFF;" d="M213.993,486.296c-2.367,0-4.725-0.654-6.798-1.947l-26.544-16.556     c-1.311-0.817-2.442-1.848-3.36-3.036c-6.86-2.49-13.606-5.342-20.181-8.533c-3.08,1.905-6.695,2.998-10.522,2.998     c-11.103,0-20.136-9.033-20.136-20.136c0-0.349,0.008-0.696,0.027-1.041C110.024,426.31,95.367,412.33,82.8,396.374     l-33.459-32.809c-3.354-1.763-5.888-4.924-6.793-8.844c-0.805-3.523-0.194-7.113,1.712-10.145     c1.219-1.938,2.875-3.498,4.824-4.579l1.355-1.382c-8.692-23.514-13.093-48.214-13.093-73.55c0-10.448,0.774-20.937,2.304-31.28     C14.674,214.78,0,185.449,0,153.73c0-24.528,8.926-48.166,25.133-66.56c14.642-16.602,34.836-28.185,56.591-32.325     c6.172-1.186,12.558-1.79,18.952-1.79c19.163,0,37.528,5.319,53.567,15.454l84.126-40.015c3.891-1.85,8.04-2.789,12.33-2.789     c11.03,0,21.217,6.434,25.952,16.392l4.347,9.137c7.49-10.741,18.061-18.143,29.576-20.248c2.204-0.404,4.47-0.609,6.737-0.609     c13.158,0,25.637,6.762,33.808,17.514c4.144-1.495,8.556-2.273,13.079-2.273c8.987,0,17.626,3.195,24.328,8.997     c6.793,5.865,11.995,14.336,15.027,24.479c1.543,5.166,0.544,10.835-2.678,15.159c-3.218,4.32-8.353,6.9-13.739,6.9h-2.047     c3.795,2.992,7.387,6.262,10.722,9.769c19.561,18.542,35.171,40.202,46.471,64.461c6.662,3.287,11.257,10.154,11.257,18.072     c0,2.524-0.475,4.987-1.372,7.283c3.714,11.697,6.407,23.724,8.042,35.899c40.583,18.927,48.67,31.805,51.058,41.005     c1.733,6.687,0.37,13.447-3.839,19.036c-4.625,6.156-11.672,9.551-19.832,9.551c-7.891,0-16.972-3.049-27.859-9.436     c-1.313,8.784-3.176,17.461-5.575,25.988c16.627,10.772,27.188,29.549,27.188,49.797c0,32.667-26.578,59.244-59.244,59.244     c-1.085,0-5.838,0-6.923,0c-9.309,0-18.281-2.122-26.429-6.2c-38.617,33.492-87.605,51.825-139.029,51.825     c-7.726,0-15.481-0.422-23.18-1.261c-0.836,3.839-3.393,7.113-6.975,8.838C217.802,485.874,215.896,486.296,213.993,486.296z"/>
		</g>
	</g>
	<g>
		<g>
			<g>
				
					<ellipse transform="matrix(0.7071 -0.7071 0.7071 0.7071 -113.3262 256.5375)" style="fill:#FFB4DC;" cx="253.005" cy="265.066" rx="199.532" ry="199.532"/>
			</g>
		</g>
		<g>
			<g>
				<g>
					<path style="fill:#040308;" d="M406.795,375.685l-164.122,78.067c-7.92,3.767-17.395,0.401-21.163-7.52L75.526,139.323       c-3.767-7.92-0.401-17.395,7.52-21.163l164.122-78.066c7.92-3.768,17.395-0.401,21.163,7.52l145.985,306.909       C418.083,362.443,414.716,371.918,406.795,375.685z"/>
				</g>
			</g>
			<g>
				<g>
					
						<rect x="147.367" y="79.108" transform="matrix(0.903 -0.4295 0.4295 0.903 -79.9027 127.0314)" style="fill:#B8B9FD;" width="188.16" height="322.814"/>
				</g>
			</g>
			<g>
				<g>
					<path style="fill:#FDF3EA;" d="M296.915,416.386c-2.198,0-4.308-1.236-5.312-3.348l-0.262-0.552       c-1.39-2.923-0.143-6.434,2.78-7.824l48.024-22.843c2.922-1.397,6.432-0.142,7.823,2.779l0.263,0.552       c1.389,2.923,0.142,6.434-2.78,7.824l-48.024,22.843C298.616,416.204,297.759,416.386,296.915,416.386z M344.657,382.045       c-0.73,0-1.47,0.157-2.171,0.491l-48.024,22.841c-2.528,1.204-3.606,4.24-2.404,6.766l0.262,0.552       c1.201,2.53,4.232,3.611,6.766,2.405l48.024-22.841c2.527-1.204,3.605-4.24,2.404-6.766l-0.263-0.552       C348.382,383.113,346.557,382.045,344.657,382.045z"/>
				</g>
			</g>
		</g>
		<g>
			<g>
				<g>
					<path style="fill:#FDF3EA;" d="M240.632,297.484c-21.644,0-42.841-10.718-55.28-30.304       c-9.361-14.737-12.422-32.238-8.619-49.279c3.802-17.039,14.012-31.577,28.75-40.938       c30.424-19.322,70.896-10.292,90.218,20.133c9.36,14.737,12.421,32.238,8.619,49.279c-3.802,17.039-14.012,31.577-28.75,40.938       C264.731,294.197,252.611,297.484,240.632,297.484z M240.426,169.518c-11.481,0-23.092,3.147-33.481,9.746       c-14.124,8.97-23.909,22.904-27.553,39.232c-3.643,16.33-0.71,33.101,8.26,47.225c8.97,14.122,22.903,23.908,39.233,27.552       c16.328,3.644,33.101,0.713,47.223-8.259c29.156-18.517,37.81-57.302,19.293-86.457       C281.482,179.79,261.167,169.518,240.426,169.518z"/>
				</g>
			</g>
			<g>
				<g>
					
						<rect x="239.165" y="168.138" transform="matrix(0.8441 -0.5361 0.5361 0.8441 -86.9667 165.1352)" style="fill:#FDF3EA;" width="2.724" height="128.001"/>
				</g>
			</g>
			<g>
				<g>
					
						<rect x="176.527" y="230.776" transform="matrix(0.844 -0.5363 0.5363 0.844 -86.9826 165.2131)" style="fill:#FDF3EA;" width="127.999" height="2.725"/>
				</g>
			</g>
			<g>
				<g>
					<path style="fill:#FDF3EA;" d="M263.249,292.7c-13.615-3.546-26.593-12.278-38.573-25.959       c-8.26-9.432-15.11-19.987-20.359-31.37c-4.631-10.043-7.243-19.155-7.982-27.855c-0.898-10.555,1.083-19.923,5.641-27.998       l2.327,0.858c-4.288,7.596-6.105,16.903-5.254,26.91c0.713,8.38,3.245,17.194,7.742,26.944       c5.141,11.147,11.847,21.482,19.935,30.718c11.614,13.261,24.619,21.896,37.696,25.3L263.249,292.7z"/>
				</g>
			</g>
			<g>
				<g>
					<path style="fill:#FDF3EA;" d="M287.312,277.372l-2.365,0.319c2.468-17.804-5.516-35.307-13.652-50.084       c-8.453-15.345-20.487-34.379-38.667-45.427c-6.277-3.816-12.724-6.43-18.482-7.051l0.637-2.346       c6.159,0.665,12.639,3.044,19.26,7.067c18.73,11.385,31.022,30.799,39.637,46.443       C282.034,241.46,289.889,258.782,287.312,277.372z"/>
				</g>
			</g>
			<g>
				<g>
					<path style="fill:#FDF3EA;" d="M183.334,263.358c-0.342-3.502,0.5-6.536,1.547-9.401c10.759-29.421,36.017-53.5,65.919-62.842       c14.319-4.472,27.228-4.922,38.383-1.338l-0.834,2.593c-10.607-3.404-22.968-2.957-36.735,1.347       c-29.111,9.093-53.7,32.537-64.173,61.178c-0.943,2.58-1.926,5.581-1.639,8.514L183.334,263.358z"/>
				</g>
			</g>
			<g>
				<g>
					<path style="fill:#FDF3EA;" d="M207.395,280.384c-6.055,0-10.973-1.592-14.854-4.143l0.923-1.616       c4.959,3.258,12.486,4.282,21.192,2.883c7.342-1.179,15.395-3.983,24.618-8.566c16.559-8.228,31.253-19.297,42.493-32.012       c9.868-11.165,15.608-22.413,16.164-31.669l2.264,0.138c-0.751,12.508-9.512,24.867-16.728,33.032       c-11.432,12.932-26.364,24.186-43.183,32.543c-9.431,4.688-17.696,7.557-25.269,8.776       C212.368,280.175,209.816,280.384,207.395,280.384z"/>
				</g>
			</g>
		</g>
		<g>
			<g>
				<g>
					<g>
						<path style="fill:#FFD484;" d="M500.446,288.948c-14.776,19.66-68.589-31.426-85.71-48.608        c-0.486-0.479-0.93-0.921-1.333-1.326c-0.019-0.046-0.051-0.06-0.083-0.074c-2.476-2.512-3.874-4-3.874-4l2.537-5.121        c0,0,1.799,0.603,4.9,1.711c0.065,0.028,0.13,0.056,0.209,0.051c2.174,0.804,4.97,1.817,8.219,3.027        C453.222,245.113,514.193,270.691,500.446,288.948z"/>
					</g>
				</g>
				<g style="opacity:0.32;">
					<g>
						<path style="fill:#FF470C;" d="M425.311,234.608c-3.152,2.354-6.789,4.094-10.575,5.732c-0.486-0.479-0.93-0.921-1.333-1.326        c-0.089,0.116-0.177,0.232-0.284,0.301c0.065-0.107,0.145-0.246,0.2-0.375c1.338-2.386,2.536-4.852,3.563-7.411        c0.126-0.292,0.229-0.575,0.355-0.867c-0.038,0.311-0.076,0.621-0.146,0.918C419.266,232.384,422.061,233.398,425.311,234.608        z"/>
					</g>
				</g>
				<g>
					<g>
						<path style="fill:#FFD484;" d="M416.277,223.301c0.959,2.415,1.259,4.931,0.952,7.338l0.009,0.023        c-0.038,0.311-0.076,0.621-0.146,0.918c-0.508,2.783-1.772,5.355-3.688,7.433c-0.089,0.116-0.177,0.232-0.284,0.301        c-1.433,1.537-3.232,2.762-5.322,3.592c-7.733,3.071-16.517-0.7-19.597-8.456c-3.08-7.757,0.723-16.526,8.456-19.597        C404.413,211.773,413.197,215.544,416.277,223.301z"/>
					</g>
				</g>
			</g>
			<g>
				<g>
					<g>
						
							<ellipse transform="matrix(0.7071 -0.7071 0.7071 0.7071 -32.553 283.1437)" style="fill:#0060FF;" cx="325.508" cy="180.867" rx="88.678" ry="88.677"/>
					</g>
				</g>
				<g>
					<g>
						<g>
							<path style="fill:#FDF3EA;" d="M397.977,152.44c8.106,20.413,6.818,42.218-1.821,60.677         c-7.958,17.06-22.197,31.237-41.077,38.735c-39.293,15.604-83.808-3.605-99.412-42.898c-2.96-7.454-4.672-15.082-5.21-22.665         c-2.407-32.463,16.269-64.103,48.108-76.747C337.858,93.938,382.372,113.147,397.977,152.44z"/>
						</g>
					</g>
					<g>
						<g>
							<path style="fill:#FFFFFF;" d="M307.401,124.567c1.689,5.177,6.08,9.162,11.057,11.371         c4.978,2.209,10.514,2.829,15.959,2.938c5.119,0.103,10.367-0.249,15.072-2.269c3.154-1.354,6.241-3.862,6.564-7.278         c0.172-1.82-0.476-3.622-1.319-5.244c-3.528-6.789-10.488-11.32-17.857-13.378         C326.097,107.696,301.218,105.617,307.401,124.567z"/>
						</g>
					</g>
					<g>
						<g>
							<path style="fill:#FFFFFF;" d="M325.419,250.762c5.821,2.55,12.663,1.06,18.401-1.67c1.347-0.641,2.708-1.385,3.599-2.582         c1.479-1.988,1.289-4.884,0.01-7.006c-1.28-2.122-3.46-3.56-5.744-4.519c-6.042-2.537-15.009-2.211-20.176,2.278         C316.567,241.557,320.239,248.492,325.419,250.762z"/>
						</g>
					</g>
					<g style="opacity:0.11;">
						<g>
							<path style="fill:#B8B9FD;" d="M396.155,213.117c-7.958,17.06-22.197,31.237-41.077,38.735         c-39.293,15.604-83.808-3.605-99.412-42.898c-2.96-7.454-4.672-15.082-5.21-22.665c11.119,14.324,27.105,25.128,44.36,31.073         c24.761,8.529,51.916,7.989,77.551,2.675C380.417,218.372,388.501,216.184,396.155,213.117z"/>
						</g>
					</g>
				</g>
			</g>
		</g>
		<g>
			<g>
				<g>
					<path style="fill:#FFD484;" d="M191.783,153.729c0,48.496-39.332,87.828-87.828,87.828c-48.517,0-87.828-39.332-87.828-87.828       c0-22.267,8.286-42.587,21.925-58.067c12.14-13.767,28.498-23.681,47.062-27.706c0.749-0.193,1.52-0.343,2.291-0.492       c5.353-1.028,10.898-1.563,16.551-1.563c27.085,0,51.322,12.268,67.423,31.56C184.118,112.706,191.783,132.318,191.783,153.729       z"/>
				</g>
			</g>
			<g>
				<g>
					<path style="fill:#B8B9FD;" d="M107.228,160.288L38.052,95.663c12.136-13.761,28.5-23.688,47.061-27.731l17.748,14.89       L107.228,160.288z"/>
				</g>
			</g>
			<g>
				<g>
					<path style="fill:#FFB4DC;" d="M171.378,97.461l-64.148,62.82L85.113,67.957c0.749-0.193,1.52-0.343,2.291-0.492       c5.353-1.028,10.898-1.563,16.551-1.563C131.04,65.902,155.277,78.17,171.378,97.461z"/>
				</g>
			</g>
		</g>
		<g>
			<g>
				<g>
					<path style="fill:#FDF3EA;" d="M390.416,88.306H258.9c-3.518,0-5.564-4.032-3.448-6.842c2.46-3.267,5.577-5.861,8.997-7.482       c6.77-3.19,16.211-1.97,22.981,1.242c3.723-15.866,15.16-29.119,28.735-31.603c13.557-2.484,28.343,6.83,33.313,22.203       c9.317-9.121,24.174-9.935,33.919-1.499c5.226,4.514,8.942,11.132,11.128,18.444C395.348,85.525,393.293,88.306,390.416,88.306       z"/>
				</g>
			</g>
			<g>
				<g>
					<g>
						<g>
							<g>
								<circle style="fill:#FFD484;" cx="425.386" cy="372.576" r="46.398"/>
							</g>
						</g>
					</g>
					<g style="opacity:0.32;">
						<g>
							<g>
								<circle style="fill:#FF470C;" cx="425.386" cy="372.576" r="46.398"/>
							</g>
						</g>
					</g>
				</g>
				<g>
					<g>
						<g>
							<circle style="fill:#FFD484;" cx="418.462" cy="372.576" r="46.398"/>
						</g>
					</g>
				</g>
				<g>
					<g>
						<g>
							<path style="fill:#FFFFFF;" d="M409.512,373.995c1.232,0,2.182,0.828,2.182,2.082c0,0.646-0.101,1.191-0.202,1.717         c-0.102,0.505-0.202,0.97-0.202,1.414c0,2.344,2.971,3.152,5.477,3.152c2.848,0,5.799-1.071,5.799-4.486         c0-3.495-3.536-4.991-6.406-6.143c-3.738-1.516-8.041-3.435-8.041-9.396c0-3.96,3.334-6.588,6.931-7.456v-1.778         c0-1.718,0.303-2.91,2.182-2.91c1.253,0,2.102,0.364,2.102,1.758c0,0.727,0,1.819-0.021,2.768         c3.132,0.485,7.093,2.243,7.093,5.9c0,1.475-1.031,2.284-2.183,2.284c-1.091,0-2.324-0.889-2.425-2.102         c-0.808-1.637-2.768-1.839-4.465-1.839c-1.799,0-4.688,1.132-4.688,3.516c0,2.931,2.97,4.325,6.041,5.739         c3.839,1.718,8.406,3.981,8.406,9.639c0,5.112-3.9,7.96-8.143,8.688v2.506c0,1.739-0.324,2.951-2.182,2.951         c-1.293,0-2.143-0.385-2.143-1.778c0-0.829,0-2.385,0.041-3.637c-4.102-0.586-7.881-2.931-7.881-7.355         C406.784,376.824,406.804,373.995,409.512,373.995z"/>
						</g>
					</g>
				</g>
			</g>
			<g>
				<g>
					<g>
						<g>
							<g>
								<circle style="fill:#FFD484;" cx="183.214" cy="376.403" r="46.398"/>
							</g>
						</g>
					</g>
					<g style="opacity:0.32;">
						<g>
							<g>
								<circle style="fill:#FF470C;" cx="183.214" cy="376.403" r="46.398"/>
							</g>
						</g>
					</g>
				</g>
				<g>
					<g>
						<g>
							<circle style="fill:#FFD484;" cx="176.29" cy="376.403" r="46.398"/>
						</g>
					</g>
				</g>
				<g>
					<g>
						<g>
							<path style="fill:#FFFFFF;" d="M167.34,377.821c1.232,0,2.182,0.828,2.182,2.082c0,0.646-0.101,1.191-0.202,1.717         c-0.102,0.505-0.202,0.97-0.202,1.414c0,2.344,2.971,3.152,5.477,3.152c2.848,0,5.799-1.071,5.799-4.486         c0-3.495-3.536-4.991-6.406-6.143c-3.738-1.516-8.041-3.435-8.041-9.396c0-3.96,3.334-6.588,6.931-7.456v-1.778         c0-1.718,0.303-2.91,2.182-2.91c1.253,0,2.102,0.364,2.102,1.758c0,0.727,0,1.819-0.021,2.768         c3.132,0.485,7.093,2.243,7.093,5.9c0,1.475-1.031,2.284-2.183,2.284c-1.091,0-2.324-0.889-2.425-2.102         c-0.808-1.637-2.768-1.839-4.465-1.839c-1.799,0-4.688,1.132-4.688,3.516c0,2.931,2.97,4.325,6.041,5.739         c3.839,1.718,8.406,3.981,8.406,9.639c0,5.112-3.9,7.96-8.143,8.688v2.506c0,1.739-0.324,2.951-2.182,2.951         c-1.293,0-2.143-0.385-2.143-1.778c0-0.829,0-2.385,0.041-3.637c-4.102-0.586-7.881-2.931-7.881-7.355         C164.612,380.65,164.632,377.821,167.34,377.821z"/>
						</g>
					</g>
				</g>
			</g>
			<g>
				<g>
					<g>
						
							<rect x="65.841" y="293.135" transform="matrix(0.7001 -0.714 0.714 0.7001 -196.5229 193.4813)" style="fill:#FDF3EA;" width="132.497" height="75.156"/>
					</g>
				</g>
				<g>
					<g>
						<path style="fill:#040308;" d="M58.876,352.251c-0.249,0-0.474-0.171-0.531-0.424c-0.068-0.293,0.116-0.585,0.409-0.652        l76.647-17.605l15.708-76.576c0.061-0.297,0.349-0.491,0.644-0.424c0.295,0.061,0.485,0.347,0.424,0.642l-15.779,76.921        c-0.043,0.209-0.204,0.374-0.412,0.422l-76.988,17.683C58.956,352.247,58.915,352.251,58.876,352.251z"/>
					</g>
				</g>
				<g>
					<g>
						<path style="fill:#040308;" d="M112.539,404.871c-0.029,0-0.059-0.002-0.088-0.008c-0.297-0.046-0.499-0.326-0.452-0.623        l10.759-67.031c0.048-0.297,0.338-0.508,0.625-0.452c0.297,0.046,0.499,0.326,0.452,0.623l-10.759,67.031        C113.034,404.679,112.801,404.871,112.539,404.871z"/>
					</g>
				</g>
				<g>
					<g>
						<path style="fill:#040308;" d="M139.643,318.784c-0.27,0-0.504-0.201-0.539-0.475c-0.039-0.299,0.171-0.573,0.47-0.613        l65.66-8.516c0.297-0.036,0.571,0.171,0.611,0.47c0.039,0.299-0.171,0.573-0.47,0.613l-65.66,8.516        C139.69,318.782,139.667,318.784,139.643,318.784z"/>
					</g>
				</g>
			</g>
		</g>
		<g>
			<g>
				<g>
					<polygon style="fill:#0060FF;" points="397.038,284.523 429.736,265.501 432.372,296.673      "/>
				</g>
			</g>
			<g>
				<g>
					<polygon style="fill:#B8B9FD;" points="100.948,275.55 68.489,294.977 65.466,263.839      "/>
				</g>
			</g>
			<g>
				<g>
					<polygon style="fill:#FF470C;" points="221.619,435.872 217.273,473.45 190.729,456.895      "/>
				</g>
			</g>
			<g>
				<g>
					<path style="fill:#FDF3EA;" d="M443.973,193.453c0,4.026-3.263,7.289-7.289,7.289c-4.025,0-7.289-3.263-7.289-7.289       c0-4.025,3.263-7.289,7.289-7.289C440.709,186.164,443.973,189.427,443.973,193.453z"/>
				</g>
			</g>
			<g>
				<g>
					<path style="fill:#FDF3EA;" d="M341.2,433.256c0,4.026-3.263,7.289-7.289,7.289s-7.289-3.263-7.289-7.289       c0-4.025,3.263-7.289,7.289-7.289S341.2,429.23,341.2,433.256z"/>
				</g>
			</g>
			<g>
				<g>
					<path style="fill:#FFD484;" d="M157.157,439.087c0,4.026-3.263,7.289-7.289,7.289s-7.289-3.263-7.289-7.289       c0-4.025,3.263-7.289,7.289-7.289S157.157,435.061,157.157,439.087z"/>
				</g>
			</g>
			<g>
				<g>
					<path style="fill:#FFD484;" d="M141.486,260.51c0,4.025-3.263,7.289-7.289,7.289s-7.289-3.263-7.289-7.289       s3.263-7.289,7.289-7.289S141.486,256.485,141.486,260.51z"/>
				</g>
			</g>
		</g>
	</g>
</g>















</svg>
