<?xml version="1.0" encoding="UTF-8"?>
<!-- Generator: Adobe Illustrator 26.5.1, SVG Export Plug-In . SVG Version: 6.00 Build 0)  -->
<svg xmlns="http://www.w3.org/2000/svg" xmlns:xlink="http://www.w3.org/1999/xlink" version="1.1" id="Capa_1" x="0px" y="0px" viewBox="0 0 512 512" style="enable-background:new 0 0 512 512;" xml:space="preserve" width="512" height="512">
<g>
	<path style="fill:#FFFFFF;" d="M102.089,502.022c-18.029,1.377-29.351-5.609-35.676-11.712   c-16.245-15.679-15.726-40.351-15.614-43.112c0.171-4.191,1.951-8.148,4.958-11.055c-17.569-10.763-31.803-25.099-41.822-42.279   c-0.133-0.228-0.261-0.46-0.383-0.694c-24.164-46.495-10.61-79.676-0.713-103.903c5.554-13.596,8.833-22.274,6.359-29.059   c-0.673-1.844-1.007-3.795-0.987-5.759c0.335-31.21,17.552-56.25,47.559-69.703c2.18-7.74,2.856-14.755,2.13-22.015   c-0.784-7.846,4.16-15.128,11.741-17.294c1.083-0.309,2.172-0.501,3.253-0.584c7.495-0.572,14.626,4.123,16.852,11.604   c0.925,3.107,2.089,6.065,3.53,8.948L284.809,58.512c4.332-4.758,9.218-8.336,14.566-10.662c1.338-10.143,4.19-20.951,9.978-28.828   c2.082-4.119,5.837-7.37,10.624-8.651c0.18-0.049,0.36-0.093,0.542-0.134c0.799-0.185,1.693-0.322,2.51-0.385   c7.91-0.604,15.132,4.405,17.361,11.966c3.676,6.269,12.175,20.417,23.592,37.195c3.345,0.576,6.482,2.189,8.906,4.673   c1.02-1.613,2.017-3.264,3.034-4.951c5.92-9.813,12.631-20.938,27.077-29.516c10.152-6.028,21.334-9.66,32.333-10.5   c9.058-0.692,17.804,0.482,25.995,3.49c30.469,11.188,49.384,44.485,50.598,89.07c1.407,51.656-17.37,104.863-51.014,146.704   l15.766,5.29c7.432,2.493,12.036,9.926,10.958,17.692l-2.244,16.169c-0.631,4.554-3.158,8.628-6.954,11.221l-81.605,55.708   c0.16,0.44,0.303,0.892,0.429,1.353c2.335,8.607-2.737,17.496-11.312,19.944c-4.869,1.39-7.6,6.087-8.794,8.762   c-1.329,2.978-1.659,8.554-1.949,13.474c-0.072,1.205-0.143,2.399-0.225,3.572c0.504,7.263-3.914,14.103-10.959,16.526   c-1.342,0.462-2.707,0.739-4.066,0.842c-6.253,0.478-12.38-2.705-15.507-8.381c-0.28-0.486-0.537-0.989-0.767-1.506   c-0.842-1.693-1.666-3.467-2.498-5.27c-1.342-2.909-2.807-6.087-4.263-8.419l-75.329,51.423c-2.395,1.634-5.142,2.576-7.948,2.79   c-2.424,0.185-4.895-0.172-7.224-1.09l-42.701-16.851c-2.61,1.358-5.285,2.64-8.008,3.84l-84.256,54.233   c-2.105,1.355-4.495,2.207-6.982,2.49C103.665,501.887,102.872,501.963,102.089,502.022z"/>
	<g>
		<path style="fill:#FFBEFF;" d="M31.291,253.268c12.092,33.154-40.598,65.411-6.495,131.029    c38.917,66.739,146.424,74.208,197.881,18.729c53.564-57.409,23.838-149.109-33.934-191.752    C143.893,174.434,32.076,180.019,31.291,253.268z"/>
		<path style="fill:#6ADEEB;" d="M303.191,61.215c-9.134,3.693-14.679,12.896-18.908,21.796    c-24.72,52.024-26.138,112.998-12.684,169.003c5.421,22.567,14.938,46.722,35.663,57.168c19.85,10.004,44.01,4.249,64.233-4.978    c73.397-33.491,123.115-113.191,120.918-193.837c-0.814-29.858-11.883-63.918-39.922-74.214    c-14.802-5.434-31.124-2.153-44.39,5.724c-16.805,9.979-19.855,24.653-31.366,38.56C352.317,109.94,332.595,49.325,303.191,61.215    z"/>
		<g>
			<g>
				<polygon style="fill:#2E0033;" points="74.904,372.8 75.424,197.472 318.385,54.404 331.414,61.06 206.867,197.17       311.219,224.674 468.273,277.368 466.03,293.538 249.184,441.567     "/>
				<polygon style="fill:#FBEEE5;" points="89.092,203.384 88.745,353.657 311.219,224.674 331.414,61.06     "/>
				<polygon style="fill:#A27CFF;" points="457.374,277.262 319.305,370.384 248.78,417.944 89.007,357.107 164.763,313.479       311.318,229.081     "/>
				<g>
					<polygon style="fill:#FFBEFF;" points="457.374,277.262 394.519,319.659 393.12,320.611 319.305,370.384 275.911,354.41        274.37,353.846 214.941,331.959 213.314,331.348 164.763,313.479 240.832,269.664 242.397,268.754 311.318,229.081        371.014,248.768 372.608,249.3      "/>
					<g>
						<g>
							<polygon style="fill:#2E0033;" points="394.519,319.659 393.12,320.611 344.977,304.509 343.41,303.975 290.738,286.367          289.088,285.811 240.832,269.664 242.397,268.754 311.678,291.932 313.244,292.466        "/>
						</g>
						<g>
							<polygon style="fill:#2E0033;" points="372.608,249.3 313.244,292.466 312.185,293.228 311.394,292.145 311.678,291.932          371.014,248.768        "/>
						</g>
						<g>
							<polygon style="fill:#2E0033;" points="290.842,286.304 290.738,286.367 214.941,331.959 213.314,331.348 289.088,285.811          290.155,285.158        "/>
						</g>
						<g>
							<polygon style="fill:#2E0033;" points="345.131,304.388 344.977,304.509 275.911,354.41 274.37,353.846 343.41,303.975          344.34,303.305        "/>
						</g>
					</g>
				</g>
			</g>
			<g>
				<g>
					<g>
						<path style="fill:#FF5E5C;" d="M323.495,90.929l-12.092-29.1c0,0-0.165-27.317,9.688-36.614c0,0,13.217,23.384,32.546,50.778        L323.495,90.929z"/>
						<polygon style="fill:#A27CFF;" points="372.865,238.993 368.933,159.333 333.876,133.731 318.645,92.694 340.06,82.368         358.007,73.723 378.866,113.54 378.946,120.29 379.248,150.998 432.93,216.778       "/>
						<polygon style="fill:#FBEEE5;" points="396.174,146.582 346.395,167.583 333.866,133.72 378.873,113.538       "/>
						<path style="fill:#2E0033;" d="M336.952,155.528l57.723-24.199l40.359,70.795c4.167,7.309,0.754,16.61-7.151,19.489        l-47.459,17.285c-7.128,2.596-15-1.15-17.483-8.318L336.952,155.528z"/>
						<path style="fill:#FBEEE5;" d="M389.915,144.323L389.915,144.323c2.996-1.391,6.558-0.32,8.291,2.491l7.283,11.816        c1.999,3.243,0.801,7.502-2.594,9.228l-1.78,0.905c-3.35,1.703-7.442,0.228-8.933-3.222l-5.504-12.721        C385.275,149.579,386.711,145.81,389.915,144.323z"/>
					</g>
					
						<path style="fill:none;stroke:#2E0033;stroke-width:0.938;stroke-linecap:round;stroke-linejoin:round;stroke-miterlimit:10;" d="       M311.402,61.829c0,0,7.964-0.853,11.091-10.219c3.128-9.365-1.404-26.395-1.404-26.395"/>
				</g>
				<polygon style="opacity:0.28;fill:#FBEEE5;" points="378.901,114.001 378.981,120.751 364.138,129.731 340.095,82.829       358.043,74.184     "/>
			</g>
			<g>
				<path style="fill:#FFC15C;" d="M267.675,318.12c1.072,2.2,2.084,4.402,2.962,6.584c0.197,0.419,0.37,0.85,0.529,1.258      c3.468,8.596,5.627,16.946,6.879,24.707c0.101,0.471,0.178,0.954,0.232,1.451c1.642,10.981,1.525,20.661,0.914,28.012      c-0.055,0.525-0.099,1.012-0.167,1.513c-0.824,8.209-2.222,13.144-2.222,13.144l-61.578,18.454l-4.951-5.069l-1.009-1.059      l-9.915-10.162l-0.983-1.012l-11.403-11.703l-0.97-0.988l-9.626-9.855l-0.97-0.988l-5.772-5.952l-0.97-0.988l-5.443-5.575      l38.404-79.444c0,0,11.863-3.203,26.612,1.176c0.455,0.155,0.921,0.272,1.376,0.427c7.672,2.508,15.997,7.072,23.788,15.203      c0.327,0.317,0.643,0.671,0.946,1.001C259.099,303.427,263.649,309.919,267.675,318.12z"/>
				<g>
					<g>
						<path style="fill:#A27CFF;" d="M229.604,282.05l-59.98,84.403l-2.365,3.327l-1.109-0.788l2.504-3.526l59.574-83.843        C228.683,281.778,229.149,281.895,229.604,282.05z"/>
					</g>
					<g>
						<path style="fill:#A27CFF;" d="M254.338,298.254l-77.973,75.139l-4.789,4.614l-0.946-1.001l4.765-4.601l77.996-75.152        C253.719,297.57,254.035,297.924,254.338,298.254z"/>
					</g>
					<g>
						<path style="fill:#A27CFF;" d="M270.636,324.703c0.197,0.419,0.37,0.85,0.529,1.258l-84.204,58.275l-4.583,3.172l-0.792-1.116        l4.405-3.045L270.636,324.703z"/>
					</g>
					<g>
						<path style="fill:#A27CFF;" d="M278.044,350.669c0.101,0.471,0.178,0.954,0.232,1.451l-78.929,44.832l-7.869,4.464        l-0.673-1.18l7.559-4.296L278.044,350.669z"/>
					</g>
					<g>
						<path style="fill:#A27CFF;" d="M279.19,380.131c-0.055,0.525-0.099,1.012-0.167,1.513l-68.752,26.529l-14.312,5.524        l-0.493-1.247l13.795-5.336L279.19,380.131z"/>
					</g>
				</g>
				<path style="fill:#2E0033;" d="M186.561,403.784l-14.392,37.346l-70.364,45.289c-37.266,4.23-35.552-37.739-35.552-37.739      l71.273-65.257l26.581,8.535L186.561,403.784z"/>
				<path style="opacity:0.3;fill:#A27CFF;" d="M186.561,403.784l-14.392,37.346l-70.364,45.289      c-37.266,4.23-35.552-37.739-35.552-37.739l71.273-65.257l26.581,8.535L186.561,403.784z"/>
				<path style="fill:#FBEEE5;" d="M216.792,412.397l-44.623,28.734c-3.624-3.148-6.981-6.618-10.089-10.223      c-11.778-13.6-21.501-30.023-24.553-47.485l25.686-23.526L216.792,412.397z"/>
			</g>
			<g>
				<path style="fill:#FFC15C;" d="M441.092,95.883c-6.272-7.867-10.795-16.023-13.666-25.666l-0.007,0.001      c1.001,10.011-0.092,19.273-2.911,28.931c-2.819,9.658-8.31,19.682-18.276,21.058c9.148-1.019,17.858,2.825,24.517,9.18      c5.69,5.43,8.743,14.278,12.327,21.325l0.011,0.057c0.001-0.01,0.001-0.02,0.002-0.03c0.048,0.096,0.096,0.198,0.144,0.293      l-0.12-0.614c0.654-7.874,0.467-17.006,3.673-24.189c3.752-8.405,10.353-15.265,19.204-17.792      C456.245,110.943,447.363,103.751,441.092,95.883z"/>
				<path style="fill:#FFC15C;" d="M94.573,185.418c-6.272-7.867-10.795-16.023-13.666-25.666l-0.007,0.001      c1.001,10.011-0.091,19.273-2.911,28.931c-2.819,9.658-8.31,19.682-18.277,21.058c9.148-1.019,17.857,2.825,24.517,9.18      c5.69,5.43,8.743,14.278,12.327,21.325l0.012,0.057c0.001-0.01,0.001-0.02,0.002-0.03c0.048,0.096,0.095,0.198,0.144,0.293      l-0.12-0.614c0.654-7.874,0.467-17.006,3.673-24.189c3.751-8.405,10.353-15.265,19.203-17.792      C109.726,200.477,100.844,193.285,94.573,185.418z"/>
				<path style="fill:#FFC15C;" d="M353.359,355.778c-6.272-7.867-10.795-16.023-13.666-25.666l-0.007,0.001      c1.001,10.011-0.092,19.273-2.911,28.931c-2.819,9.658-8.31,19.681-18.276,21.057c9.148-1.019,17.858,2.825,24.517,9.18      c5.69,5.43,8.743,14.278,12.327,21.325l0.011,0.057c0.001-0.01,0.001-0.02,0.002-0.03c0.049,0.096,0.096,0.198,0.144,0.293      l-0.12-0.614c0.655-7.874,0.467-17.007,3.673-24.19c3.752-8.405,10.353-15.265,19.204-17.792      C368.512,370.838,359.631,363.645,353.359,355.778z"/>
			</g>
		</g>
	</g>
</g>















</svg>
