<svg height="512" viewBox="0 0 64 64" width="512" xmlns="http://www.w3.org/2000/svg"><g id="_25-Search_Engine" data-name="25-Search Engine"><rect fill="#eee" height="50" rx="4" width="52" x="3" y="3"/><rect fill="#eee" height="50" rx="4" width="52" x="3" y="3"/><path d="m55 7v42a3.99891 3.99891 0 0 1 -4 4h-44a3.999 3.999 0 0 1 -4-4v-3a3.999 3.999 0 0 0 4 4h39a3.99891 3.99891 0 0 0 4-4v-39a3.99887 3.99887 0 0 0 -4-4h5a3.99887 3.99887 0 0 1 4 4z" fill="#e0e0e0"/><path d="m55 7v4h-52v-4a3.99891 3.99891 0 0 1 4-4h44a3.99887 3.99887 0 0 1 4 4z" fill="#64b5f6"/><path d="m55 7v4h-5v-4a3.99887 3.99887 0 0 0 -4-4h5a3.99887 3.99887 0 0 1 4 4z" fill="#42a5f5"/><circle cx="9" cy="7" fill="#eee" r="1"/><circle cx="15" cy="7" fill="#eee" r="1"/><circle cx="21" cy="7" fill="#eee" r="1"/><g fill="#757575"><path d="m26 36h-7a1 1 0 0 1 0-2h7a1 1 0 0 1 0 2z"/><path d="m15 36h-6a1 1 0 0 1 0-2h6a1 1 0 0 1 0 2z"/><path d="m25 48h-6a1 1 0 0 1 0-2h6a1 1 0 0 1 0 2z"/><path d="m15 48h-6a1 1 0 0 1 0-2h6a1 1 0 0 1 0 2z"/><path d="m31 30h-22a1 1 0 0 1 0-2h22a1 1 0 0 1 0 2z"/><path d="m24 42h-15a1 1 0 0 1 0-2h15a1 1 0 0 1 0 2z"/></g><path d="m51.25736 45.47918h5.65685a0 0 0 0 1 0 0v14.38482a2.82842 2.82842 0 0 1 -2.82842 2.82842 2.82842 2.82842 0 0 1 -2.82843-2.82842v-14.38482a0 0 0 0 1 0 0z" fill="#42a5f5" transform="matrix(.707 -.707 .707 .707 -22.403 54.086)"/><circle cx="42" cy="42" fill="#64b5f6" r="13"/><circle cx="42" cy="42" fill="#eee" r="9"/><path d="m43.87531 33.19867a8.99523 8.99523 0 0 1 -8.75055 14.60266 8.99784 8.99784 0 1 0 8.75055-14.60266z" fill="#e0e0e0"/><path d="m53.82843 53.82843a2.82846 2.82846 0 0 0 -4 0l6.34314 6.34314a2.82846 2.82846 0 0 0 4 0z" fill="#64b5f6"/><path d="m9 17h34v6h-34z" fill="#ffb74d"/><path d="m9 21h34v2h-34z" fill="#ffa726"/><path d="m43 17h6v6h-6z" fill="#ffb74d"/><path d="m43 17h6v6h-6z" fill="#64b5f6"/><path d="m49 17v6h-6v-2h1a2.00587 2.00587 0 0 0 2-2v-2z" fill="#42a5f5"/></g></svg>