<svg id="svg11425" height="512" viewBox="0 0 16.933333 16.933334" width="512" xmlns="http://www.w3.org/2000/svg" xmlns:svg="http://www.w3.org/2000/svg"><g id="layer1" transform="translate(0 -280.067)"><path id="path13344" d="m3.1743493 291.97199c-.5203351 0-.854235.36678-1.023438.66406l-1.52343701 2.67579c-.152248.26748-.10939899.5798.03516.79492.14455399.21511.38591001.36328.66406201.36328h14.2812497c.277994 0 .519658-.14819.664063-.36328s.185451-.52744.0332-.79492l-1.523437-2.67579c-.169204-.29728-.503106-.66406-1.023439-.66406z" fill="#dbe9ee" font-variant-ligatures="normal" font-variant-position="normal" font-variant-caps="normal" font-variant-numeric="normal" font-variant-alternates="normal" font-feature-settings="normal" text-indent="0" text-align="start" text-decoration-line="none" text-decoration-style="solid" text-decoration-color="#000000" text-transform="none" text-orientation="mixed" white-space="normal" shape-padding="0" isolation="auto" mix-blend-mode="normal" solid-color="#000000" solid-opacity="1" vector-effect="none"/><path id="path13348" d="m8.4673172 280.59504c-3.3577509 0-6.0859579 2.72818-6.0859369 6.08594.00001 2.23793 1.505471 4.3909 2.9804689 6 1.474997 1.60909 2.9492181 2.68164 2.9492181 2.68164a.26460982.26460982 0 0 0 .310547 0s1.4761697-1.07255 2.9511717-2.68164c1.475003-1.6091 2.978516-3.76207 2.978516-6 0-3.35776-2.726223-6.08595-6.0839848-6.08594z" fill="#ff6b6b" font-variant-ligatures="normal" font-variant-position="normal" font-variant-caps="normal" font-variant-numeric="normal" font-variant-alternates="normal" font-feature-settings="normal" text-indent="0" text-align="start" text-decoration-line="none" text-decoration-style="solid" text-decoration-color="#000000" text-transform="none" text-orientation="mixed" white-space="normal" shape-padding="0" isolation="auto" mix-blend-mode="normal" solid-color="#000000" solid-opacity="1" vector-effect="none"/><path id="path13356" d="m8.4673172 282.18293c-2.4809968 0-4.498046 2.01705-4.498046 4.49805 0 2.48099 2.0170492 4.49804 4.498046 4.49804s4.4980468-2.01705 4.4980468-4.49804c0-2.481-2.01705-4.49805-4.4980468-4.49805z" fill="#dbe9ee" font-variant-ligatures="normal" font-variant-position="normal" font-variant-caps="normal" font-variant-numeric="normal" font-variant-alternates="normal" font-feature-settings="normal" text-indent="0" text-align="start" text-decoration-line="none" text-decoration-style="solid" text-decoration-color="#000000" text-transform="none" text-orientation="mixed" white-space="normal" shape-padding="0" isolation="auto" mix-blend-mode="normal" solid-color="#000000" solid-opacity="1" vector-effect="none"/><path id="path13352" d="m7.6723951 284.03449a.26460982.26460982 0 0 0 -.2636708.26563v1.32226h-1.3242189a.26460982.26460982 0 0 0 -.2636721.26563v1.58789a.26460982.26460982 0 0 0 .2636721.26367h1.3242189v1.32227a.26460982.26460982 0 0 0 .2636708.26562h1.5878911a.26460982.26460982 0 0 0 .265625-.26562v-1.32227h1.3222658a.26460982.26460982 0 0 0 .263672-.26367v-1.58789a.26460982.26460982 0 0 0 -.263672-.26563h-1.3222658v-1.32226a.26460982.26460982 0 0 0 -.265625-.26563z" fill="#ff6b6b" font-variant-ligatures="normal" font-variant-position="normal" font-variant-caps="normal" font-variant-numeric="normal" font-variant-alternates="normal" font-feature-settings="normal" text-indent="0" text-align="start" text-decoration-line="none" text-decoration-style="solid" text-decoration-color="#000000" text-transform="none" text-orientation="mixed" white-space="normal" shape-padding="0" isolation="auto" mix-blend-mode="normal" solid-color="#000000" solid-opacity="1" vector-effect="none"/></g></svg>