<svg id="svg14078" height="512" viewBox="0 0 16.933333 16.933334" width="512" xmlns="http://www.w3.org/2000/svg" xmlns:svg="http://www.w3.org/2000/svg"><g id="layer1" transform="translate(0 -280.067)"><path id="path12929" d="m1.5880098 282.18435c-.4351599 0-.79477989.35756-.79477989.79272v12.69896c0 .43516.35961999.7953.79477989.7953h8.4671802c.43516 0 .79272-.36013.79272-.7953v-12.69896c0-.43516-.35756-.79272-.79272-.79272z" fill="#dfedfe" font-variant-ligatures="normal" font-variant-position="normal" font-variant-caps="normal" font-variant-numeric="normal" font-variant-alternates="normal" font-feature-settings="normal" text-indent="0" text-align="start" text-decoration-line="none" text-decoration-style="solid" text-decoration-color="#000000" text-transform="none" text-orientation="mixed" white-space="normal" shape-padding="0" isolation="auto" mix-blend-mode="normal" solid-color="#000000" solid-opacity="1" vector-effect="none"/><path id="path13035" d="m8.9968598 282.18435c.4351599 0 .7927199.35756.7927199.79272v12.1698c0 .43516-.35756.7953-.7927199.7953h-7.40885c-.4351599 0-.79477989-.36014-.79477989-.7953v.52916c0 .43516.35961999.7953.79477989.7953h8.4671802c.43516 0 .79272-.36013.79272-.7953v-12.69896c0-.43516-.35756-.79272-.79272-.79272z" fill="#cde3fd" font-variant-ligatures="normal" font-variant-position="normal" font-variant-caps="normal" font-variant-numeric="normal" font-variant-alternates="normal" font-feature-settings="normal" text-indent="0" text-align="start" text-decoration-line="none" text-decoration-style="solid" text-decoration-color="#000000" text-transform="none" text-orientation="mixed" white-space="normal" shape-padding="0" isolation="auto" mix-blend-mode="normal" solid-color="#000000" solid-opacity="1" vector-effect="none"/><path id="path13018" d="m2.1174398 284.29933a.26460982.26460982 0 0 0 -.26563.26563v8.4668a.26460982.26460982 0 0 0 .26563.26367h7.4082001a.26460982.26460982 0 0 0 .26367-.26367v-8.4668a.26460982.26460982 0 0 0 -.26367-.26563z" fill="#90baf6" font-variant-ligatures="normal" font-variant-position="normal" font-variant-caps="normal" font-variant-numeric="normal" font-variant-alternates="normal" font-feature-settings="normal" text-indent="0" text-align="start" text-decoration-line="none" text-decoration-style="solid" text-decoration-color="#000000" text-transform="none" text-orientation="mixed" white-space="normal" shape-padding="0" isolation="auto" mix-blend-mode="normal" solid-color="#000000" solid-opacity="1" vector-effect="none"/><path id="path8825" d="m5.0275999 283.24074a.26465.26465 0 1 0 0 .5293h1.58789a.26465.26465 0 1 0 0-.5293z" fill="#cde3fd" font-variant-ligatures="normal" font-variant-position="normal" font-variant-caps="normal" font-variant-numeric="normal" font-variant-alternates="normal" font-feature-settings="normal" text-indent="0" text-align="start" text-decoration-line="none" text-decoration-style="solid" text-decoration-color="#000000" text-transform="none" text-orientation="mixed" white-space="normal" shape-padding="0" isolation="auto" mix-blend-mode="normal" solid-color="#000000" solid-opacity="1" vector-effect="none"/><path id="path13033" d="m5.8205598 293.82472c-.4352401 0-.7929599.35968-.7929599.79493 0 .43524.3577198.79296.7929599.79296.4352499 0 .7949301-.35772.7949301-.79296 0-.43525-.3596802-.79493-.7949301-.79493z" fill="#cde3fd" font-variant-ligatures="normal" font-variant-position="normal" font-variant-caps="normal" font-variant-numeric="normal" font-variant-alternates="normal" font-feature-settings="normal" text-indent="0" text-align="start" text-decoration-line="none" text-decoration-style="solid" text-decoration-color="#000000" text-transform="none" text-orientation="mixed" white-space="normal" shape-padding="0" isolation="auto" mix-blend-mode="normal" solid-color="#000000" solid-opacity="1" vector-effect="none"/><path id="path13020" d="m2.1176898 284.29947c-.14713-.0008-.26669.11848-.26613.26561v8.46667c.0005292.14632.11981.2644.26613.26355h1.05834c-.1461699.00053-.26562-.11738-.2661399-.26355v-7.40833c-.0005291-.14694.1191998-.26618.2661399-.26562h6.3494799c.1461701.00053.26411.11945.2635501.26562v-1.05834c.0005292-.14611-.11743-.26503-.2635501-.26561z" fill="#7eaef4" font-variant-ligatures="normal" font-variant-position="normal" font-variant-caps="normal" font-variant-numeric="normal" font-variant-alternates="normal" font-feature-settings="normal" text-indent="0" text-align="start" text-decoration-line="none" text-decoration-style="solid" text-decoration-color="#000000" text-transform="none" text-orientation="mixed" white-space="normal" shape-padding="0" isolation="auto" mix-blend-mode="normal" solid-color="#000000" solid-opacity="1" vector-effect="none"/><path id="path13044" d="m8.9963398 280.59633c-.4351501 0-.79478.35756-.79478.79272v4.23437c0 .43516.3596299.79323.79478.79323h.2635499v1.32188a.26460982.26460982 0 0 0 .4377.20154l1.7771503-1.52342h3.87109c.43516 0 .79323-.35807.79323-.79323v-4.23437c0-.43516-.35807-.79272-.79323-.79272z" fill="#ef4f33" font-variant-ligatures="normal" font-variant-position="normal" font-variant-caps="normal" font-variant-numeric="normal" font-variant-alternates="normal" font-feature-settings="normal" text-indent="0" text-align="start" text-decoration-line="none" text-decoration-style="solid" text-decoration-color="#000000" text-transform="none" text-orientation="mixed" white-space="normal" shape-padding="0" isolation="auto" mix-blend-mode="normal" solid-color="#000000" solid-opacity="1" vector-effect="none"/><g fill="#dfedfe"><path id="path8951" d="m9.7893099 281.91847c-.35286 0-.35286.5293 0 .5293h2.9101601c.35287 0 .35287-.5293 0-.5293z" font-variant-ligatures="normal" font-variant-position="normal" font-variant-caps="normal" font-variant-numeric="normal" font-variant-alternates="normal" font-feature-settings="normal" text-indent="0" text-align="start" text-decoration-line="none" text-decoration-style="solid" text-decoration-color="#000000" text-transform="none" text-orientation="mixed" white-space="normal" shape-padding="0" isolation="auto" mix-blend-mode="normal" solid-color="#000000" solid-opacity="1" vector-effect="none"/><path id="path8953" d="m13.75806 281.91847c-.35286 0-.35286.5293 0 .5293h.79493c.35286 0 .35286-.5293 0-.5293z" font-variant-ligatures="normal" font-variant-position="normal" font-variant-caps="normal" font-variant-numeric="normal" font-variant-alternates="normal" font-feature-settings="normal" text-indent="0" text-align="start" text-decoration-line="none" text-decoration-style="solid" text-decoration-color="#000000" text-transform="none" text-orientation="mixed" white-space="normal" shape-padding="0" isolation="auto" mix-blend-mode="normal" solid-color="#000000" solid-opacity="1" vector-effect="none"/><path id="path8955" d="m9.7893099 283.24074c-.35286 0-.35286.5293 0 .5293h4.7636801c.35286 0 .35286-.5293 0-.5293z" font-variant-ligatures="normal" font-variant-position="normal" font-variant-caps="normal" font-variant-numeric="normal" font-variant-alternates="normal" font-feature-settings="normal" text-indent="0" text-align="start" text-decoration-line="none" text-decoration-style="solid" text-decoration-color="#000000" text-transform="none" text-orientation="mixed" white-space="normal" shape-padding="0" isolation="auto" mix-blend-mode="normal" solid-color="#000000" solid-opacity="1" vector-effect="none"/><path id="path8957" d="m14.55299 285.09426c.35286 0 .35286-.5293 0-.5293h-2.92481c-.36541.0171-.34002.54635.0127.5293z" font-variant-ligatures="normal" font-variant-position="normal" font-variant-caps="normal" font-variant-numeric="normal" font-variant-alternates="normal" font-feature-settings="normal" text-indent="0" text-align="start" text-decoration-line="none" text-decoration-style="solid" text-decoration-color="#000000" text-transform="none" text-orientation="mixed" white-space="normal" shape-padding="0" isolation="auto" mix-blend-mode="normal" solid-color="#000000" solid-opacity="1" vector-effect="none"/><path id="path8959" d="m10.58424 285.09426c.35286 0 .35286-.5293 0-.5293h-.8076201c-.3655602.0169-.34017.54622.0127.5293z" font-variant-ligatures="normal" font-variant-position="normal" font-variant-caps="normal" font-variant-numeric="normal" font-variant-alternates="normal" font-feature-settings="normal" text-indent="0" text-align="start" text-decoration-line="none" text-decoration-style="solid" text-decoration-color="#000000" text-transform="none" text-orientation="mixed" white-space="normal" shape-padding="0" isolation="auto" mix-blend-mode="normal" solid-color="#000000" solid-opacity="1" vector-effect="none"/></g><path id="path13057" d="m14.28749 280.59633c.43516 0 .79324.35756.79324.79272v3.7052c-.00001.43516-.35808.79323-.79324.79323h-2.81275l-1.7771503 1.52343c-.1719099.14867-.43902.0257-.4377-.20154v.52916c-.00101.22728.2657901.35021.4377.20154l1.7771503-1.52342h3.87109c.43516 0 .79323-.35807.79323-.79323v-4.23437c0-.43516-.35807-.79272-.79323-.79272z" fill="#ed3717" font-variant-ligatures="normal" font-variant-position="normal" font-variant-caps="normal" font-variant-numeric="normal" font-variant-alternates="normal" font-feature-settings="normal" text-indent="0" text-align="start" text-decoration-line="none" text-decoration-style="solid" text-decoration-color="#000000" text-transform="none" text-orientation="mixed" white-space="normal" shape-padding="0" isolation="auto" mix-blend-mode="normal" solid-color="#000000" solid-opacity="1" vector-effect="none"/><path id="path11565-3-4" d="m4.4964999 290.65051c-.8749001 0-1.5859501.71105-1.5859501 1.58595v1.05885h5.82031v-1.05885c0-.8749-.7131201-1.58595-1.5880101-1.58595z" fill="#337fef" font-variant-ligatures="normal" font-variant-position="normal" font-variant-caps="normal" font-variant-numeric="normal" font-variant-alternates="normal" font-feature-settings="normal" text-indent="0" text-align="start" text-decoration-line="none" text-decoration-style="solid" text-decoration-color="#000000" text-transform="none" text-orientation="mixed" white-space="normal" shape-padding="0" isolation="auto" mix-blend-mode="normal" solid-color="#000000" solid-opacity="1" vector-effect="none"/><path id="path12060-4" d="m6.0847598 290.65051c.8749001 0 1.5880199.71105 1.5880199 1.58595v1.05885h1.0583302v-1.05885c0-.8749-.7131101-1.58595-1.5880102-1.58595z" fill="#176ded" font-variant-ligatures="normal" font-variant-position="normal" font-variant-caps="normal" font-variant-numeric="normal" font-variant-alternates="normal" font-feature-settings="normal" text-indent="0" text-align="start" text-decoration-line="none" text-decoration-style="solid" text-decoration-color="#000000" text-transform="none" text-orientation="mixed" white-space="normal" shape-padding="0" isolation="auto" mix-blend-mode="normal" solid-color="#000000" solid-opacity="1" vector-effect="none"/><path id="path8791-4-9" d="m5.8199299 291.44374c-.6697301 0-.7937501-.52916-.7937501-.52916v-1.32292h1.5875001v1.32291s-.12402.52917-.79375.52917z" fill="#e5b575"/><path id="path11779-6-1" d="m5.8199299 289.59166v.92604.92604c.66973 0 .79375-.52917.79375-.52917v-1.32291z" fill="#e2ac64"/><path id="path11787-0-3" d="m5.0261798 289.59166v1.10794c.23386.13586.5045401.21497.7937501.21497.2892099 0 .55989-.0791.79375-.21497v-1.10794z" fill="#e2ac64" font-variant-ligatures="normal" font-variant-position="normal" font-variant-caps="normal" font-variant-numeric="normal" font-variant-alternates="normal" font-feature-settings="normal" text-indent="0" text-align="start" text-decoration-line="none" text-decoration-style="solid" text-decoration-color="#000000" text-transform="none" text-orientation="mixed" white-space="normal" shape-padding="0" isolation="auto" mix-blend-mode="normal" solid-color="#000000" solid-opacity="1" vector-effect="none"/><path id="path11555-6-6" d="m4.2324298 287.21041v1.5875c-.00001.8749.7126 1.5875 1.5875001 1.5875.8748998 0 1.5875-.7126 1.5875-1.5875v-1.5875z" fill="#e5b575" font-variant-ligatures="normal" font-variant-position="normal" font-variant-caps="normal" font-variant-numeric="normal" font-variant-alternates="normal" font-feature-settings="normal" text-indent="0" text-align="start" text-decoration-line="none" text-decoration-style="solid" text-decoration-color="#000000" text-transform="none" text-orientation="mixed" white-space="normal" shape-padding="0" isolation="auto" mix-blend-mode="normal" solid-color="#000000" solid-opacity="1" vector-effect="none"/><path id="path11774-6-0" d="m6.3490899 287.21041v1.5875c0 .68915-.44299 1.2762-1.0583302 1.495.1658501.059.34343.0925.5291702.0925.8748998 0 1.5875-.71261 1.5875-1.5875v-1.5875z" fill="#e2ac64" font-variant-ligatures="normal" font-variant-position="normal" font-variant-caps="normal" font-variant-numeric="normal" font-variant-alternates="normal" font-feature-settings="normal" text-indent="0" text-align="start" text-decoration-line="none" text-decoration-style="solid" text-decoration-color="#000000" text-transform="none" text-orientation="mixed" white-space="normal" shape-padding="0" isolation="auto" mix-blend-mode="normal" solid-color="#000000" solid-opacity="1" vector-effect="none"/><path id="path11559-6-3" d="m5.5553497 285.88749c-.8748998 0-1.5874998.7126-1.5874998 1.5875v.79375a.26460979.26460979 0 0 0 .2645799.26458h.79375c.7425601 0 1.31161-.32661 1.5394401-.46767l.3901599.39016a.26460979.26460979 0 0 0 .1870601.0775h.26459a.26460979.26460979 0 0 0 .2645799-.26458v-.79373c0-.8749-.7126-1.5875-1.5875001-1.5875z" fill="#2a579a" font-variant-ligatures="normal" font-variant-position="normal" font-variant-caps="normal" font-variant-numeric="normal" font-variant-alternates="normal" font-feature-settings="normal" text-indent="0" text-align="start" text-decoration-line="none" text-decoration-style="solid" text-decoration-color="#000000" text-transform="none" text-orientation="mixed" white-space="normal" shape-padding="0" isolation="auto" mix-blend-mode="normal" solid-color="#000000" solid-opacity="1" vector-effect="none"/><path id="path11772-9-2" d="m5.5553497 285.88749c-.0903 0-.1783498.01-.26459.0243.74929.12667 1.3229202.77862 1.3229202 1.56321v.63872l.3420999.3421a.26460979.26460979 0 0 0 .1870601.0775h.26459a.26460979.26460979 0 0 0 .2645799-.26458v-.79375c0-.8749-.7126-1.5875-1.5875001-1.5875z" fill="#264e8a" font-variant-ligatures="normal" font-variant-position="normal" font-variant-caps="normal" font-variant-numeric="normal" font-variant-alternates="normal" font-feature-settings="normal" text-indent="0" text-align="start" text-decoration-line="none" text-decoration-style="solid" text-decoration-color="#000000" text-transform="none" text-orientation="mixed" white-space="normal" shape-padding="0" isolation="auto" mix-blend-mode="normal" solid-color="#000000" solid-opacity="1" vector-effect="none"/></g></svg>