<?xml version="1.0" encoding="UTF-8"?>
<svg xmlns="http://www.w3.org/2000/svg" viewBox="0 0 64 64" width="512" height="512"><g id="_12-Portion" data-name="12-Portion"><circle cx="32" cy="32" r="21" fill="#eee"/><path d="M32,11c-.50641,0-1.00256.04047-1.5.07574a20.97627,20.97627,0,0,1,0,41.84852c.49744.03527.99359.07574,1.5.07574a21,21,0,0,0,0-42Z" fill="#e0e0e0"/><path d="M47,32A15.00543,15.00543,0,0,1,32,47V41a9.00076,9.00076,0,0,0,9-9,8.90775,8.90775,0,0,0-1.21-4.5l5.2-3A14.88406,14.88406,0,0,1,47,32Z" fill="#81c784"/><path d="M44.99,24.5l-5.2,3a8.99264,8.99264,0,0,0-15.58,0l-5.2-3a14.99932,14.99932,0,0,1,25.98,0Z" fill="#ef5350"/><path d="M32,41v6A14.99947,14.99947,0,0,1,19.01,24.5l5.2,3A8.90775,8.90775,0,0,0,23,32,9.00076,9.00076,0,0,0,32,41Z" fill="#ffb74d"/><path d="M29,36a1,1,0,0,1-.707-1.707l6-6A.99989.99989,0,1,1,35.707,29.707l-6,6A.99676.99676,0,0,1,29,36Z" fill="#757575"/><circle cx="29" cy="29" r="1" fill="#757575"/><circle cx="35" cy="35" r="1" fill="#757575"/><path d="M7.333,21a.99973.99973,0,0,1-1-1V11a1,1,0,0,1,2,0v9A.99974.99974,0,0,1,7.333,21Z" fill="#ffb74d"/><path d="M4,21a.99974.99974,0,0,1-1-1V11a1,1,0,0,1,2,0v9A.99974.99974,0,0,1,4,21Z" fill="#ffb74d"/><path d="M10.667,21a.99974.99974,0,0,1-1-1V11a1,1,0,0,1,2,0v9A.99973.99973,0,0,1,10.667,21Z" fill="#ffa726"/><path d="M14,21a.99974.99974,0,0,1-1-1V11a1,1,0,0,1,2,0v9A.99974.99974,0,0,1,14,21Z" fill="#ffa726"/><path d="M9,53H9a2.82369,2.82369,0,0,1-2.81852-2.9945L8,20h2l1.81852,30.0055A2.82369,2.82369,0,0,1,9,53Z" fill="#ffb74d"/><path d="M55,53h0a2.82369,2.82369,0,0,1-2.81852-2.9945L54,20h2l1.81851,30.0055A2.82367,2.82367,0,0,1,55,53Z" fill="#ffb74d"/><path d="M56,20H54.17621l1.81854,30.00549a2.8138,2.8138,0,0,1-1.90662,2.82892A2.79126,2.79126,0,0,0,55,53a2.82373,2.82373,0,0,0,2.81854-2.99451Z" fill="#ffa726"/><path d="M10,20H8.1762L9.99474,50.00549a2.8138,2.8138,0,0,1-1.90662,2.82892A2.79126,2.79126,0,0,0,9,53a2.82373,2.82373,0,0,0,2.81854-2.99451Z" fill="#ffa726"/><ellipse cx="55" cy="19" rx="6" ry="8" fill="#ffb74d"/><path d="M55,11a4.75654,4.75654,0,0,0-2.5.73438C54.564,12.99927,56,15.773,56,19s-1.436,6.00073-3.5,7.26562A4.75654,4.75654,0,0,0,55,27c3.31372,0,6-3.58173,6-8S58.31372,11,55,11Z" fill="#ffa726"/><path d="M3,19v2a6,6,0,0,0,12,0V19Z" fill="#ffb74d"/><path d="M15,19v2a6.00475,6.00475,0,0,1-6,6,5.82513,5.82513,0,0,1-2.5-.55A5.9945,5.9945,0,0,0,10,21V19Z" fill="#ffa726"/><path d="M30.501,46.92419C30.9942,46.97321,31.494,47,32,47v-.30121A14.95905,14.95905,0,0,1,30.501,46.92419Z" fill="#ffa726"/><path d="M44.99,24.5l-2.32336,1.34039A14.97961,14.97961,0,0,1,32,46.69879V47A14.99947,14.99947,0,0,0,44.99,24.5Z" fill="#66bb6a"/><path d="M42.66663,25.84039,44.99,24.5A15.00655,15.00655,0,0,0,32,17c-.493,0-.978.032-1.45868.07861A15.00067,15.00067,0,0,1,42.66663,25.84039Z" fill="#e53935"/></g></svg>
