<svg id="svg11425" height="512" viewBox="0 0 16.933333 16.933334" width="512" xmlns="http://www.w3.org/2000/svg" xmlns:svg="http://www.w3.org/2000/svg"><g id="layer1" transform="translate(0 -280.067)"><path id="path12195" d="m2.6458302 280.5962c-.43516 0-.79297.3578-.79297.79296v14.28711c0 .43517.35781.79493.79297.79493h11.6425798c.43516 0 .79297-.35976.79297-.79493v-14.28711c0-.43516-.35781-.79296-.79297-.79296z" fill="#dbe9ee" font-variant-ligatures="normal" font-variant-position="normal" font-variant-caps="normal" font-variant-numeric="normal" font-variant-alternates="normal" font-feature-settings="normal" text-indent="0" text-align="start" text-decoration-line="none" text-decoration-style="solid" text-decoration-color="#000000" text-transform="none" text-orientation="mixed" white-space="normal" shape-padding="0" isolation="auto" mix-blend-mode="normal" solid-color="#000000" solid-opacity="1" vector-effect="none"/><g fill="#ff6b6b"><path id="path12236" d="m11.44633 282.53316-1.30638 1.3069c-.4668498.46685-.4668598 1.23019 0 1.69705.46686.46685 1.23019.46687 1.69705 0l1.3069-1.3069c.48347-.48346.45922-1.23783 0-1.69705-.48338-.48338-1.25565-.4421-1.69757 0z" font-variant-ligatures="normal" font-variant-position="normal" font-variant-caps="normal" font-variant-numeric="normal" font-variant-alternates="normal" font-feature-settings="normal" text-indent="0" text-align="start" text-decoration-line="none" text-decoration-style="solid" text-decoration-color="#000000" text-transform="none" text-orientation="mixed" white-space="normal" shape-padding="0" isolation="auto" mix-blend-mode="normal" solid-color="#000000" solid-opacity="1" vector-effect="none"/><path id="path12234" d="m5.0968502 282.53369-1.30638 1.30689c-.4668499.46686-.4668599 1.2302 0 1.69706.46686.46685 1.23019.46687 1.69705 0l1.3069001-1.3069c.46686-.46686.4630899-1.23396 0-1.69705-.4630901-.46309-1.2040801-.47845-1.6975701 0z" font-variant-ligatures="normal" font-variant-position="normal" font-variant-caps="normal" font-variant-numeric="normal" font-variant-alternates="normal" font-feature-settings="normal" text-indent="0" text-align="start" text-decoration-line="none" text-decoration-style="solid" text-decoration-color="#000000" text-transform="none" text-orientation="mixed" white-space="normal" shape-padding="0" isolation="auto" mix-blend-mode="normal" solid-color="#000000" solid-opacity="1" vector-effect="none"/><path id="path12228" d="m11.44633 287.03055-1.30638 1.3069c-.4668498.46686-.4668598 1.23019 0 1.69705.46686.46686 1.23019.46687 1.69705 0l1.3069-1.30689c.4896-.4896.45478-1.24227 0-1.69706-.48338-.48338-1.25565-.44209-1.69757 0z" font-variant-ligatures="normal" font-variant-position="normal" font-variant-caps="normal" font-variant-numeric="normal" font-variant-alternates="normal" font-feature-settings="normal" text-indent="0" text-align="start" text-decoration-line="none" text-decoration-style="solid" text-decoration-color="#000000" text-transform="none" text-orientation="mixed" white-space="normal" shape-padding="0" isolation="auto" mix-blend-mode="normal" solid-color="#000000" solid-opacity="1" vector-effect="none"/><path id="path12226" d="m5.0968502 287.03108-1.30638 1.3069c-.4668499.46686-.4668599 1.23019 0 1.69705.46686.46686 1.23019.46687 1.69705 0l1.3069001-1.3069c.46686-.46685.4663998-1.23065 0-1.69705-.48339-.48338-1.2556601-.44209-1.6975701 0z" font-variant-ligatures="normal" font-variant-position="normal" font-variant-caps="normal" font-variant-numeric="normal" font-variant-alternates="normal" font-feature-settings="normal" text-indent="0" text-align="start" text-decoration-line="none" text-decoration-style="solid" text-decoration-color="#000000" text-transform="none" text-orientation="mixed" white-space="normal" shape-padding="0" isolation="auto" mix-blend-mode="normal" solid-color="#000000" solid-opacity="1" vector-effect="none"/><path id="path12220" d="m11.44633 291.53211-1.30638 1.3069c-.4668498.46686-.4668598 1.23019 0 1.69705.46686.46686 1.23019.46687 1.69705 0l1.3069-1.30689c.47709-.4771.45909-1.23797 0-1.69706-.48338-.48338-1.25565-.4421-1.69757 0z" font-variant-ligatures="normal" font-variant-position="normal" font-variant-caps="normal" font-variant-numeric="normal" font-variant-alternates="normal" font-feature-settings="normal" text-indent="0" text-align="start" text-decoration-line="none" text-decoration-style="solid" text-decoration-color="#000000" text-transform="none" text-orientation="mixed" white-space="normal" shape-padding="0" isolation="auto" mix-blend-mode="normal" solid-color="#000000" solid-opacity="1" vector-effect="none"/><path id="path12218" d="m5.0968502 291.53321-1.30638 1.3069c-.4668499.46686-.4668599 1.23019 0 1.69705.46686.46685 1.23019.46687 1.69705 0l1.3069001-1.3069c.48294-.48293.4590899-1.23796 0-1.69705-.48338-.48338-1.2556601-.44209-1.6975701 0z" font-variant-ligatures="normal" font-variant-position="normal" font-variant-caps="normal" font-variant-numeric="normal" font-variant-alternates="normal" font-feature-settings="normal" text-indent="0" text-align="start" text-decoration-line="none" text-decoration-style="solid" text-decoration-color="#000000" text-transform="none" text-orientation="mixed" white-space="normal" shape-padding="0" isolation="auto" mix-blend-mode="normal" solid-color="#000000" solid-opacity="1" vector-effect="none"/></g><path id="path16826" d="m8.4622402 282.18018a.26460982.26460982 0 0 0 -.2597701.26758v12.17187a.26465001.26465001 0 1 0 .5293 0v-12.17187a.26460982.26460982 0 0 0 -.2695299-.26758z" fill="#c8d4d9" font-variant-ligatures="normal" font-variant-position="normal" font-variant-caps="normal" font-variant-numeric="normal" font-variant-alternates="normal" font-feature-settings="normal" text-indent="0" text-align="start" text-decoration-line="none" text-decoration-style="solid" text-decoration-color="#000000" text-transform="none" text-orientation="mixed" white-space="normal" shape-padding="0" isolation="auto" mix-blend-mode="normal" solid-color="#000000" solid-opacity="1" vector-effect="none"/><path id="path12238" d="m8.2026003 282.44789v12.17187c.008.34494.5214199.34494.5291698 0v-12.17187c0-.35504-.5291698-.35946-.5291698 0z" fill="#c8d4d9" font-variant-ligatures="normal" font-variant-position="normal" font-variant-caps="normal" font-variant-numeric="normal" font-variant-alternates="normal" font-feature-settings="normal" text-indent="0" text-align="start" text-decoration-line="none" text-decoration-style="solid" text-decoration-color="#000000" text-transform="none" text-orientation="mixed" white-space="normal" shape-padding="0" isolation="auto" mix-blend-mode="normal" solid-color="#000000" solid-opacity="1" vector-effect="none"/><path id="path12248" d="m6.1407082 284.88443-1.6970534-1.69705-.6531901.65319c-.4668494.46686-.46686 1.23019 0 1.69705.4668599.46686 1.2301934.46687 1.6970534 0z" fill="#33b9ef" font-variant-ligatures="normal" font-variant-position="normal" font-variant-caps="normal" font-variant-numeric="normal" font-variant-alternates="normal" font-feature-settings="normal" text-indent="0" text-align="start" text-decoration-line="none" text-decoration-style="solid" text-decoration-color="#000000" text-transform="none" text-orientation="mixed" white-space="normal" shape-padding="0" isolation="auto" mix-blend-mode="normal" solid-color="#000000" solid-opacity="1" vector-effect="none"/><path id="path12250" d="m12.49019 284.88443-1.69705-1.69705-.65319.65319c-.4668498.46686-.4668598 1.23019 0 1.69705.46686.46686 1.23019.46687 1.69705 0z" fill="#33b9ef" font-variant-ligatures="normal" font-variant-position="normal" font-variant-caps="normal" font-variant-numeric="normal" font-variant-alternates="normal" font-feature-settings="normal" text-indent="0" text-align="start" text-decoration-line="none" text-decoration-style="solid" text-decoration-color="#000000" text-transform="none" text-orientation="mixed" white-space="normal" shape-padding="0" isolation="auto" mix-blend-mode="normal" solid-color="#000000" solid-opacity="1" vector-effect="none"/><path id="path12252" d="m6.1407103 289.38184-1.69705-1.69705-.6531901.65319c-.4668499.46686-.4668599 1.23019 0 1.69705.46686.46686 1.23019.46687 1.69705 0z" fill="#33b9ef" font-variant-ligatures="normal" font-variant-position="normal" font-variant-caps="normal" font-variant-numeric="normal" font-variant-alternates="normal" font-feature-settings="normal" text-indent="0" text-align="start" text-decoration-line="none" text-decoration-style="solid" text-decoration-color="#000000" text-transform="none" text-orientation="mixed" white-space="normal" shape-padding="0" isolation="auto" mix-blend-mode="normal" solid-color="#000000" solid-opacity="1" vector-effect="none"/><path id="path12254" d="m12.49019 289.38184-1.69705-1.69705-.65319.65319c-.4668498.46686-.4668598 1.23019 0 1.69705.46686.46686 1.23019.46687 1.69705 0z" fill="#33b9ef" font-variant-ligatures="normal" font-variant-position="normal" font-variant-caps="normal" font-variant-numeric="normal" font-variant-alternates="normal" font-feature-settings="normal" text-indent="0" text-align="start" text-decoration-line="none" text-decoration-style="solid" text-decoration-color="#000000" text-transform="none" text-orientation="mixed" white-space="normal" shape-padding="0" isolation="auto" mix-blend-mode="normal" solid-color="#000000" solid-opacity="1" vector-effect="none"/><path id="path12256" d="m6.1407103 293.88397-1.69705-1.69705-.6531901.65319c-.4668499.46686-.4668599 1.23019 0 1.69705.46686.46686 1.23019.46687 1.69705 0z" fill="#33b9ef" font-variant-ligatures="normal" font-variant-position="normal" font-variant-caps="normal" font-variant-numeric="normal" font-variant-alternates="normal" font-feature-settings="normal" text-indent="0" text-align="start" text-decoration-line="none" text-decoration-style="solid" text-decoration-color="#000000" text-transform="none" text-orientation="mixed" white-space="normal" shape-padding="0" isolation="auto" mix-blend-mode="normal" solid-color="#000000" solid-opacity="1" vector-effect="none"/><path id="path12258" d="m12.49019 293.88397-1.69705-1.69705-.65319.65319c-.4668498.46686-.4668598 1.23019 0 1.69705.46686.46686 1.23019.46687 1.69705 0z" fill="#33b9ef" font-variant-ligatures="normal" font-variant-position="normal" font-variant-caps="normal" font-variant-numeric="normal" font-variant-alternates="normal" font-feature-settings="normal" text-indent="0" text-align="start" text-decoration-line="none" text-decoration-style="solid" text-decoration-color="#000000" text-transform="none" text-orientation="mixed" white-space="normal" shape-padding="0" isolation="auto" mix-blend-mode="normal" solid-color="#000000" solid-opacity="1" vector-effect="none"/></g></svg>