<svg height="512" viewBox="0 0 64 64" width="512" xmlns="http://www.w3.org/2000/svg"><g id="_24-Doctor" data-name="24-Doctor"><rect fill="#e7eaef" height="55" rx="3" width="60" x="2" y="7"/><path d="m62 22v-12a3 3 0 0 0 -3-3h-54a3 3 0 0 0 -3 3v12z" fill="#d8dbe0"/><path d="m59 7h-4a3 3 0 0 1 3 3v49a3 3 0 0 1 -3 3h4a3 3 0 0 0 3-3v-49a3 3 0 0 0 -3-3z" fill="#d8dbe0"/><path d="m59 7h-54a3 3 0 0 0 -3 3v10h60v-10a3 3 0 0 0 -3-3z" fill="#fc6067"/><path d="m59 7h-4a3 3 0 0 1 3 3v10h4v-10a3 3 0 0 0 -3-3z" fill="#fb4b5b"/><path d="m14 2a3 3 0 0 0 -3 3v6a3 3 0 0 0 6 0v-6a3 3 0 0 0 -3-3z" fill="#e7eaef"/><path d="m14 2a3 3 0 0 0 -1 .18 3 3 0 0 1 2 2.82v6a3 3 0 0 1 -2 2.82 3 3 0 0 0 4-2.82v-6a3 3 0 0 0 -3-3z" fill="#d8dbe0"/><path d="m26 2a3 3 0 0 0 -3 3v6a3 3 0 0 0 6 0v-6a3 3 0 0 0 -3-3z" fill="#e7eaef"/><path d="m26 2a3 3 0 0 0 -1 .18 3 3 0 0 1 2 2.82v6a3 3 0 0 1 -2 2.82 3 3 0 0 0 4-2.82v-6a3 3 0 0 0 -3-3z" fill="#d8dbe0"/><path d="m38 2a3 3 0 0 0 -3 3v6a3 3 0 0 0 6 0v-6a3 3 0 0 0 -3-3z" fill="#e7eaef"/><path d="m38 2a3 3 0 0 0 -1 .18 3 3 0 0 1 2 2.82v6a3 3 0 0 1 -2 2.82 3 3 0 0 0 4-2.82v-6a3 3 0 0 0 -3-3z" fill="#d8dbe0"/><path d="m50 2a3 3 0 0 0 -3 3v6a3 3 0 0 0 6 0v-6a3 3 0 0 0 -3-3z" fill="#e7eaef"/><path d="m50 2a3 3 0 0 0 -1 .18 3 3 0 0 1 2 2.82v6a3 3 0 0 1 -2 2.82 3 3 0 0 0 4-2.82v-6a3 3 0 0 0 -3-3z" fill="#d8dbe0"/><path d="m29.5 56a7.5 7.5 0 0 1 -7.5-7.5v-9.5h2v9.5a5.5 5.5 0 0 0 11 0v-7a6.5 6.5 0 0 1 13 0v7.5h-2v-7.5a4.5 4.5 0 0 0 -9 0v7a7.5 7.5 0 0 1 -7.5 7.5z" fill="#fc6067"/><circle cx="47" cy="52" fill="#68b1fc" r="4"/><path d="m47 48a3.91 3.91 0 0 0 -2 .56 4 4 0 0 1 0 6.88 3.91 3.91 0 0 0 2 .56 4 4 0 0 0 0-8z" fill="#539ffb"/><path d="m23 40a10 10 0 0 1 -10-10v-3a3 3 0 0 1 3-3h2a1 1 0 0 1 0 2h-2a1 1 0 0 0 -1 1v3a8 8 0 0 0 16 0v-3a1 1 0 0 0 -1-1h-2a1 1 0 0 1 0-2h2a3 3 0 0 1 3 3v3a10 10 0 0 1 -10 10z" fill="#68b1fc"/></g></svg>