<svg height="512" viewBox="0 0 64 64" width="512" xmlns="http://www.w3.org/2000/svg"><g id="_22-Wishlist" data-name="22-Wishlist"><path d="m53 3a6 6 0 0 1 6 6v10a2 2 0 0 1 -2 2h-10a0 0 0 0 1 0 0v-12a6 6 0 0 1 6-6z" fill="#d7e1f2"/><path d="m53 3a6 6 0 0 0 -6 6v50a2 2 0 0 1 -2 2h-38a2 2 0 0 1 -2-2v-50a6 6 0 0 1 6-6z" fill="#e6f1ff"/><path d="m10 10h8v8h-8z" fill="#68b1fc"/><path d="m42 12h-19a1 1 0 0 1 0-2h19a1 1 0 0 1 0 2z" fill="#565d69"/><path d="m37 18h-14a1 1 0 0 1 0-2h14a1 1 0 0 1 0 2z" fill="#565d69"/><path d="m10 22h8v8h-8z" fill="#68b1fc"/><path d="m42 24h-19a1 1 0 0 1 0-2h19a1 1 0 0 1 0 2z" fill="#565d69"/><path d="m42 30h-19a1 1 0 0 1 0-2h19a1 1 0 0 1 0 2z" fill="#565d69"/><path d="m10 34h8v8h-8z" fill="#68b1fc"/><path d="m31 36h-8a1 1 0 0 1 0-2h8a1 1 0 0 1 0 2z" fill="#565d69"/><path d="m30 42h-7a1 1 0 0 1 0-2h7a1 1 0 0 1 0 2z" fill="#565d69"/><path d="m10 46h8v8h-8z" fill="#68b1fc"/><path d="m32 48h-9a1 1 0 0 1 0-2h9a1 1 0 0 1 0 2z" fill="#565d69"/><path d="m36 54h-13a1 1 0 0 1 0-2h13a1 1 0 0 1 0 2z" fill="#565d69"/><path d="m52.5 33a6.48928 6.48928 0 0 0 -5.5 3.04706 6.49549 6.49549 0 0 0 -12 3.45294c0 9.5 12 15.5 12 15.5s12-6 12-15.5a6.5 6.5 0 0 0 -6.5-6.5z" fill="#fc6067"/></g></svg>